<svg width="24" height="25" viewBox="0 0 24 25" fill="none" xmlns="http://www.w3.org/2000/svg">
<g clip-path="url(#clip0_771_1035)">
<path d="M10.9546 0.532057L0.424575 11.0536C0.29 11.1877 0.183221 11.3471 0.110363 11.5225C0.0375047 11.698 0 11.8861 0 12.0761C0 12.266 0.0375047 12.4541 0.110363 12.6296C0.183221 12.8051 0.29 12.9644 0.424575 13.0985L10.9546 23.62C11.5207 24.1856 12.4351 24.1856 13.0011 23.62L17.4163 19.2085C17.9233 18.7018 17.9233 17.8805 17.4163 17.374C16.9093 16.8673 16.0873 16.8673 15.5803 17.374L12.2332 20.7182C12.0923 20.859 11.8785 20.859 11.7376 20.7182L3.32857 12.3162C3.18767 12.1753 3.18767 11.9617 3.32857 11.8209L11.7376 3.41871C11.8785 3.27799 12.0923 3.27799 12.2332 3.41871L15.5803 6.76306C16.0873 7.26968 16.9093 7.26968 17.4163 6.76306C17.9233 6.25643 17.9233 5.43518 17.4163 4.92856L13.0016 0.51762C12.4332 -0.0358801 11.5185 -0.0313801 10.9546 0.532057Z" fill="url(#paint0_linear_771_1035)"/>
<path d="M10.9546 0.531947L0.424575 11.0535C0.29 11.1876 0.183221 11.347 0.110363 11.5224C0.0375047 11.6979 0 11.886 0 12.0759C0 12.2659 0.0375047 12.454 0.110363 12.6295C0.183221 12.8049 0.29 12.9643 0.424575 13.0984L10.9546 23.6199C11.5207 24.1854 12.4351 24.1854 13.0011 23.6199L17.4163 19.2084C17.9233 18.7017 17.9233 17.8804 17.4163 17.3739C16.9093 16.8672 16.0873 16.8672 15.5803 17.3739L12.2332 20.7181C12.0923 20.8589 11.8785 20.8589 11.7376 20.7181L3.32857 12.316C3.18767 12.1752 3.18767 11.9616 3.32857 11.8208L11.7376 3.4186C12.0884 3.11617 12.6609 2.5036 13.5015 2.36017C14.1262 2.25376 14.8093 2.48813 15.5506 3.06329L13.0017 0.517416C12.4332 -0.0359901 11.5186 -0.0314901 10.9546 0.531947Z" fill="url(#paint1_linear_771_1035)"/>
<path d="M18.4357 16.3953C18.9427 16.9019 19.7647 16.9019 20.2717 16.3953L23.5285 13.1412C23.6631 13.0071 23.7699 12.8478 23.8427 12.6723C23.9156 12.4969 23.9531 12.3088 23.9531 12.1188C23.9531 11.9288 23.9156 11.7407 23.8427 11.5652C23.7699 11.3898 23.6631 11.2304 23.5285 11.0963L20.2434 7.8254C19.7352 7.31943 18.9129 7.32018 18.4056 7.82708C17.8986 8.33371 17.8986 9.15496 18.4056 9.66158L20.6244 11.8786C20.7653 12.0194 20.7653 12.2331 20.6244 12.3739L18.4357 14.5608C17.9287 15.0674 17.9287 15.8887 18.4357 16.3953Z" fill="url(#paint2_linear_771_1035)"/>
<path d="M12.0307 14.9693C13.6009 14.9693 14.8738 13.6975 14.8738 12.1285C14.8738 10.5596 13.6009 9.28772 12.0307 9.28772C10.4604 9.28772 9.1875 10.5596 9.1875 12.1285C9.1875 13.6975 10.4604 14.9693 12.0307 14.9693Z" fill="url(#paint3_linear_771_1035)"/>
</g>
<defs>
<linearGradient id="paint0_linear_771_1035" x1="1105.2" y1="0.105978" x2="2105.87" y2="611.199" gradientUnits="userSpaceOnUse">
<stop stop-color="#4285EB"/>
<stop offset="1" stop-color="#2EC7FF"/>
</linearGradient>
<linearGradient id="paint1_linear_771_1035" x1="1239.42" y1="0.105856" x2="745.188" y2="2554.47" gradientUnits="userSpaceOnUse">
<stop stop-color="#29CDFF"/>
<stop offset="0.3786" stop-color="#148EFF"/>
<stop offset="1" stop-color="#0A60FF"/>
</linearGradient>
<linearGradient id="paint2_linear_771_1035" x1="431.133" y1="-113.586" x2="-211.951" y2="892.127" gradientUnits="userSpaceOnUse">
<stop stop-color="#FA816E"/>
<stop offset="0.41473" stop-color="#F74A5C"/>
<stop offset="1" stop-color="#F51D2C"/>
</linearGradient>
<linearGradient id="paint3_linear_771_1035" x1="396.585" y1="-193.495" x2="182.611" y2="662.434" gradientUnits="userSpaceOnUse">
<stop stop-color="#FA8E7D"/>
<stop offset="0.51264" stop-color="#F74A5C"/>
<stop offset="1" stop-color="#F51D2C"/>
</linearGradient>
<clipPath id="clip0_771_1035">
<rect width="24" height="24" fill="white" transform="translate(0 0.105835)"/>
</clipPath>
</defs>
</svg>
