<svg width="24" height="20" viewBox="0 0 24 20" fill="none" xmlns="http://www.w3.org/2000/svg">
<path fill-rule="evenodd" clipRule="evenodd" d="M20.0763 1.41698L20.5822 2.09674C20.715 2.27614 20.6818 2.5333 20.506 2.66885L19.9689 3.08547C20.0665 3.3506 20.129 3.63366 20.1544 3.92271L20.7658 4.00843C20.9845 4.03833 21.1368 4.24564 21.1076 4.46891L20.9943 5.31611C20.965 5.53938 20.7618 5.69686 20.5431 5.66496L19.8751 5.57127C19.756 5.83639 19.6036 6.07959 19.424 6.29688L19.799 6.79922C19.9318 6.97863 19.8966 7.23578 19.7208 7.37133L19.0548 7.88763C18.879 8.02318 18.6271 7.9873 18.4943 7.80988L18.0861 7.26169C17.8243 7.36136 17.549 7.42515 17.2638 7.45107L17.1798 8.07501C17.1505 8.29827 16.9474 8.45376 16.7286 8.42386L15.8986 8.30824C15.6798 8.27834 15.5275 8.07102 15.5568 7.84776L15.6486 7.16601C15.3908 7.04441 15.1505 6.88892 14.9376 6.70752L14.4454 7.08826C14.2697 7.22382 14.0177 7.18993 13.8849 7.01052L13.379 6.33076C13.2462 6.15136 13.2794 5.8942 13.4552 5.75865L13.9923 5.34203C13.8947 5.07491 13.8322 4.79384 13.8068 4.50479L13.1954 4.41907C12.9767 4.38917 12.8224 4.18185 12.8536 3.95859L12.9669 3.11139C12.9982 2.88812 13.1993 2.73264 13.4181 2.76254L14.0861 2.85623C14.2052 2.5931 14.3576 2.34791 14.5353 2.13062L14.1622 1.62828C14.0294 1.45087 14.0626 1.19372 14.2384 1.05816L14.9044 0.541867C15.0802 0.406314 15.3322 0.440202 15.465 0.61961L15.8732 1.1678C16.1329 1.06813 16.4103 1.00434 16.6935 0.978426L16.7775 0.354485C16.8068 0.131222 17.0099 -0.0262584 17.2286 0.00364291L18.0587 0.119261C18.2775 0.149163 18.4318 0.356479 18.4005 0.579742L18.3087 1.26149C18.5685 1.38309 18.8068 1.53858 19.0216 1.72197L19.5138 1.34123C19.6896 1.20368 19.9415 1.23757 20.0763 1.41698ZM5.79505 13.3795V10.0904H7.45521C7.7638 10.0904 7.99818 10.1163 8.16029 10.1721C8.3224 10.2259 8.45521 10.3256 8.55286 10.4711C8.65247 10.6186 8.70326 10.796 8.70326 11.0053C8.70326 11.1867 8.66419 11.3462 8.58802 11.4778C8.51185 11.6113 8.40638 11.719 8.27357 11.8007C8.18958 11.8525 8.0724 11.8964 7.92396 11.9303C8.0431 11.9721 8.12904 12.01 8.18177 12.0519C8.21888 12.0798 8.27161 12.1376 8.33997 12.2253C8.40833 12.313 8.45521 12.3828 8.47865 12.4306L8.96302 13.3815H7.83802L7.30677 12.3788C7.23841 12.2492 7.17982 12.1635 7.12708 12.1256C7.05482 12.0758 6.97279 12.0499 6.88294 12.0499H6.79505V13.3815H5.79505V13.3795ZM9.30677 19.1066H7.4474L7.17982 19.9997H5.50404L7.50208 14.5795H9.29896L11.2892 19.9997H9.57044L9.30677 19.1066ZM8.95911 17.9325L8.37904 15.9829L7.79701 17.9325H8.95911ZM11.6759 14.5795H14.4064C15.0021 14.5795 15.4474 14.7231 15.7423 15.0121C16.0372 15.3012 16.1857 15.7138 16.1857 16.246C16.1857 16.7942 16.0236 17.2228 15.7013 17.5318C15.379 17.8408 14.8849 17.9943 14.2228 17.9943H13.3224V19.9997H11.6759V14.5795ZM13.3224 16.8959H13.7267C14.0451 16.8959 14.2697 16.8401 14.3986 16.7265C14.5275 16.6148 14.5919 16.4693 14.5919 16.2959C14.5919 16.1264 14.5353 15.9809 14.424 15.8633C14.3126 15.7457 14.1017 15.6859 13.7931 15.6859H13.3224V16.8959ZM16.8497 14.5795H18.4962V19.9997H16.8497V14.5795ZM6.79505 11.4259H7.21497C7.2599 11.4259 7.34779 11.41 7.47865 11.3801C7.54505 11.3661 7.59974 11.3323 7.64076 11.2764C7.68372 11.2206 7.70326 11.1568 7.70326 11.0851C7.70326 10.9794 7.67005 10.8957 7.60365 10.8399C7.53724 10.7821 7.41419 10.7542 7.23255 10.7542H6.79505V11.4259ZM9.15443 10.0904H11.8204V10.792H10.1544V11.3163H11.6993V11.9861H10.1544V12.634H11.8693V13.3775H9.15443V10.0904ZM12.1056 12.2911L13.0509 12.2313C13.0704 12.3888 13.1134 12.5064 13.1759 12.5881C13.2794 12.7197 13.4259 12.7875 13.6154 12.7875C13.756 12.7875 13.8673 12.7536 13.9435 12.6858C14.0197 12.618 14.0587 12.5383 14.0587 12.4486C14.0587 12.3629 14.0216 12.2871 13.9493 12.2193C13.8771 12.1516 13.7072 12.0898 13.4396 12.028C13.004 11.9283 12.6935 11.7947 12.506 11.6293C12.3185 11.4638 12.2247 11.2525 12.2247 10.9954C12.2247 10.8259 12.2736 10.6665 12.3693 10.5169C12.465 10.3674 12.6095 10.2478 12.8029 10.1621C12.9962 10.0764 13.2599 10.0345 13.5958 10.0345C14.0079 10.0345 14.3204 10.1123 14.5372 10.2698C14.7521 10.4272 14.881 10.6744 14.922 11.0173L13.9865 11.0751C13.9611 10.9256 13.9083 10.816 13.8302 10.7502C13.7501 10.6824 13.6388 10.6485 13.5001 10.6485C13.3849 10.6485 13.297 10.6744 13.2384 10.7243C13.1798 10.7741 13.1505 10.8359 13.1505 10.9077C13.1505 10.9595 13.1759 11.0053 13.2228 11.0492C13.2697 11.0911 13.379 11.1329 13.5548 11.1708C13.9904 11.2665 14.3029 11.3642 14.4904 11.4618C14.6779 11.5595 14.8165 11.6811 14.9005 11.8266C14.9865 11.9702 15.0294 12.1336 15.0294 12.313C15.0294 12.5243 14.9728 12.7177 14.8576 12.8951C14.7443 13.0725 14.5841 13.2081 14.379 13.2998C14.174 13.3915 13.9161 13.4373 13.6036 13.4373C13.0568 13.4373 12.6759 13.3297 12.465 13.1144C12.254 12.8951 12.1349 12.622 12.1056 12.2911ZM15.174 10.0904H18.2033V10.9037H17.1876V13.3795H16.1915V10.9037H15.174V10.0904ZM11.8224 2.28412C11.465 2.25621 11.1036 2.2602 10.7462 2.29608C9.64661 2.40372 8.57826 2.81237 7.69544 3.51207C6.67396 4.3194 5.89857 5.52741 5.59974 7.12813L5.50599 7.62848L5.01771 7.71619C4.53919 7.80191 4.11146 7.91952 3.73646 8.06903C3.37318 8.21255 3.04896 8.38997 2.76576 8.59928C2.53919 8.76673 2.34388 8.95411 2.17786 9.15744C1.66419 9.78536 1.42591 10.5728 1.43177 11.3701C1.43763 12.1795 1.69544 12.9968 2.17201 13.6685C2.34974 13.9177 2.55482 14.147 2.78919 14.3463C3.02747 14.5476 3.29505 14.7151 3.59583 14.8407C3.76575 14.9124 3.9474 14.9722 4.13685 15.0201V16.5132C3.74622 16.4414 3.38685 16.3338 3.05091 16.1922C2.60755 16.0048 2.21497 15.7636 1.86927 15.4686C1.54115 15.1895 1.25404 14.8726 1.0099 14.5277C0.359505 13.6107 0.00794264 12.4904 0.000130144 11.3741C-0.00768236 10.2458 0.336068 9.12355 1.07826 8.21455C1.31849 7.91952 1.60169 7.64842 1.92591 7.4092C2.30286 7.13013 2.73451 6.8949 3.22279 6.70154C3.55872 6.56798 3.9181 6.45635 4.29701 6.36665C4.72669 4.62439 5.64271 3.28282 6.82044 2.35189C7.92201 1.48077 9.24818 0.972446 10.6134 0.838887C11.3302 0.769117 12.0568 0.801012 12.7677 0.936564C12.7521 1.00235 12.7384 1.06813 12.7306 1.13591L12.7286 1.14787C12.715 1.26149 12.7091 1.37512 12.715 1.49074C12.5646 1.55054 12.424 1.63227 12.297 1.73194L12.2911 1.73593C12.1017 1.88145 11.9415 2.06883 11.8224 2.28412ZM22.1564 6.11149C22.2658 6.21315 22.3712 6.3188 22.4747 6.43243C22.6837 6.66167 22.881 6.92082 23.0665 7.20986C23.6915 8.19063 24.0118 9.5003 23.9982 10.7821C23.9845 12.0399 23.6525 13.2918 22.9728 14.2128C22.5294 14.8128 21.9611 15.3032 21.2794 15.6919C20.8126 15.959 20.2872 16.1803 19.715 16.3597V14.8148C20.0236 14.6972 20.3107 14.5656 20.5743 14.4161C21.088 14.123 21.5079 13.7662 21.8224 13.3376C22.3107 12.6738 22.5509 11.7349 22.5607 10.7721C22.5724 9.76144 22.3302 8.74679 21.8595 8.00922C21.7247 7.79593 21.5763 7.60456 21.4201 7.43313C21.3595 7.36734 21.299 7.30555 21.2365 7.24574C21.2462 7.14607 21.2501 7.04441 21.2443 6.94274C21.3947 6.88294 21.5353 6.80121 21.6622 6.70154L21.6681 6.69755C21.8693 6.54007 22.0372 6.34073 22.1564 6.11149ZM17.2033 2.55124C18.1036 2.67682 18.7326 3.52403 18.6095 4.44299C18.4865 5.36196 17.6564 6.00584 16.756 5.88025C15.8556 5.75466 15.2247 4.90746 15.3497 3.98849C15.4747 3.06953 16.3029 2.42565 17.2033 2.55124Z" fill="#01B5E6"/>
</svg>
