<svg width="36" height="25" viewBox="0 0 36 25" fill="none" xmlns="http://www.w3.org/2000/svg">
<path d="M18.1386 7.30584C16.8655 7.30584 15.6446 7.81155 14.7445 8.71172C13.8443 9.6119 13.3386 10.8328 13.3386 12.1058C13.3386 13.3789 13.8443 14.5998 14.7445 15.4999C15.6446 16.4001 16.8655 16.9058 18.1386 16.9058C19.4116 16.9058 20.6325 16.4001 21.5327 15.4999C22.4329 14.5998 22.9386 13.3789 22.9386 12.1058C22.9386 10.8328 22.4329 9.6119 21.5327 8.71172C20.6325 7.81155 19.4116 7.30584 18.1386 7.30584ZM18.1386 20.1058C16.0168 20.1058 13.982 19.263 12.4817 17.7627C10.9814 16.2624 10.1386 14.2276 10.1386 12.1058C10.1386 9.9841 10.9814 7.94927 12.4817 6.44898C13.982 4.94869 16.0168 4.10584 18.1386 4.10584C20.2603 4.10584 22.2951 4.94869 23.7954 6.44898C25.2957 7.94927 26.1386 9.9841 26.1386 12.1058C26.1386 14.2276 25.2957 16.2624 23.7954 17.7627C22.2951 19.263 20.2603 20.1058 18.1386 20.1058ZM18.1386 0.105835C10.1386 0.105835 3.30657 5.08184 0.538574 12.1058C3.30657 19.1298 10.1386 24.1058 18.1386 24.1058C26.1386 24.1058 32.9706 19.1298 35.7386 12.1058C32.9706 5.08184 26.1386 0.105835 18.1386 0.105835Z" fill="#5FB832"/>
</svg>
