<svg width="41" height="25" viewBox="0 0 41 25" fill="none" xmlns="http://www.w3.org/2000/svg">
<g clip-path="url(#clip0_774_1342)">
<path d="M11.8021 8.80196C11.8021 9.29404 11.8555 9.69294 11.9485 9.98549C12.0666 10.3146 12.2088 10.6346 12.3739 10.9428C12.4404 11.0492 12.4669 11.1555 12.4669 11.2487C12.4669 11.3816 12.3872 11.5146 12.2144 11.6476L11.3767 12.206C11.257 12.2859 11.1373 12.3257 11.0308 12.3257C10.898 12.3257 10.7649 12.2592 10.6319 12.1395C10.4528 11.947 10.2925 11.7377 10.1533 11.5146C10.0203 11.2887 9.8873 11.0358 9.7411 10.7301C8.70393 11.9533 7.40071 12.5651 5.83177 12.5651C4.71491 12.5651 3.82393 12.2459 3.17232 11.6078C2.52087 10.9693 2.18848 10.1184 2.18848 9.05467C2.18848 7.92447 2.58738 7.00698 3.39852 6.31553C4.2095 5.62408 5.28667 5.27836 6.65624 5.27836C7.10832 5.27836 7.57373 5.3182 8.06565 5.38471C8.55773 5.45122 9.06299 5.55757 9.59491 5.67726V4.70659C9.59491 3.69592 9.38205 2.9913 8.96981 2.57906C8.5444 2.16683 7.82628 1.9673 6.80244 1.9673C6.33703 1.9673 5.85844 2.02063 5.36636 2.14032C4.87444 2.25985 4.39569 2.4062 3.93028 2.5924C3.71757 2.68542 3.55805 2.73859 3.46487 2.76526C3.37185 2.79192 3.30534 2.8051 3.25216 2.8051C3.06597 2.8051 2.97295 2.67208 2.97295 2.39287V1.74126C2.97295 1.52855 2.99961 1.36902 3.06597 1.276C3.13248 1.18283 3.25216 1.08981 3.43836 0.996788C3.90377 0.757415 4.4622 0.557886 5.11365 0.398356C5.76542 0.225494 6.45687 0.145807 7.18816 0.145807C8.77059 0.145807 9.92746 0.504709 10.6721 1.22283C11.4034 1.94079 11.7758 3.03114 11.7758 4.49389V8.80196H11.8021ZM6.40354 10.8231C6.84244 10.8231 7.29452 10.7435 7.7731 10.5838C8.25185 10.4242 8.67742 10.1317 9.03632 9.73279C9.24918 9.48024 9.40871 9.20102 9.4884 8.88181C9.56824 8.56275 9.62142 8.17702 9.62142 7.72494V7.16651C9.21817 7.06836 8.80974 6.9929 8.39805 6.94047C7.98349 6.88782 7.56605 6.86115 7.14816 6.86063C6.25718 6.86063 5.60573 7.03349 5.16699 7.39255C4.72808 7.75161 4.51538 8.25687 4.51538 8.92165C4.51538 9.54659 4.67491 10.012 5.0073 10.3312C5.32652 10.6636 5.79193 10.8231 6.40354 10.8231ZM17.081 12.2592C16.8417 12.2592 16.6821 12.2194 16.5758 12.1262C16.4694 12.0465 16.3762 11.8603 16.2966 11.6078L13.1718 1.32918C13.0918 1.06314 13.052 0.890278 13.052 0.797258C13.052 0.584552 13.1584 0.464709 13.3712 0.464709H14.6743C14.9268 0.464709 15.0998 0.504709 15.1929 0.597729C15.2992 0.677572 15.3791 0.863768 15.4588 1.11632L17.6926 9.91898L19.767 1.11632C19.8335 0.850435 19.9133 0.677572 20.0195 0.597729C20.126 0.518043 20.3122 0.464866 20.5516 0.464866H21.6153C21.8679 0.464866 22.0409 0.504709 22.1471 0.597729C22.2536 0.677572 22.3466 0.863768 22.3998 1.11632L24.5008 10.0253L26.801 1.11632C26.8807 0.850435 26.9739 0.677572 27.0669 0.597729C27.1733 0.518043 27.3461 0.464866 27.5855 0.464866H28.822C29.0349 0.464866 29.1546 0.571219 29.1546 0.797258C29.1546 0.863768 29.1413 0.930278 29.1279 1.00996C29.1146 1.08981 29.0881 1.19616 29.0349 1.34251L25.8302 11.6209C25.7505 11.887 25.6575 12.0598 25.551 12.1395C25.4446 12.2194 25.2718 12.2726 25.0459 12.2726H23.9024C23.6497 12.2726 23.4768 12.2327 23.3703 12.1395C23.2639 12.0465 23.1709 11.8736 23.1177 11.6078L21.0566 3.03114L19.0089 11.5943C18.9425 11.8603 18.8627 12.0332 18.7563 12.1262C18.65 12.2194 18.4638 12.2592 18.2246 12.2592H17.081ZM34.1676 12.6183C33.4762 12.6183 32.7847 12.5384 32.1199 12.3789C31.455 12.2194 30.9366 12.0464 30.5908 11.8471C30.378 11.7273 30.2316 11.5944 30.1786 11.4747C30.1268 11.3574 30.0996 11.2306 30.0988 11.1024V10.4242C30.0988 10.145 30.2051 10.012 30.4046 10.012C30.4861 10.0123 30.5669 10.0258 30.644 10.052C30.7237 10.0787 30.8434 10.1317 30.9764 10.1849C31.446 10.3914 31.9363 10.5475 32.439 10.6503C32.9598 10.756 33.4899 10.8094 34.0214 10.8098C34.8591 10.8098 35.5107 10.6636 35.9628 10.3711C36.4148 10.0785 36.6542 9.6531 36.6542 9.10785C36.6542 8.73561 36.5345 8.42973 36.2951 8.17702C36.0558 7.92447 35.6037 7.69843 34.9522 7.48557L33.0241 6.8873C32.0534 6.58141 31.3355 6.12934 30.8966 5.53091C30.4578 4.94581 30.2318 4.29436 30.2318 3.60291C30.2318 3.04447 30.3515 2.5524 30.5908 2.12683C30.83 1.70142 31.1493 1.32918 31.5482 1.03663C31.9471 0.730748 32.3991 0.504709 32.9311 0.34518C33.4628 0.18565 34.0213 0.119141 34.6064 0.119141C34.8989 0.119141 35.2048 0.132474 35.4973 0.172317C35.8032 0.21216 36.0824 0.265337 36.3617 0.318513C36.6275 0.385023 36.8802 0.451533 37.1196 0.531376C37.359 0.611062 37.545 0.690905 37.678 0.770592C37.8642 0.877101 37.9971 0.983454 38.0769 1.10314C38.1568 1.20949 38.1966 1.35569 38.1966 1.54189V2.16683C38.1966 2.44604 38.0903 2.5924 37.8908 2.5924C37.7844 2.5924 37.6115 2.53906 37.3857 2.43271C36.6275 2.08698 35.7766 1.91412 34.8326 1.91412C34.0746 1.91412 33.4762 2.03381 33.0639 2.28651C32.6519 2.53906 32.439 2.92479 32.439 3.46989C32.439 3.84228 32.572 4.16134 32.8379 4.41404C33.1039 4.66659 33.5959 4.9193 34.3006 5.14534L36.1888 5.74377C37.1461 6.04965 37.8376 6.47506 38.2498 7.02016C38.662 7.56541 38.8616 8.19036 38.8616 8.88181C38.8616 9.45357 38.7417 9.97216 38.5157 10.4242C38.2765 10.8763 37.9573 11.2752 37.545 11.5944C37.1328 11.9268 36.6409 12.1662 36.0691 12.3391C35.4707 12.5253 34.8457 12.6183 34.1676 12.6183Z" fill="#252F3E"/>
<path d="M36.6805 19.0806C32.3059 22.3118 25.9498 24.0271 20.4849 24.0271C12.8257 24.0271 5.9247 21.1948 0.712313 16.4877C0.300077 16.1155 0.672313 15.6102 1.16423 15.9026C6.8022 19.1738 13.7565 21.155 20.9503 21.155C25.8036 21.155 31.1357 20.1445 36.0424 18.0701C36.7736 17.7376 37.3986 18.5489 36.6805 19.0806ZM38.5023 17.0063C37.9438 16.2883 34.8056 16.6605 33.3829 16.8334C32.9573 16.8867 32.8908 16.5144 33.2765 16.2351C35.7763 14.4798 39.8852 14.9853 40.3638 15.5702C40.8425 16.1686 40.2307 20.2773 37.8905 22.2453C37.5316 22.5512 37.1859 22.3917 37.3454 21.9928C37.8772 20.6762 39.0607 17.7111 38.5023 17.0063Z" fill="#FF9900"/>
</g>
<defs>
<clipPath id="clip0_774_1342">
<rect width="40.1569" height="24" fill="white" transform="translate(0.446289 0.105835)"/>
</clipPath>
</defs>
</svg>
