<svg width="44" height="48" viewBox="0 0 44 48" fill="none" xmlns="http://www.w3.org/2000/svg">
<path d="M28.375 8.10645H15.625C12.5184 8.10645 10 10.6248 10 13.7314V26.4814C10 29.588 12.5184 32.1064 15.625 32.1064H28.375C31.4816 32.1064 34 29.588 34 26.4814V13.7314C34 10.6248 31.4816 8.10645 28.375 8.10645Z" fill="url(#paint0_linear_774_1367)"/>
<g filter="url(#filter0_d_774_1367)">
<path d="M22.3722 26.4962C25.1543 26.4962 26.8308 25.1339 26.8308 22.8871C26.8308 21.1886 25.6347 19.9591 23.8584 19.7644V19.6937C25.1634 19.4813 26.1874 18.2694 26.1874 16.916C26.1874 14.9876 24.665 13.7314 22.345 13.7314H17.125V26.4962H22.3722ZM19.155 15.3502H21.8556C23.3238 15.3502 24.1575 16.0049 24.1575 17.1903C24.1575 18.4552 23.1878 19.1629 21.4297 19.1629H19.155V15.3502ZM19.155 24.8774V20.6756H21.8374C23.7588 20.6756 24.7556 21.3832 24.7556 22.7632C24.7556 24.1431 23.7859 24.8774 21.9553 24.8774H19.155Z" fill="url(#paint1_linear_774_1367)"/>
<path d="M22.3722 26.4962C25.1543 26.4962 26.8308 25.1339 26.8308 22.8871C26.8308 21.1886 25.6347 19.9591 23.8584 19.7644V19.6937C25.1634 19.4813 26.1874 18.2694 26.1874 16.916C26.1874 14.9876 24.665 13.7314 22.345 13.7314H17.125V26.4962H22.3722ZM19.155 15.3502H21.8556C23.3238 15.3502 24.1575 16.0049 24.1575 17.1903C24.1575 18.4552 23.1878 19.1629 21.4297 19.1629H19.155V15.3502ZM19.155 24.8774V20.6756H21.8374C23.7588 20.6756 24.7556 21.3832 24.7556 22.7632C24.7556 24.1431 23.7859 24.8774 21.9553 24.8774H19.155Z" stroke="white" stroke-width="2"/>
</g>
<defs>
<filter id="filter0_d_774_1367" x="0.125" y="0.731445" width="43.7061" height="46.7648" filterUnits="userSpaceOnUse" color-interpolation-filters="sRGB">
<feFlood flood-opacity="0" result="BackgroundImageFix"/>
<feColorMatrix in="SourceAlpha" type="matrix" values="0 0 0 0 0 0 0 0 0 0 0 0 0 0 0 0 0 0 127 0" result="hardAlpha"/>
<feOffset dy="4"/>
<feGaussianBlur stdDeviation="8"/>
<feColorMatrix type="matrix" values="0 0 0 0 0 0 0 0 0 0 0 0 0 0 0 0 0 0 0.15 0"/>
<feBlend mode="normal" in2="BackgroundImageFix" result="effect1_dropShadow_774_1367"/>
<feBlend mode="normal" in="SourceGraphic" in2="effect1_dropShadow_774_1367" result="shape"/>
</filter>
<linearGradient id="paint0_linear_774_1367" x1="10" y1="8.10645" x2="34" y2="32.1064" gradientUnits="userSpaceOnUse">
<stop stop-color="#9013FE"/>
<stop offset="1" stop-color="#6B11F4"/>
</linearGradient>
<linearGradient id="paint1_linear_774_1367" x1="18.0431" y1="14.5716" x2="23.9257" y2="24.5206" gradientUnits="userSpaceOnUse">
<stop stop-color="white"/>
<stop offset="1" stop-color="#F1E5FC"/>
</linearGradient>
</defs>
</svg>
