<svg width="24" height="24" viewBox="0 0 24 24" fill="none" xmlns="http://www.w3.org/2000/svg">
<g clip-path="url(#clip0_767_947)">
<path d="M11.0689 12.036L5.9492 17.0348L0.830078 12.036L5.9492 7.03894L11.0689 12.036Z" fill="#932279"/>
<path d="M12.1348 11.013L7.0918 5.98312L12.1348 0.953247L17.1767 5.98312L12.1348 11.013Z" fill="#EFA724"/>
<path d="M17.189 18.1055L12.0689 23.1045L6.9502 18.1055L12.0693 13.1086L17.189 18.1055Z" fill="#9CCD2A"/>
<path d="M18.2554 17.0827L13.2124 12.0519L18.2552 7.02295L23.298 12.0519L18.2554 17.0827Z" fill="#262577"/>
<path d="M13.1372 13.0282H19.9736V19.8534H13.1372V13.0282Z" fill="#EFA724"/>
<path d="M13.1655 4.21008H20.0237V11.0034H13.1655V4.21008Z" fill="#932279"/>
<path d="M3.95605 13.0282H11.0968V20.1069H3.95605V13.0282Z" fill="#262577"/>
<path d="M3.95605 3.92395H11.0968V10.9623H3.95605V3.92395Z" fill="#9CCD2A"/>
<path d="M12.1351 0.0870361L9.05002 3.2301H3.70083V8.55416L0.465332 11.782L3.70083 15.0124V20.2903H8.89402L12.0684 23.4593L15.2437 20.2903H20.4905V15.0278L23.6574 11.7973L20.5336 8.61491V3.27266H15.2608L12.1351 0.0870361ZM12.1342 0.818286L14.5419 3.27247H12.9088V9.58091L12.1344 10.3695L11.3516 9.57135V3.2301H9.76814L12.1342 0.818286ZM4.21046 3.74947H8.54302L6.73158 5.59466L10.8416 9.78641V10.4273H10.0719L5.94783 6.30997L4.21064 8.04379L4.21046 3.74947ZM9.26114 3.74947H10.8418V9.05141L7.45158 5.59429L9.26114 3.74947ZM13.4193 3.78979H15.0496L16.818 5.59466L13.419 9.06004L13.4193 3.78979ZM15.7685 3.78979H20.0242V8.0931L18.255 6.28935L14.157 10.4689H13.4193V9.7941L17.537 5.59447L15.7685 3.78979ZM18.255 7.02322L20.0242 8.82604V10.4687H14.8758L18.255 7.02322ZM5.94877 7.03579L9.34571 10.4275H4.21046V8.77129L5.94877 7.03579ZM3.70102 9.27885V10.9435H9.86302L10.7049 11.782L9.94927 12.537H3.70083V14.286L1.19302 11.782L3.70102 9.27885ZM20.534 9.34597L22.9387 11.7973L20.4905 14.2939V12.5363H14.2959L13.5721 11.7975L14.3688 10.9858H20.5335L20.534 9.34597ZM11.3514 10.3054L12.1342 11.1017L12.9086 10.314V10.9855H13.6501L12.8535 11.7972L13.5772 12.5359H12.8835V13.3275L12.0686 12.514L11.3525 13.2297V12.537H10.676L11.4316 11.782L11.2505 11.6027L10.5898 10.9435H11.352L11.3514 10.3054ZM4.21139 13.0534H9.43102L5.94877 16.5302L4.21158 14.7947L4.21139 13.0534ZM10.1574 13.0534H10.8418V13.7395L6.58608 17.9865L8.37596 19.7728H4.21139V15.5207L5.94783 17.2545L10.1574 13.0534ZM13.3929 13.0534H14.0846L18.2548 17.3059L18.435 17.1246L19.98 15.5472V19.7745H15.761L17.5518 17.9871L17.3707 17.8048L13.3929 13.8366V13.0534ZM14.8027 13.0534H19.9801V14.814L18.255 16.5726L14.8027 13.0534ZM12.0695 13.2405L12.8833 14.0533V20.2909H14.5175L12.0697 22.7337L9.62189 20.2909H11.3527V13.9558L12.0695 13.2405ZM10.842 14.4657V19.7732H9.10383L7.31396 17.9869L10.842 14.4657ZM13.3931 14.5617L16.8255 17.9869L15.0346 19.7743H13.3929L13.3931 14.5617Z" fill="white"/>
</g>
<defs>
<clipPath id="clip0_767_947">
<rect width="24" height="24" fill="white"/>
</clipPath>
</defs>
</svg>
