<svg width="24" height="24" viewBox="0 0 24 24" fill="none" xmlns="http://www.w3.org/2000/svg">
<g clip-path="url(#clip0_771_1032)">
<path d="M12 24C18.6274 24 24 18.6274 24 12C24 5.37258 18.6274 0 12 0C5.37258 0 0 5.37258 0 12C0 18.6274 5.37258 24 12 24Z" fill="url(#paint0_linear_771_1032)"/>
<path d="M17.5426 10.8544C17.5656 10.83 17.581 10.7994 17.5868 10.7663C17.5926 10.7333 17.5885 10.6993 17.5751 10.6685C17.5618 10.6377 17.5396 10.6116 17.5115 10.5933C17.4834 10.575 17.4505 10.5654 17.417 10.5656H12.1632C11.8426 10.5656 11.8951 10.3931 12.0095 10.1831C12.1238 9.97123 15.0301 4.67061 15.0301 4.67061C15.0432 4.64248 15.0507 4.61436 15.0507 4.58248C15.0506 4.54255 15.0388 4.50353 15.0166 4.47031C14.9945 4.43709 14.963 4.41115 14.9262 4.39573C14.8893 4.38032 14.8488 4.37611 14.8095 4.38365C14.7703 4.39119 14.7342 4.41013 14.7057 4.43811L6.46885 12.6469C6.43322 12.6806 6.4126 12.7256 6.4126 12.7781C6.4126 12.8775 6.49322 12.9581 6.5926 12.9581H12.212C12.5645 12.9581 12.4388 13.1606 12.3526 13.2787C12.2663 13.3969 8.01197 19.2787 8.01197 19.2787C7.98822 19.3101 7.9737 19.3475 7.97004 19.3868C7.96638 19.426 7.97373 19.4654 7.99127 19.5007C8.0088 19.5359 8.03582 19.5656 8.06929 19.5863C8.10275 19.6071 8.14135 19.6181 8.18072 19.6181C8.23885 19.6181 8.29135 19.5956 8.32885 19.5581C8.36635 19.5206 17.5407 10.8619 17.5407 10.8619L17.5426 10.86L17.5463 10.8562L17.5426 10.8544Z" fill="white"/>
</g>
<defs>
<linearGradient id="paint0_linear_771_1032" x1="12" y1="0" x2="12" y2="24" gradientUnits="userSpaceOnUse">
<stop stop-color="#7ACBD4"/>
<stop offset="1" stop-color="#29C6B7"/>
</linearGradient>
<clipPath id="clip0_771_1032">
<rect width="24" height="24" fill="white"/>
</clipPath>
</defs>
</svg>
