<svg width="21" height="24" viewBox="0 0 21 24" fill="none" xmlns="http://www.w3.org/2000/svg">
<path d="M1.41666 6.80986L10.4062 1.61972V0L0 6L1.41666 6.80986Z" fill="#E7E9ED"/>
<path d="M1.41666 17.1901V6.80986L0 6V18L10.4062 24L20.8125 18V6L10.4062 0V1.61972L19.3958 6.80986V17.1901L10.4062 22.3803L1.41666 17.1901Z" fill="#E7E9ED"/>
<path d="M7.85962 12.0668C7.07095 14.423 6.18689 16.6046 5.07384 18.3677L10.4068 21.4542L18.8348 16.5984V12.0959C18.0187 12.1849 17.5204 12.645 17.2477 13.3908C16.8275 14.5403 15.1342 15.8999 13.7692 14.0674C11.5992 17.5276 9.56498 16.9329 7.85962 12.0668Z" fill="#FE777B"/>
<path d="M4.39561 17.9672L2.63367 16.8675C2.96995 15.7778 5.72752 10.8346 7.37508 10.9737C7.12961 11.6159 6.91188 12.2401 6.69856 12.8516C6.08182 14.6198 5.50201 16.282 4.39561 17.9672Z" fill="#FE777B"/>
<path d="M7.11075 10.3091C5.71777 7.33083 3.0735 7.29225 1.941 11.7332V16.391L1.98146 16.3183C2.80812 14.8329 5.2303 10.4804 7.11075 10.3091Z" fill="#FE819D"/>
<path d="M18.4335 11.4005C17.0187 10.3396 14.9048 11.6314 14.0897 13.4992C14.8525 14.7576 15.6191 14.4982 16.2663 13.8889C16.434 13.731 16.5666 13.4689 16.7181 13.1692C17.0372 12.5381 17.4403 11.7407 18.4335 11.4005Z" fill="#FE777B"/>
<path d="M13.4121 13.5613C13.1281 13.1297 12.8477 12.6108 12.5866 12.0866C11.3314 13.0761 9.74086 12.5962 8.15119 11.3085C9.12534 13.8162 9.88898 15.2089 10.6517 15.5858C11.5136 16.0118 12.6769 15.0248 13.4121 13.5613Z" fill="#FFCE56"/>
<path d="M12.2779 11.4821C10.9576 8.95392 9.83916 6.98456 8.3993 10.6758C9.59208 11.6107 11.0213 12.5577 12.2779 11.4821Z" fill="#36A2EB"/>
<path d="M18.8348 10.5401C17.2868 8.20453 15.9834 8.06695 15.0291 8.74102C14.3826 9.19753 13.8896 10.1238 13.4847 10.8847C13.3456 11.146 13.2169 11.3879 13.0959 11.5845C13.2251 11.8742 13.3496 12.0851 13.4797 12.3055C13.5614 12.444 13.6454 12.5862 13.734 12.754C14.8429 10.644 16.9038 9.40683 18.8348 10.844V10.5401Z" fill="#FFCE56"/>
</svg>
