<svg width="24" height="25" viewBox="0 0 24 25" fill="none" xmlns="http://www.w3.org/2000/svg">
<path d="M4.42669 20.5066L2.74219 1.60583H21.2582L19.5714 20.5036L11.9889 22.6058L4.42669 20.5066Z" fill="#1572B6"/>
<path d="M12 20.9994L18.1275 19.3006L19.569 3.15161H12V20.9994Z" fill="#33A9DC"/>
<path d="M12 9.99913H15.0675L15.279 7.62538H12V5.30713H17.8125L17.757 5.92888L17.1877 12.3174H12V9.99913Z" fill="white"/>
<path d="M12.0144 16.0193L12.0039 16.0223L9.42243 15.3248L9.25743 13.4761H6.93018L7.25493 17.1158L12.0032 18.4343L12.0144 18.4313V16.0193Z" fill="#EBEBEB"/>
<path d="M14.8701 12.2191L14.5911 15.3234L12.0059 16.0209V18.4329L16.7579 17.1159L16.7931 16.7244L17.1959 12.2191H14.8701Z" fill="white"/>
<path d="M12.0084 5.30713V7.62538H6.40892L6.36242 7.10413L6.25667 5.92888L6.20117 5.30713H12.0084ZM12.0002 9.99913V12.3174H9.45092L9.40442 11.7961L9.29942 10.6209L9.24392 9.99913H12.0002Z" fill="#EBEBEB"/>
</svg>
