<svg width="24" height="24" viewBox="0 0 24 24" fill="none" xmlns="http://www.w3.org/2000/svg">
<g clip-path="url(#clip0_774_1379)">
<path d="M8.43429 9.52817C9.40422 9.52817 10.1925 10.046 10.5965 10.9453L10.6269 11.0162L12.2537 10.463L12.2208 10.3796C11.5918 8.8436 10.1394 7.89148 8.43429 7.89148C7.23429 7.89148 6.25929 8.27529 5.4536 9.06598C4.65279 9.8516 4.24854 10.8394 4.24854 12.0013C4.24854 13.1557 4.65541 14.1382 5.4536 14.9214C6.25929 15.7121 7.23447 16.0959 8.43429 16.0959C10.1394 16.0959 11.5893 15.1412 12.2208 13.6078L12.2537 13.5245L10.6243 12.9714L10.5965 13.0445C10.2328 13.9312 9.42447 14.459 8.43429 14.459C7.75985 14.459 7.18891 14.2241 6.73929 13.7593C6.28197 13.2896 6.0521 12.696 6.0521 12.0013C6.0521 11.3015 6.2771 10.7207 6.73929 10.2279C7.19135 9.7631 7.75985 9.52817 8.43429 9.52817Z" fill="black"/>
<path d="M15.4971 23.4619L15.0122 21.8629C19.3873 20.5343 22.3275 16.5709 22.3275 12.0013C22.3275 10.7408 22.1027 9.50813 21.6581 8.34094L23.2193 7.74731C23.7374 9.1065 24.002 10.5492 23.9998 12.0038C23.9974 17.3109 20.5821 21.9159 15.4971 23.4619Z" fill="url(#paint0_linear_774_1379)"/>
<path d="M21.8756 8.98014C20.5393 4.6202 16.5708 1.69239 11.9986 1.69239C11.3787 1.69249 10.76 1.74745 10.1497 1.85664L9.854 0.212264C10.5618 0.0849557 11.2795 0.0207038 11.9986 0.0202637C17.3084 0.0202637 21.9185 3.42283 23.4719 8.48758L21.8756 8.98014Z" fill="#69D3A7"/>
<path d="M0.768 16.2247C0.257625 14.8758 0 13.4536 0 12.0013C0 5.81244 4.6455 0.686941 10.8064 0.0805664L10.9706 1.74275C5.6685 2.26588 1.66969 6.67625 1.66969 12.0011C1.6681 13.2426 1.89145 14.4742 2.32894 15.6361L0.768 16.2247Z" fill="url(#paint1_linear_774_1379)"/>
<path d="M12.062 8.04303L15.3358 16.0557L12.9511 21.84L14.6208 22.1736L20.4258 8.04285H18.6221L16.3059 13.9135L13.9717 8.04285L12.062 8.04303Z" fill="black"/>
<path d="M13.2518 21.1127L12.9008 21.964C12.82 22.1586 12.6355 22.2925 12.4283 22.3C12.2845 22.305 12.1429 22.3101 11.9965 22.3101C7.41171 22.3101 3.32946 19.2409 2.06909 14.8457L0.462402 15.3053C1.92753 20.4105 6.66903 23.9771 11.9938 23.9798H11.9965C12.1632 23.9798 12.3298 23.9773 12.4965 23.9696C13.3528 23.9344 14.1184 23.3963 14.4465 22.6005L14.9217 21.4463L13.2518 21.1127Z" fill="url(#paint2_linear_774_1379)"/>
</g>
<defs>
<linearGradient id="paint0_linear_774_1379" x1="24.9185" y1="12.0769" x2="14.2052" y2="19.0134" gradientUnits="userSpaceOnUse">
<stop offset="0.081" stop-color="#69D3A7"/>
<stop offset="1" stop-color="#69D3A7" stop-opacity="0"/>
</linearGradient>
<linearGradient id="paint1_linear_774_1379" x1="8.00443" y1="0.17169" x2="1.27395" y2="14.4463" gradientUnits="userSpaceOnUse">
<stop stop-color="#69D3A7"/>
<stop offset="0.823" stop-color="#2AB586"/>
<stop offset="1" stop-color="#1CAE7F"/>
</linearGradient>
<linearGradient id="paint2_linear_774_1379" x1="-0.0168199" y1="17.4863" x2="17.6315" y2="23.025" gradientUnits="userSpaceOnUse">
<stop offset="0.077" stop-color="#1CAE7F"/>
<stop offset="0.164" stop-color="#1CA379"/>
<stop offset="0.316" stop-color="#1C8568"/>
<stop offset="0.516" stop-color="#1B554D"/>
<stop offset="0.719" stop-color="#1B1E2E"/>
</linearGradient>
<clipPath id="clip0_774_1379">
<rect width="24" height="24" fill="white"/>
</clipPath>
</defs>
</svg>
