<svg width="55" height="24" viewBox="0 0 55 24" fill="none" xmlns="http://www.w3.org/2000/svg">
<g clip-path="url(#clip0_771_1291)">
<path d="M4 24C6.208 24 8 22.208 8 20V16H4C1.792 16 0 17.792 0 20C0 22.208 1.792 24 4 24Z" fill="#0ACF83"/>
<path d="M0 12C0 9.792 1.792 8 4 8H8V16H4C1.792 16 0 14.208 0 12Z" fill="#A259FF"/>
<path d="M0 4C0 1.792 1.792 0 4 0H8V8H4C1.792 8 0 6.208 0 4Z" fill="#F24E1E"/>
<path d="M8 0H12C14.208 0 16 1.792 16 4C16 6.208 14.208 8 12 8H8V0Z" fill="#FF7262"/>
<path d="M16 12C16 14.208 14.208 16 12 16C9.792 16 8 14.208 8 12C8 9.792 9.792 8 12 8C14.208 8 16 9.792 16 12Z" fill="#1ABCFE"/>
</g>
<path d="M31.7071 12.7071C32.0976 12.3166 32.0976 11.6834 31.7071 11.2929L25.3431 4.92893C24.9526 4.53841 24.3195 4.53841 23.9289 4.92893C23.5384 5.31946 23.5384 5.95262 23.9289 6.34315L29.5858 12L23.9289 17.6569C23.5384 18.0474 23.5384 18.6805 23.9289 19.0711C24.3195 19.4616 24.9526 19.4616 25.3431 19.0711L31.7071 12.7071ZM18 13L31 13V11L18 11V13Z" fill="url(#paint0_linear_771_1291)"/>
<path d="M34.926 21.6009L33 0H54.1629L52.2343 21.5974L43.5686 24L34.926 21.6009Z" fill="#E44F26"/>
<path d="M43.5815 22.164L50.5844 20.2226L52.2318 1.7666H43.5815V22.164Z" fill="#F1662A"/>
<path d="M43.5813 9.77745H40.0756L39.8339 7.06459H43.5813V4.41516H36.9385L37.0019 5.12659L37.6525 12.4269H43.5813V9.77745ZM43.5813 16.6577L43.5693 16.6612L40.619 15.8649L40.4305 13.752H37.7708L38.1419 17.9109L43.5693 19.4177L43.5813 19.4143V16.6577Z" fill="#EBEBEB"/>
<path d="M43.5718 9.77745V12.4269H46.8341L46.5272 15.8632L43.5718 16.6603V19.4169L49.0035 17.9109L49.0429 17.4634L49.6652 10.4889L49.7303 9.77745H49.0163H43.5718ZM43.5718 4.41516V7.06459H49.9712L50.0243 6.46973L50.1452 5.12659L50.2086 4.41516H43.5718Z" fill="white"/>
<defs>
<linearGradient id="paint0_linear_771_1291" x1="18" y1="12.5" x2="31" y2="12.5" gradientUnits="userSpaceOnUse">
<stop stop-color="#1ABCFE"/>
<stop offset="1" stop-color="#E44F26"/>
</linearGradient>
<clipPath id="clip0_771_1291">
<rect width="16" height="24" fill="white"/>
</clipPath>
</defs>
</svg>
