<svg width="60" height="24" viewBox="0 0 60 24" fill="none" xmlns="http://www.w3.org/2000/svg">
<g clip-path="url(#clip0_771_1292)">
<path d="M4 24C6.208 24 8 22.208 8 20V16H4C1.792 16 0 17.792 0 20C0 22.208 1.792 24 4 24Z" fill="#0ACF83"/>
<path d="M0 12C0 9.792 1.792 8 4 8H8V16H4C1.792 16 0 14.208 0 12Z" fill="#A259FF"/>
<path d="M0 4C0 1.792 1.792 0 4 0H8V8H4C1.792 8 0 6.208 0 4Z" fill="#F24E1E"/>
<path d="M8 0H12C14.208 0 16 1.792 16 4C16 6.208 14.208 8 12 8H8V0Z" fill="#FF7262"/>
<path d="M16 12C16 14.208 14.208 16 12 16C9.792 16 8 14.208 8 12C8 9.792 9.792 8 12 8C14.208 8 16 9.792 16 12Z" fill="#1ABCFE"/>
</g>
<path d="M31.7071 12.7071C32.0976 12.3166 32.0976 11.6834 31.7071 11.2929L25.3431 4.92893C24.9526 4.53841 24.3195 4.53841 23.9289 4.92893C23.5384 5.31946 23.5384 5.95262 23.9289 6.34315L29.5858 12L23.9289 17.6569C23.5384 18.0474 23.5384 18.6805 23.9289 19.0711C24.3195 19.4616 24.9526 19.4616 25.3431 19.0711L31.7071 12.7071ZM18 13L31 13V11L18 11V13Z" fill="url(#paint0_linear_771_1292)"/>
<g clip-path="url(#clip1_771_1292)">
<path d="M55.1561 7.77093C54.8693 7.67254 54.5801 7.58138 54.2887 7.49756C54.3377 7.29756 54.3827 7.09998 54.4227 6.90588C55.0794 3.7184 54.6501 1.15051 53.1839 0.305034C51.7781 -0.505492 49.4791 0.339666 47.1572 2.3604C46.9283 2.55991 46.7046 2.76517 46.4861 2.97598C46.3399 2.8358 46.191 2.69834 46.0397 2.56367C43.6062 0.403034 41.1671 -0.507597 39.7024 0.340297C38.2979 1.15335 37.882 3.56735 38.4732 6.58819C38.532 6.88738 38.5984 7.18502 38.6723 7.48082C38.3271 7.57893 37.9939 7.68335 37.6751 7.79451C34.822 8.78924 33 10.3481 33 11.965C33 13.635 34.956 15.3101 37.9276 16.3258C38.1685 16.4078 38.4114 16.4838 38.6561 16.5537C38.5766 16.8723 38.5061 17.193 38.4445 17.5156C37.8809 20.484 38.3211 22.8409 39.7218 23.6488C41.1685 24.4831 43.5967 23.6257 45.9611 21.5588C46.1528 21.3908 46.3403 21.218 46.5234 21.0406C46.76 21.2689 47.0029 21.4905 47.2518 21.7052C49.5421 23.676 51.804 24.4718 53.2034 23.6617C54.6487 22.8249 55.1185 20.2929 54.5086 17.2124C54.4606 16.9711 54.4067 16.7309 54.3471 16.4922C54.5176 16.4417 54.6849 16.3897 54.8481 16.3356C57.9374 15.3121 59.9474 13.6573 59.9474 11.965C59.9474 10.3422 58.0665 8.77282 55.1561 7.77093ZM54.4861 15.2429C54.3387 15.2917 54.1876 15.3387 54.0335 15.3845C53.6924 14.3048 53.2322 13.1568 52.6689 11.9706C53.2064 10.8127 53.6489 9.67935 53.9804 8.60672C54.2561 8.68651 54.5236 8.77061 54.7815 8.85935C57.2752 9.71788 58.7962 10.987 58.7962 11.965C58.7962 13.0067 57.1535 14.359 54.4861 15.2429ZM53.3794 17.436C53.6491 18.7981 53.6875 20.0297 53.5088 20.9925C53.3484 21.8577 53.0257 22.4344 52.6265 22.6655C51.7774 23.157 49.9613 22.5181 48.0026 20.8326C47.7711 20.633 47.5451 20.4269 47.3251 20.2147C48.0844 19.3843 48.8433 18.4189 49.5839 17.3467C50.8866 17.2311 52.1174 17.0421 53.2335 16.7841C53.2872 17.0002 53.3359 17.2176 53.3794 17.436ZM42.1869 22.5805C41.3573 22.8735 40.6964 22.8819 40.2969 22.6516C39.4469 22.1614 39.0936 20.2688 39.5756 17.7303C39.6329 17.4303 39.6985 17.132 39.7723 16.8357C40.8761 17.0799 42.0979 17.2555 43.4037 17.3614C44.1494 18.4105 44.9301 19.3748 45.7169 20.2192C45.5497 20.381 45.3786 20.5387 45.2036 20.6921C44.158 21.606 43.1103 22.2544 42.1869 22.5805ZM38.3 15.2365C36.986 14.7874 35.9008 14.2037 35.1571 13.5667C34.4886 12.9944 34.1513 12.4261 34.1513 11.965C34.1513 10.9838 35.6141 9.73219 38.054 8.88156C38.3501 8.7784 38.66 8.68103 38.9816 8.58967C39.3188 9.68651 39.7612 10.8333 40.2949 11.993C39.7542 13.1699 39.3056 14.335 38.9651 15.4448C38.7417 15.3808 38.5199 15.3114 38.3 15.2365ZM39.6029 6.36703C39.0965 3.77893 39.4328 1.82661 40.2793 1.33661C41.1807 0.814718 43.1742 1.55882 45.2754 3.42451C45.4124 3.54644 45.5472 3.67085 45.6797 3.79767C44.8967 4.6384 44.1232 5.59556 43.3841 6.63851C42.1167 6.75598 40.9036 6.94461 39.7882 7.19735C39.7195 6.92221 39.6577 6.64528 39.6029 6.36703ZM51.2268 9.23745C50.9634 8.78239 50.6902 8.33306 50.4074 7.88977C51.2672 7.99851 52.0909 8.14282 52.8645 8.31924C52.6323 9.06367 52.3428 9.84188 52.0021 10.6398C51.753 10.1672 51.4946 9.69969 51.2268 9.23745ZM46.4866 4.62051C47.0176 5.19577 47.5494 5.83798 48.0724 6.53482C47.0114 6.48471 45.9485 6.4845 44.8875 6.53419C45.4111 5.84377 45.9474 5.2024 46.4866 4.62051ZM41.716 9.24524C41.4516 9.70375 41.198 10.1684 40.9553 10.6387C40.6201 9.84367 40.3333 9.06188 40.0991 8.30693C40.8679 8.13493 41.6878 7.9943 42.5421 7.88756C42.2561 8.33356 41.9807 8.78632 41.716 9.24524ZM42.5666 16.1244C41.684 16.0259 40.8518 15.8925 40.0832 15.7251C40.3211 14.9567 40.6142 14.1583 40.9566 13.3462C41.2003 13.8169 41.455 14.2818 41.7205 14.7405C41.9936 15.2121 42.2763 15.674 42.5666 16.1244ZM46.5184 19.3907C45.9727 18.8021 45.4285 18.1508 44.8971 17.4504C45.4131 17.4706 45.9391 17.4809 46.4737 17.4809C47.0229 17.4809 47.5659 17.4686 48.1003 17.4448C47.5756 18.1579 47.0458 18.8101 46.5184 19.3907ZM52.0129 13.3047C52.3732 14.1258 52.6767 14.92 52.9178 15.6752C52.1365 15.8536 51.2929 15.9971 50.4041 16.1038C50.6889 15.6522 50.9647 15.1951 51.2314 14.7326C51.5025 14.2625 51.763 13.7864 52.0129 13.3047ZM50.2342 14.1575C49.826 14.8665 49.3949 15.5622 48.9415 16.2432C48.1202 16.3014 47.297 16.3303 46.4737 16.3299C45.6351 16.3299 44.8194 16.3038 44.0339 16.2528C43.5687 15.5733 43.1293 14.8765 42.7167 14.1638C42.3061 13.4548 41.9227 12.7306 41.5671 11.9925C41.9218 11.2543 42.3042 10.5297 42.7134 9.82019L42.7133 9.8203C43.1223 9.11064 43.5582 8.41677 44.0199 7.74019C44.8213 7.67956 45.6431 7.64798 46.4736 7.64798C47.3079 7.64798 48.1308 7.67988 48.932 7.74093C49.3891 8.41649 49.8221 9.10798 50.2304 9.81409C50.641 10.522 51.0284 11.2431 51.3921 11.9762C51.0322 12.7168 50.6459 13.4443 50.2342 14.1575ZM52.6089 1.3023C53.5113 1.82272 53.8622 3.92135 53.2953 6.67346C53.2591 6.84903 53.2184 7.02788 53.1742 7.20924C52.0561 6.95114 50.8421 6.75924 49.5711 6.63998C48.8306 5.58556 48.0634 4.62693 47.2932 3.79703C47.495 3.60246 47.7017 3.41292 47.9129 3.22861C49.9024 1.49735 51.7618 0.813771 52.6089 1.3023ZM46.4737 9.55872C47.8026 9.55872 48.88 10.6361 48.88 11.965C48.88 13.294 47.8026 14.3714 46.4737 14.3714C45.1447 14.3714 44.0674 13.294 44.0674 11.965C44.0674 10.6361 45.1447 9.55872 46.4737 9.55872Z" fill="#00D8FF"/>
</g>
<defs>
<linearGradient id="paint0_linear_771_1292" x1="18" y1="12.5" x2="31" y2="12.5" gradientUnits="userSpaceOnUse">
<stop stop-color="#1ABCFE"/>
<stop offset="1" stop-color="#00D8FF"/>
</linearGradient>
<clipPath id="clip0_771_1292">
<rect width="16" height="24" fill="white"/>
</clipPath>
<clipPath id="clip1_771_1292">
<rect width="26.9474" height="24" fill="white" transform="translate(33)"/>
</clipPath>
</defs>
</svg>
