<svg width="16" height="25" viewBox="0 0 16 25" fill="none" xmlns="http://www.w3.org/2000/svg">
<g clip-path="url(#clip0_771_1261)">
<path d="M4 24.1058C6.208 24.1058 8 22.3138 8 20.1058V16.1058H4C1.792 16.1058 0 17.8978 0 20.1058C0 22.3138 1.792 24.1058 4 24.1058Z" fill="#0ACF83"/>
<path d="M0 12.1058C0 9.89784 1.792 8.10583 4 8.10583H8V16.1058H4C1.792 16.1058 0 14.3138 0 12.1058Z" fill="#A259FF"/>
<path d="M0 4.10583C0 1.89784 1.792 0.105835 4 0.105835H8V8.10583H4C1.792 8.10583 0 6.31383 0 4.10583Z" fill="#F24E1E"/>
<path d="M8 0.105835H12C14.208 0.105835 16 1.89784 16 4.10583C16 6.31383 14.208 8.10583 12 8.10583H8V0.105835Z" fill="#FF7262"/>
<path d="M16 12.1058C16 14.3138 14.208 16.1058 12 16.1058C9.792 16.1058 8 14.3138 8 12.1058C8 9.89784 9.792 8.10583 12 8.10583C14.208 8.10583 16 9.89784 16 12.1058Z" fill="#1ABCFE"/>
</g>
<defs>
<clipPath id="clip0_771_1261">
<rect width="16" height="24" fill="white" transform="translate(0 0.105835)"/>
</clipPath>
</defs>
</svg>
