<svg width="28" height="25" viewBox="0 0 28 25" fill="none" xmlns="http://www.w3.org/2000/svg">
<path d="M23.1428 15.6915L19.4657 14.1743C19.2516 14.0899 19.0127 14.0939 18.8016 14.1855C18.5905 14.2771 18.4245 14.4488 18.34 14.6629C18.2555 14.877 18.2595 15.1158 18.3511 15.327C18.4427 15.5381 18.6145 15.7041 18.8285 15.7886L20.64 16.5229L18.8285 17.3543C18.6214 17.4458 18.4588 17.6155 18.3764 17.8265C18.2939 18.0374 18.2983 18.2724 18.3885 18.4801C18.461 18.6255 18.5727 18.7479 18.7111 18.8332C18.8494 18.9185 19.0089 18.9634 19.1714 18.9629C19.294 18.9773 19.4174 18.9423 19.5142 18.8658L23.1428 17.2086C23.2894 17.137 23.4129 17.0256 23.4992 16.8872C23.5856 16.7488 23.6314 16.5889 23.6314 16.4258C23.6344 16.2682 23.5892 16.1135 23.5019 15.9823C23.4146 15.8511 23.2893 15.7496 23.1428 15.6915ZM14.8171 12.2658C14.603 12.1958 14.37 12.213 14.1684 12.3135C13.9668 12.414 13.8129 12.5898 13.74 12.8029L11.8828 18.4801C11.8129 18.6942 11.83 18.9272 11.9305 19.1288C12.031 19.3303 12.2069 19.4842 12.42 19.5572C12.4968 19.5928 12.5811 19.6095 12.6657 19.6058C12.8457 19.5962 13.0193 19.5359 13.1665 19.4317C13.3136 19.3275 13.4283 19.1838 13.4971 19.0172L15.3571 13.3429C15.4269 13.1284 15.4094 12.8951 15.3083 12.6935C15.2072 12.4918 15.0307 12.3382 14.8171 12.2658ZM9.09425 14.6772C9.00165 14.4698 8.83471 14.3046 8.62634 14.2142C8.41797 14.1237 8.18328 14.1146 7.96853 14.1886L4.28568 15.6915C4.13324 15.7606 4.00261 15.87 3.90793 16.008C3.81324 16.146 3.75812 16.3073 3.74854 16.4743C3.74972 16.6379 3.7977 16.7978 3.88681 16.935C3.97591 17.0722 4.10242 17.181 4.25139 17.2486L7.87139 18.9115C7.97812 18.9663 8.09466 18.9993 8.21425 19.0086C8.37739 19.0086 8.53726 18.9629 8.67566 18.8765C8.81406 18.7901 8.92543 18.6666 8.99711 18.5201C9.08735 18.3124 9.09173 18.0774 9.00929 17.8665C8.92685 17.6555 8.76428 17.4858 8.55711 17.3943L6.74568 16.5629L8.55711 15.8286C9.04568 15.5943 9.29139 15.1029 9.09425 14.6772Z" fill="#0097FF"/>
<path d="M24 1.82012C24.4547 1.82012 24.8907 2.00073 25.2122 2.32222C25.5337 2.64371 25.7143 3.07975 25.7143 3.53441V20.6773C25.7143 21.1319 25.5337 21.568 25.2122 21.8894C24.8907 22.2109 24.4547 22.3915 24 22.3915H3.42857C2.97391 22.3915 2.53788 22.2109 2.21639 21.8894C1.8949 21.568 1.71429 21.1319 1.71429 20.6773V3.53441C1.71429 3.07975 1.8949 2.64371 2.21639 2.32222C2.53788 2.00073 2.97391 1.82012 3.42857 1.82012H24ZM24 0.105835H3.42857C2.51926 0.105835 1.64719 0.467059 1.00421 1.11004C0.361223 1.75302 0 2.62509 0 3.53441V20.6773C0 21.5866 0.361223 22.4586 1.00421 23.1016C1.64719 23.7446 2.51926 24.1058 3.42857 24.1058H24C24.4502 24.1058 24.8961 24.0172 25.3121 23.8448C25.728 23.6725 26.106 23.42 26.4244 23.1016C26.7427 22.7833 26.9953 22.4053 27.1676 21.9893C27.3399 21.5733 27.4286 21.1275 27.4286 20.6773V3.53441C27.4286 3.08416 27.3399 2.63832 27.1676 2.22235C26.9953 1.80638 26.7427 1.42841 26.4244 1.11004C26.106 0.791668 25.728 0.539121 25.3121 0.366819C24.8961 0.194518 24.4502 0.105835 24 0.105835Z" fill="#0097FF"/>
<path d="M27.4286 7.68591H0V9.4002H27.4286V7.68591Z" fill="#0097FF"/>
<path d="M3.77979 4.92019C3.77976 5.08905 3.813 5.25626 3.8776 5.41227C3.9422 5.56828 4.0369 5.71004 4.15629 5.82945C4.27568 5.94886 4.41743 6.04359 4.57343 6.10821C4.72944 6.17284 4.89664 6.2061 5.0655 6.2061C5.23436 6.2061 5.40156 6.17284 5.55757 6.10821C5.71357 6.04359 5.85531 5.94886 5.97471 5.82945C6.0941 5.71004 6.1888 5.56828 6.2534 5.41227C6.318 5.25626 6.35124 5.08905 6.35121 4.92019C6.35124 4.75133 6.318 4.58412 6.2534 4.42811C6.1888 4.27209 6.0941 4.13033 5.97471 4.01092C5.85531 3.89151 5.71357 3.79679 5.55757 3.73217C5.40156 3.66754 5.23436 3.63428 5.0655 3.63428C4.89664 3.63428 4.72944 3.66754 4.57343 3.73217C4.41743 3.79679 4.27568 3.89151 4.15629 4.01092C4.0369 4.13033 3.9422 4.27209 3.8776 4.42811C3.813 4.58412 3.77976 4.75133 3.77979 4.92019Z" fill="#0097FF"/>
<path d="M7.77148 4.92024C7.77148 5.26123 7.90694 5.58825 8.14806 5.82937C8.38918 6.07049 8.71621 6.20595 9.0572 6.20595C9.39819 6.20595 9.72522 6.07049 9.96634 5.82937C10.2075 5.58825 10.3429 5.26123 10.3429 4.92024C10.3429 4.57924 10.2075 4.25222 9.96634 4.0111C9.72522 3.76998 9.39819 3.63452 9.0572 3.63452C8.71621 3.63452 8.38918 3.76998 8.14806 4.0111C7.90694 4.25222 7.77148 4.57924 7.77148 4.92024Z" fill="#0097FF"/>
<path d="M11.7627 4.92024C11.7627 5.26123 11.8982 5.58825 12.1393 5.82937C12.3804 6.07049 12.7074 6.20595 13.0484 6.20595C13.3894 6.20595 13.7164 6.07049 13.9575 5.82937C14.1987 5.58825 14.3341 5.26123 14.3341 4.92024C14.3341 4.57924 14.1987 4.25222 13.9575 4.0111C13.7164 3.76998 13.3894 3.63452 13.0484 3.63452C12.7074 3.63452 12.3804 3.76998 12.1393 4.0111C11.8982 4.25222 11.7627 4.57924 11.7627 4.92024Z" fill="#0097FF"/>
</svg>
