<svg width="24" height="25" viewBox="0 0 24 25" fill="none" xmlns="http://www.w3.org/2000/svg">
<g clip-path="url(#clip0_774_1362)">
<path d="M18.375 0.106445H5.625C2.5184 0.106445 0 2.62484 0 5.73145V18.4814C0 21.588 2.5184 24.1064 5.625 24.1064H18.375C21.4816 24.1064 24 21.588 24 18.4814V5.73145C24 2.62484 21.4816 0.106445 18.375 0.106445Z" fill="#430098"/>
<path d="M6.5625 20.5439V15.7225L9.27459 18.1333L6.5625 20.5439ZM15 20.5439V13.345C14.9883 12.7824 14.7173 12.1064 13.4933 12.1064C11.0423 12.1064 8.29275 13.3393 8.26538 13.3515L6.5625 14.123V3.66895H8.97319V10.5127C10.1767 10.1209 11.8591 9.69576 13.4933 9.69576C14.9834 9.69576 15.8753 10.2815 16.3612 10.773C17.398 11.8216 17.4122 13.1575 17.4108 13.3118V20.5439H15ZM15.6027 7.58638H13.1919C14.1394 6.34326 14.7342 5.03526 15 3.66895H17.4107C17.248 5.03826 16.6929 6.35085 15.6027 7.58638Z" fill="white"/>
</g>
<defs>
<clipPath id="clip0_774_1362">
<rect width="24" height="24" fill="white" transform="translate(0 0.106445)"/>
</clipPath>
</defs>
</svg>
