<svg width="24" height="25" viewBox="0 0 24 25" fill="none" xmlns="http://www.w3.org/2000/svg">
<path d="M4.42646 20.5066L2.74121 1.60583H21.2587L19.5712 20.5036L11.9887 22.6058L4.42646 20.5066Z" fill="#E44F26"/>
<path d="M12 20.9994L18.1275 19.3006L19.569 3.15161H12V20.9994Z" fill="#F1662A"/>
<path d="M12 10.1611H8.9325L8.721 7.78737H12V5.46912H6.1875L6.243 6.09162L6.81225 12.4794H12V10.1611ZM12 16.1814L11.9895 16.1844L9.408 15.4876L9.243 13.6389H6.91575L7.2405 17.2779L11.9895 18.5964L12 18.5934V16.1814Z" fill="#EBEBEB"/>
<path d="M11.9917 10.1611V12.4794H14.8462L14.5777 15.4861L11.9917 16.1836V18.5956L16.7444 17.2779L16.7789 16.8864L17.3234 10.7836L17.3804 10.1611H16.7557H11.9917ZM11.9917 5.46912V7.78737H17.5912L17.6377 7.26687L17.7434 6.09162L17.7989 5.46912H11.9917Z" fill="white"/>
</svg>
