<svg width="17" height="24" viewBox="0 0 17 24" fill="none" xmlns="http://www.w3.org/2000/svg">
<path d="M11.2111 2.48694V7.00378L16.2869 20.0403C16.2869 20.0403 17.8364 23.2241 13.4045 23.9999H3.29386C3.29386 23.9999 -0.836982 23.5689 0.153327 20.2981L5.48739 7.00395V2.48694H11.2111Z" fill="#009688"/>
<path d="M11.3181 1.96183H5.22925C4.73609 1.96183 4.33496 1.52312 4.33496 0.98109C4.33496 0.438707 4.73592 0 5.22925 0H11.3181C11.8135 0 12.2139 0.438707 12.2139 0.98109C12.2139 1.52312 11.8133 1.96183 11.3181 1.96183Z" fill="#004D40"/>
<path d="M9.71206 9.86206C10.3654 9.86206 10.8982 10.5005 10.8982 11.2911C10.8982 12.0782 10.3651 12.7182 9.71206 12.7182C9.05713 12.7182 8.52588 12.0782 8.52588 11.2911C8.52588 10.5001 9.05713 9.86206 9.71206 9.86206Z" fill="white"/>
<path d="M6.07068 13.5692C6.62289 13.5692 7.07055 13.0297 7.07055 12.3641C7.07055 11.6985 6.62289 11.1589 6.07068 11.1589C5.51846 11.1589 5.0708 11.6985 5.0708 12.3641C5.0708 13.0297 5.51846 13.5692 6.07068 13.5692Z" fill="white"/>
<path d="M11.6626 6.70456V4.55626C11.6626 4.55626 14.3869 3.9556 15.7484 7.12431C15.7484 7.12431 13.6265 8.67022 11.6626 6.70456Z" fill="#004D40"/>
<path d="M4.99022 6.70456V4.55626C4.99022 4.55626 2.26561 3.9556 0.904785 7.12431C0.904785 7.12431 3.02457 8.67022 4.99022 6.70456Z" fill="#004D40"/>
<path d="M13.3003 15.5949C8.87027 14.2206 5.14579 14.9584 3.32538 15.5161L1.48966 19.9346C0.663214 22.5724 4.11408 22.9191 4.11408 22.9191H12.5586C16.2601 22.2937 14.9664 19.7276 14.9664 19.7276L13.3003 15.5949Z" fill="white"/>
<path d="M6.91618 17.2366C6.91618 17.7131 6.27586 18.1006 5.48716 18.1006C4.69846 18.1006 4.06006 17.7129 4.06006 17.2366C4.06006 16.7582 4.69846 16.3721 5.48716 16.3721C6.27621 16.3724 6.91618 16.7582 6.91618 17.2366Z" fill="#004D40"/>
<path d="M11.9977 17.2366C11.9977 17.7131 11.3574 18.1006 10.5706 18.1006C9.77966 18.1006 9.1416 17.7129 9.1416 17.2366C9.1416 16.7582 9.77966 16.3721 10.5706 16.3721C11.3578 16.3724 11.9977 16.7582 11.9977 17.2366Z" fill="#004D40"/>
</svg>
