<svg width="24" height="32" viewBox="0 0 24 32" fill="none" xmlns="http://www.w3.org/2000/svg">
<g clip-path="url(#clip0_763_511)">
<path d="M7.73991 24.7375C7.73991 24.7375 6.5026 25.4473 8.6205 25.6875C11.1863 25.9762 12.4976 25.9349 15.3252 25.4069C15.3252 25.4069 16.0687 25.8667 17.1068 26.2651C10.7682 28.945 2.76122 26.1098 7.73991 24.7375ZM6.96535 21.2402C6.96535 21.2402 5.57757 22.2537 7.69707 22.4699C10.4379 22.7489 12.6024 22.7717 16.3479 22.0602C16.3479 22.0602 16.866 22.5783 17.6806 22.8617C10.0168 25.0725 1.48079 23.036 6.96535 21.2402Z" fill="#5382A1"/>
<path d="M13.495 15.3078C15.0569 17.0817 13.0847 18.678 13.0847 18.678C13.0847 18.678 17.0504 16.6584 15.2291 14.1293C13.5281 11.7709 12.2236 10.5989 19.2855 6.55859C19.2855 6.55859 8.2007 9.28978 13.495 15.3078Z" fill="#E76F00"/>
<path d="M21.8783 27.3247C21.8783 27.3247 22.7939 28.0689 20.8698 28.6447C17.2111 29.7382 5.64179 30.0683 2.42785 28.6883C1.27257 28.1925 3.43913 27.5045 4.1206 27.36C4.83132 27.2079 5.23754 27.2363 5.23754 27.2363C3.95269 26.3434 -3.06712 28.9896 1.67185 29.7473C14.5956 31.8149 25.2305 28.8164 21.8783 27.3247ZM8.33475 17.6172C8.33475 17.6172 2.44997 18.9962 6.25088 19.4968C7.85569 19.7088 11.0549 19.6608 14.0349 19.4145C16.4704 19.2119 18.9158 18.7809 18.9158 18.7809C18.9158 18.7809 18.0571 19.1438 17.4358 19.5623C11.4598 21.1128 -0.0847466 20.3915 3.23878 18.8054C6.0495 17.4651 8.33475 17.6172 8.33475 17.6172ZM18.8916 23.4384C24.9666 20.3242 22.1577 17.3316 20.1972 17.7348C19.7167 17.8334 19.5024 17.9189 19.5024 17.9189C19.5024 17.9189 19.6808 17.6433 20.0215 17.524C23.9 16.1788 26.8828 21.4913 18.7695 23.5954C18.7695 23.5955 18.8635 23.5126 18.8916 23.4384Z" fill="#5382A1"/>
<path d="M15.2289 0.0352487C15.2289 0.0352487 18.5934 3.35548 12.038 8.46077C6.78132 12.5562 10.8393 14.8913 12.0358 17.5592C8.96738 14.8281 6.71551 12.4239 8.22629 10.1863C10.4436 6.90147 16.5864 5.30905 15.2289 0.0352487Z" fill="#E76F00"/>
<path d="M8.93123 31.8774C14.7624 32.2457 23.7167 31.6731 23.9288 28.9512C23.9288 28.9512 23.5212 29.9831 19.1097 30.8025C14.1327 31.7265 7.9943 31.6186 4.35352 31.0265C4.35361 31.0265 5.09873 31.635 8.93123 31.8774Z" fill="#5382A1"/>
</g>
<defs>
<clipPath id="clip0_763_511">
<rect width="24" height="32" fill="white"/>
</clipPath>
</defs>
</svg>
