<svg width="25" height="25" viewBox="0 0 25 25" fill="none" xmlns="http://www.w3.org/2000/svg">
<g clip-path="url(#clip0_770_1005)">
<path d="M19.271 0.105835H6.521C3.41439 0.105835 0.895996 2.62423 0.895996 5.73083V18.4808C0.895996 21.5874 3.41439 24.1058 6.521 24.1058H19.271C22.3776 24.1058 24.896 21.5874 24.896 18.4808V5.73083C24.896 2.62423 22.3776 0.105835 19.271 0.105835Z" fill="#F0DB4F"/>
<path d="M7.20664 20.1619L9.0432 19.0504C9.39757 19.6786 9.71989 20.2102 10.493 20.2102C11.2341 20.2102 11.7014 19.9203 11.7014 18.7927V11.1241H13.9568V18.8246C13.9568 21.1605 12.5875 22.2238 10.5897 22.2238C8.78548 22.2238 7.7382 21.2894 7.20654 20.1617M15.1819 19.9202L17.0182 18.857C17.5017 19.6465 18.13 20.2264 19.2415 20.2264C20.1761 20.2264 20.772 19.7591 20.772 19.1147C20.772 18.3415 20.1598 18.0675 19.1287 17.6166L18.565 17.3748C16.9378 16.6822 15.8584 15.8122 15.8584 13.9756C15.8584 12.284 17.1472 10.9951 19.1611 10.9951C20.5949 10.9951 21.6259 11.4946 22.3669 12.7995L20.6109 13.9272C20.2242 13.2345 19.8055 12.9607 19.1611 12.9607C18.5005 12.9607 18.0816 13.3796 18.0816 13.9272C18.0816 14.6038 18.5005 14.8778 19.4671 15.2967L20.0309 15.5383C21.948 16.3601 23.0274 17.1976 23.0274 19.0825C23.0274 21.1125 21.4325 22.224 19.2899 22.224C17.1956 22.224 15.8423 21.2252 15.1819 19.9202Z" fill="#323330"/>
</g>
<defs>
<clipPath id="clip0_770_1005">
<rect width="24" height="24" fill="white" transform="translate(0.895996 0.105835)"/>
</clipPath>
</defs>
</svg>
