<svg width="23" height="25" viewBox="0 0 23 25" fill="none" xmlns="http://www.w3.org/2000/svg">
<g clip-path="url(#clip0_774_1376)">
<path d="M21.0861 11.891C21.0861 10.6606 20.0886 9.66315 18.8582 9.66315C18.779 9.66315 18.701 9.66739 18.624 9.67553L21.6839 0.650513H8.68018L11.7359 9.66764C11.6908 9.6648 11.6456 9.66333 11.6005 9.66323C10.3701 9.66323 9.37261 10.6605 9.37261 11.8911C9.37261 12.8856 10.0244 13.7276 10.924 14.0141C10.4489 14.8371 9.851 15.5783 9.17222 16.2188C8.24919 17.0895 7.19286 17.7498 6.05035 18.1566C4.69007 17.4578 4.04775 15.9037 4.62731 14.5412C4.69278 14.3872 4.75961 14.2313 4.82347 14.076C5.80891 13.846 6.54333 12.9626 6.54333 11.907C6.54333 10.6766 5.54584 9.67918 4.3154 9.67918C3.08495 9.67918 2.08756 10.6766 2.08756 11.907C2.08756 12.6615 2.46291 13.328 3.03678 13.731C2.48538 14.9865 1.67481 16.3005 1.42225 17.8233C1.11958 19.6483 1.42124 21.5856 2.99972 22.6797C6.67588 25.2276 10.6663 21.1002 14.8737 20.0626C16.3985 19.6867 18.0723 19.7472 19.4157 18.9692C20.4246 18.3849 21.0897 17.4165 21.2784 16.3294C21.465 15.2554 21.1931 14.1861 20.5679 13.319C20.9033 12.9188 21.0868 12.4132 21.0861 11.891Z" fill="#99425B"/>
<path d="M20.7422 16.2363C20.5783 17.1802 19.9954 18.0046 19.1429 18.4984C18.3482 18.9587 17.3959 19.096 16.3876 19.2414C15.8474 19.3193 15.2889 19.3999 14.7433 19.5344C13.3006 19.8902 11.9031 20.5843 10.5518 21.2555C7.84739 22.5989 5.51184 23.7588 3.30961 22.2325C1.69644 21.1145 1.7709 19.0459 1.95883 17.9124C2.13302 16.8622 2.60394 15.895 3.05926 14.9596C3.13684 14.8007 3.21378 14.6414 3.29011 14.4819C3.51963 14.5736 3.76047 14.634 4.00612 14.6615C3.54257 16.1913 4.27156 17.8547 5.80154 18.6406L6.01101 18.7483L6.23269 18.6693C7.44228 18.2385 8.55688 17.5473 9.54546 16.6145C10.1845 16.0117 10.7339 15.3447 11.1855 14.632C11.3228 14.6527 11.4615 14.6631 11.6003 14.6631C13.0046 14.6631 14.1674 13.6133 14.3474 12.2574C14.9222 12.2364 15.5327 12.2362 16.1109 12.2572C16.2906 13.6133 17.4537 14.6632 18.858 14.6632C19.4452 14.6632 19.9898 14.4791 20.4385 14.1665C20.75 14.8042 20.8662 15.5217 20.7422 16.2363ZM4.31532 10.2233C5.24377 10.2233 5.99905 10.9787 5.99905 11.9072C5.99931 12.2285 5.90701 12.5432 5.73319 12.8135C5.45333 13.25 4.97757 13.5492 4.431 13.5865C4.39275 13.589 4.35416 13.5909 4.31532 13.5909C4.1084 13.5909 3.9102 13.5531 3.72694 13.4846C3.35785 13.3458 3.04877 13.0826 2.85302 12.7403C2.70766 12.4867 2.63129 12.1994 2.63151 11.9072C2.63151 10.9787 3.38687 10.2233 4.31532 10.2233ZM9.91665 11.8911C9.91665 11.0476 10.5402 10.3472 11.3505 10.226C11.432 10.2138 11.5155 10.2074 11.6004 10.2074C12.1402 10.2074 12.6208 10.4631 12.9289 10.8593C13.0061 10.9581 13.0721 11.0652 13.1255 11.1786C13.2302 11.4015 13.2843 11.6448 13.2841 11.8911C13.2841 12.0257 13.2678 12.1566 13.2379 12.2821C13.0738 12.969 12.488 13.4941 11.7702 13.5664C11.7144 13.572 11.6578 13.5749 11.6004 13.5749C11.2765 13.5751 10.9595 13.4814 10.6879 13.3051C10.2243 13.0048 9.91665 12.4833 9.91665 11.8911ZM16.9441 9.88886C16.5777 10.2386 16.314 10.682 16.1816 11.1709C15.5469 11.1475 14.9117 11.1475 14.277 11.1709C14.1345 10.6424 13.8393 10.1761 13.4419 9.82195L15.1843 6.29895L16.9441 9.88886ZM9.43894 1.19484H20.9248L18.2119 9.19583C18.0952 9.22379 17.9804 9.25934 17.8684 9.30226L15.1885 3.83543L12.501 9.26961C12.3839 9.2294 12.2641 9.19713 12.1426 9.17302L9.43894 1.19484ZM20.5417 11.8912C20.5417 12.06 20.5165 12.223 20.4701 12.3769C20.3601 12.7393 20.1315 13.0542 19.8211 13.2712C19.539 13.4692 19.2026 13.5752 18.858 13.5749C18.0806 13.5749 17.4247 13.0452 17.2319 12.3277C17.1936 12.1854 17.1742 12.0386 17.1742 11.8912C17.1742 11.661 17.2207 11.4416 17.3047 11.2416C17.348 11.1393 17.4013 11.0415 17.4639 10.9497C17.7669 10.5024 18.2782 10.2075 18.858 10.2075C18.9111 10.2075 18.9635 10.2102 19.0155 10.2151C19.8704 10.2947 20.5417 11.0158 20.5417 11.8912ZM21.6301 11.8912C21.6301 10.5379 20.655 9.40869 19.3707 9.16751L22.4428 0.106445H7.92109L10.998 9.18582C9.75832 9.4617 8.82842 10.5695 8.82842 11.8911C8.82842 12.8835 9.35286 13.7552 10.1388 14.245C9.76078 14.8083 9.31249 15.3383 8.79874 15.8231C7.98393 16.5916 7.07625 17.1746 6.09768 17.5582C5.11199 16.939 4.69534 15.7713 5.12801 14.7542L5.16194 14.6744L5.22554 14.5248C6.30817 14.1472 7.08728 13.1168 7.08728 11.9072C7.08728 10.3786 5.84377 9.13511 4.31532 9.13511C2.78678 9.13511 1.54328 10.3786 1.54328 11.9072C1.54328 12.6786 1.86045 13.3773 2.37081 13.8803C2.27563 14.082 2.179 14.283 2.08095 14.4833C1.61426 15.4417 1.08541 16.528 0.885357 17.7343C0.488127 20.1301 1.12892 22.0452 2.68977 23.1269C3.63688 23.7833 4.59874 24.0415 5.56663 24.0415C7.3891 24.0415 9.23278 23.1258 11.036 22.2301C12.3346 21.5852 13.6775 20.9182 15.004 20.591C15.4975 20.4693 16.0054 20.396 16.543 20.3185C17.6093 20.1647 18.7118 20.0057 19.6884 19.4401C20.8205 18.7844 21.5953 17.6845 21.8145 16.4225C22.0026 15.3392 21.7762 14.2541 21.2241 13.3338C21.4901 12.8996 21.6307 12.4003 21.6301 11.8911" fill="white"/>
</g>
<defs>
<clipPath id="clip0_774_1376">
<rect width="21.7102" height="24" fill="white" transform="translate(0.770508 0.106445)"/>
</clipPath>
</defs>
</svg>
