<svg width="24" height="25" viewBox="0 0 24 25" fill="none" xmlns="http://www.w3.org/2000/svg">
<g clip-path="url(#clip0_771_1021)">
<path d="M1.80457 6.13972C-0.263365 9.11179 -0.00592714 12.979 1.57376 16.1372C1.61126 16.213 1.65064 16.2874 1.68945 16.3618L1.76332 16.5042L1.80945 16.5861L1.89176 16.7335C1.94089 16.8199 1.99114 16.906 2.04251 16.992L2.12857 17.1338C2.18557 17.2258 2.24389 17.3168 2.30351 17.4075L2.37814 17.5227C2.46045 17.6455 2.54464 17.7681 2.63164 17.8885L2.63895 17.8978L2.6817 17.9556C2.75689 18.0593 2.83432 18.1617 2.9127 18.2629L2.9997 18.3735C3.06964 18.4615 3.1407 18.5488 3.21307 18.6358L3.29464 18.7333C3.39194 18.8482 3.49108 18.9614 3.59201 19.0731L3.5982 19.0793L3.60964 19.092C3.70883 19.1997 3.8096 19.3059 3.91189 19.4106L4.00882 19.5083C4.08814 19.5882 4.16876 19.6667 4.25014 19.7449L4.34895 19.8387C4.4577 19.9412 4.56757 20.0417 4.6797 20.14L4.68495 20.1441L4.74251 20.1932C4.84132 20.2787 4.94182 20.3637 5.04307 20.4469L5.16757 20.5461C5.25026 20.6125 5.33389 20.6777 5.41807 20.7418L5.55195 20.8437C5.64495 20.9121 5.73851 20.9794 5.83301 21.0452L5.93539 21.1178L5.96351 21.1378C6.05314 21.1995 6.14482 21.259 6.23651 21.3184L6.35464 21.3972C6.49526 21.486 6.63776 21.574 6.78195 21.6589L6.90007 21.7255C7.00601 21.7866 7.1127 21.8466 7.2207 21.9053C7.2792 21.9368 7.3392 21.9666 7.39807 21.9968C7.47439 22.0367 7.55014 22.0772 7.62776 22.116L7.68082 22.1417L7.77476 22.1871C7.89495 22.2445 8.01607 22.3009 8.13851 22.3553L8.21539 22.3898C8.35573 22.4512 8.4972 22.51 8.6397 22.5662L8.74301 22.6069C8.87501 22.6577 9.00889 22.708 9.14332 22.7552L9.19357 22.7727C9.34114 22.8242 9.49001 22.872 9.64001 22.9187L9.74782 22.951C9.90045 22.9969 10.0514 23.0518 10.2087 23.0809C20.2098 24.9047 23.1149 17.071 23.1149 17.071C20.675 20.2497 16.3441 21.0882 12.2406 20.1546C12.0852 20.1195 11.9344 20.071 11.7828 20.0262L11.6686 19.9915C11.5208 19.9462 11.3737 19.8984 11.2276 19.848L11.167 19.8261C11.0367 19.78 10.907 19.732 10.7781 19.6819L10.669 19.639C10.528 19.5833 10.3878 19.5252 10.2492 19.4644L10.1654 19.4273C10.0467 19.3737 9.92864 19.3187 9.8112 19.2625L9.70882 19.2133C9.61676 19.1685 9.52564 19.1209 9.43489 19.074C9.37414 19.042 9.31226 19.0118 9.25207 18.9784C9.14159 18.9189 9.03214 18.8575 8.92376 18.7943L8.81295 18.7324C8.66902 18.6475 8.5265 18.5601 8.38545 18.4705L8.27014 18.3936C8.1676 18.3278 8.06615 18.2604 7.96582 18.1913L7.86795 18.1225C7.77134 18.0542 7.67546 17.9849 7.58032 17.9145L7.45301 17.8182C7.36559 17.7517 7.27909 17.6841 7.19351 17.6153L7.07782 17.5225C6.96884 17.4331 6.86108 17.3423 6.75457 17.25L6.71914 17.2202C6.60438 17.119 6.49112 17.016 6.37939 16.9114L6.28357 16.8193C6.20089 16.7406 6.11951 16.6613 6.03945 16.5799L5.94382 16.4845C5.84221 16.3805 5.74233 16.2749 5.6442 16.1676L5.62939 16.1518C5.52598 16.0385 5.42465 15.9232 5.32545 15.8061L5.24595 15.7116C5.17183 15.6224 5.09889 15.5323 5.02714 15.4412L4.94707 15.3415C4.86129 15.2306 4.77709 15.1184 4.69451 15.0051C2.41639 11.8975 1.59776 7.6116 3.41857 4.09185M8.22401 3.63547C6.72832 5.7876 6.8097 8.66872 7.97632 10.9448C8.17156 11.3274 8.39257 11.6963 8.63782 12.049C8.86189 12.3702 9.11032 12.7523 9.4077 13.0103C9.51644 13.1294 9.62835 13.2456 9.74332 13.3587L9.83182 13.4458C9.9435 13.5547 10.0578 13.6609 10.1746 13.7642L10.1884 13.7762L10.1918 13.7796C10.3225 13.8934 10.456 14.0038 10.5921 14.1109L10.6831 14.1818C10.82 14.2873 10.9596 14.3892 11.1018 14.4876L11.1139 14.4968C11.1769 14.5403 11.2411 14.5808 11.305 14.6228L11.3956 14.6826C11.4976 14.748 11.6009 14.8118 11.7059 14.8729L11.7499 14.8984C11.8405 14.9505 11.9322 15.0019 12.0243 15.0518L12.1219 15.1026C12.1855 15.1358 12.2491 15.1697 12.3138 15.202L12.3428 15.2151C12.4746 15.28 12.6076 15.3426 12.7433 15.4017L12.8318 15.438C12.9404 15.4842 13.0501 15.5292 13.1599 15.5712L13.3006 15.6227C13.4005 15.6599 13.5008 15.6936 13.6019 15.7275L13.7382 15.7712C13.882 15.8158 14.0241 15.8723 14.1739 15.8972C21.8958 17.1765 23.6785 11.2311 23.6785 11.2311C22.0716 13.5454 18.9595 14.6498 15.6387 13.7877C15.4919 13.7491 15.346 13.7069 15.2013 13.6613L15.0698 13.6187C14.9672 13.5855 14.8653 13.5504 14.764 13.5134L14.626 13.462C14.5155 13.4196 14.4058 13.3753 14.2968 13.3292L14.2081 13.2917C14.0723 13.2326 13.938 13.1702 13.8053 13.1044C13.7373 13.0712 13.6703 13.0362 13.6032 13.0017L13.4866 12.9417C13.4005 12.895 13.3153 12.8469 13.231 12.7973L13.1699 12.7626C13.0654 12.7017 12.9622 12.6387 12.8603 12.5736L12.767 12.5113C12.6997 12.4679 12.6329 12.4237 12.5665 12.3788C12.425 12.2804 12.2858 12.1786 12.1491 12.0735L12.0552 11.9995C10.6017 10.852 9.44932 9.28335 8.90164 7.50491C8.32751 5.66066 8.45126 3.59029 9.44595 1.90991M13.6231 1.7646C12.7414 3.0621 12.6548 4.67347 13.2666 6.10635C13.9118 7.62754 15.2337 8.8206 16.7766 9.38666C16.8402 9.4101 16.904 9.4311 16.9683 9.45304L17.0528 9.47985C17.1438 9.50835 17.2339 9.54154 17.3279 9.55935C21.5916 10.3832 22.7481 7.37141 23.0558 6.92797C22.0429 8.38654 20.3405 8.7366 18.2515 8.2296C18.0865 8.18966 17.9052 8.13004 17.7462 8.0736C17.5419 8.00103 17.3416 7.91785 17.146 7.82441C16.7749 7.64573 16.4224 7.43068 16.0938 7.18241C14.2246 5.76397 13.0634 3.05854 14.2831 0.855225" fill="#0868AC"/>
</g>
<defs>
<clipPath id="clip0_771_1021">
<rect width="24" height="24" fill="white" transform="translate(0 0.105835)"/>
</clipPath>
</defs>
</svg>
