<svg width="25" height="25" viewBox="0 0 25 25" fill="none" xmlns="http://www.w3.org/2000/svg">
<g clip-path="url(#clip0_774_1339)">
<path d="M12.5013 0.186412C9.55 0.130162 6.7345 0.909224 4.32569 3.13635C-0.715249 7.79872 -0.865437 15.7813 4.00356 20.6158C4.87994 21.486 5.923 22.2912 7.06825 22.7815C7.36731 21.7755 7.30919 20.5613 7.2145 19.3677C7.19163 19.344 7.16819 19.3208 7.15075 19.2945C6.83088 18.8177 7.06825 17.5725 7.06825 17.0061C9.08106 17.3629 10.7204 18.4701 12.8751 17.827C14.9838 17.1977 15.8626 14.1567 14.0035 12.7172C12.8809 11.8472 11.2154 11.9659 9.89125 12.1255C9.09625 12.2215 8.10325 12.5151 7.55425 11.6693C7.23025 11.1715 7.56475 9.94972 7.61913 9.38647C7.63263 9.24454 7.64744 9.09997 7.6615 8.95747C7.8025 7.20847 8.0365 5.44072 8.0365 3.6906H16.5852V0.723599C15.2127 0.410099 13.8428 0.212662 12.5013 0.186412Z" fill="#DC514A"/>
<path d="M16.5159 0.718205V5.94083H10.2956L9.97234 9.95764C11.3527 9.84946 12.6324 9.60589 14.0118 9.93008C14.9574 10.1528 15.845 10.5995 16.5018 11.324C18.3345 13.3437 17.9737 17.135 15.8696 18.8384C15.2775 19.3178 14.601 19.6328 13.8866 19.8353C13.227 20.0463 12.5643 20.1353 11.8993 20.1417C11.6611 20.1546 11.4227 20.1613 11.1841 20.1618C10.1484 20.1618 9.11246 20.0271 8.11421 19.7478C7.86034 19.6765 7.46771 19.5777 7.22096 19.3928C7.16846 19.3816 7.11615 19.3696 7.06384 19.3581L6.9834 22.7328C13.3944 26.1321 21.5615 22.495 23.8608 15.8234C25.8048 10.1853 22.7943 2.19777 16.5161 0.718018L16.5159 0.718205Z" fill="#23A161"/>
</g>
<defs>
<clipPath id="clip0_774_1339">
<rect width="24" height="24" fill="white" transform="translate(0.446289 0.105835)"/>
</clipPath>
</defs>
</svg>
