<svg width="25" height="25" viewBox="0 0 25 25" fill="none" xmlns="http://www.w3.org/2000/svg">
    <g clip-path="url(#clip0_774_1333)">
        <path
            d="M14.3038 6.55604L14.2798 0.105835H10.6831L10.7071 6.55604L12.5054 9.0259L14.3038 6.55604ZM10.7071 17.6101V24.0844H14.3038V17.6101L12.5054 15.1404L10.7071 17.6101Z"
            fill="white" />
        <path
            d="M14.3039 17.6102L18.0926 22.8375L20.9939 20.7274L17.2053 15.5001L14.3039 14.5649V17.6102ZM10.7072 6.55607L6.89455 1.32874L3.99316 3.43887L7.7818 8.6662L10.7072 9.60136V6.55607Z"
            fill="#00F2E6" />
        <path
            d="M7.7816 8.66613L1.64301 6.6759L0.540039 10.0808L6.67853 12.095L9.57991 11.1359L7.7816 8.66613ZM15.4068 13.0302L17.2051 15.5001L23.3437 17.4902L24.4467 14.0853L18.3082 12.095L15.4068 13.0302Z"
            fill="#00B9F1" />
        <path
            d="M18.3082 12.095L24.4467 10.0808L23.3437 6.6759L17.2051 8.66613L15.4068 11.1359L18.3082 12.095ZM6.67853 12.095L0.540039 14.0853L1.64301 17.4902L7.7816 15.5001L9.57991 13.0302L6.67853 12.095Z"
            fill="#D63AFF" />
        <path
            d="M7.7818 15.5001L3.99316 20.7274L6.89455 22.8375L10.7072 17.6102V14.5649L7.7818 15.5001ZM17.2053 8.6662L20.9939 3.43887L18.0926 1.32874L14.3039 6.55607V9.60136L17.2053 8.6662Z"
            fill="#FB015B" />
    </g>
    <defs>
        <clipPath id="clip0_774_1333">
            <rect width="23.9066" height="24" fill="white" transform="translate(0.540039 0.105835)" />
        </clipPath>
    </defs>
</svg>