<svg width="26" height="26" viewBox="0 0 26 26" fill="none" xmlns="http://www.w3.org/2000/svg">
<path d="M11 1H3C2.46957 1 1.96086 1.21071 1.58579 1.58579C1.21071 1.96086 1 2.46957 1 3V17.6667C1 18.1971 1.21071 18.7058 1.58579 19.0809C1.96086 19.456 2.46957 19.6667 3 19.6667H23C23.5304 19.6667 24.0391 19.456 24.4142 19.0809C24.7893 18.7058 25 18.1971 25 17.6667V11M13 19.6667V25" stroke="#199FF4" stroke-width="2" stroke-linecap="round" stroke-linejoin="round"/>
<path d="M18.3335 1L15.6668 3.66667L18.3335 6.33333M22.3335 1L25.0002 3.66667L22.3335 6.33333M6.3335 25H19.6668" stroke="#199FF4" stroke-width="2" stroke-linecap="round" stroke-linejoin="round"/>
</svg>
