<svg width="24" height="24" viewBox="0 0 24 24" fill="none" xmlns="http://www.w3.org/2000/svg">
<g clip-path="url(#clip0_770_990)">
<path d="M23.2596 5.42001C23.2683 5.45192 23.2727 5.48483 23.2727 5.51792V10.6605C23.2727 10.7948 23.2009 10.9189 23.0843 10.9857L18.7682 13.4709V18.3964C18.7682 18.4623 18.7509 18.527 18.718 18.5841C18.6851 18.6412 18.6378 18.6887 18.5807 18.7217L9.57091 23.9084C9.55027 23.92 9.52782 23.9275 9.50527 23.9356C9.49682 23.9383 9.48891 23.9435 9.48 23.9458C9.41701 23.9624 9.35081 23.9624 9.28782 23.9458C9.27745 23.9431 9.26809 23.9374 9.25827 23.9336C9.23764 23.9261 9.21609 23.9196 9.19646 23.9084L0.188455 18.7216C0.131213 18.6888 0.0836492 18.6414 0.0505619 18.5843C0.0174746 18.5272 3.41239e-05 18.4624 0 18.3964L0 2.96874C0 2.93492 0.00472727 2.9021 0.0130909 2.87028C0.0159091 2.85946 0.0224545 2.84965 0.0262727 2.83883C0.0332727 2.81919 0.0399091 2.79901 0.0501818 2.78074C0.0571818 2.76855 0.0674545 2.75874 0.0759091 2.74746C0.0867273 2.73246 0.0965455 2.71701 0.109182 2.70383C0.12 2.6931 0.134091 2.6851 0.146273 2.67574C0.159909 2.66446 0.172 2.65228 0.187455 2.64337H0.187909L4.69209 0.0501003C4.74913 0.0172759 4.81378 0 4.87959 0C4.9454 0 5.01005 0.0172759 5.06709 0.0501003L9.57127 2.64337H9.57218C9.58718 2.65283 9.59991 2.66446 9.61345 2.67528C9.62564 2.68465 9.63927 2.6931 9.65 2.70346C9.66318 2.71701 9.67255 2.73255 9.68373 2.74746C9.69173 2.75874 9.70255 2.76855 9.70909 2.78074C9.71982 2.79946 9.72591 2.81919 9.73345 2.83892C9.73718 2.84965 9.74373 2.85946 9.74655 2.87074C9.75518 2.90265 9.75964 2.93565 9.75973 2.96874V12.6046L13.513 10.4434V5.51746C13.513 5.48474 13.5177 5.45137 13.5262 5.42001C13.5295 5.40874 13.5355 5.39892 13.5393 5.38819C13.5468 5.36846 13.5534 5.34819 13.5636 5.33001C13.5706 5.31783 13.5809 5.30801 13.589 5.29674C13.6002 5.28174 13.6095 5.26628 13.6226 5.2531C13.6335 5.24237 13.6471 5.23437 13.6593 5.22501C13.6734 5.21374 13.6855 5.20155 13.7005 5.19265H13.701L18.2056 2.59937C18.2627 2.5665 18.3273 2.5492 18.3931 2.5492C18.459 2.5492 18.5236 2.5665 18.5806 2.59937L23.0848 5.19265C23.1007 5.20201 23.1129 5.21374 23.127 5.22446C23.1386 5.23392 23.1523 5.24237 23.1631 5.25265C23.1762 5.26628 23.1855 5.28174 23.1967 5.29674C23.2053 5.30801 23.2155 5.31783 23.2222 5.33001C23.2329 5.34819 23.239 5.36846 23.2465 5.38819C23.2507 5.39892 23.2568 5.40874 23.2596 5.42001ZM22.5219 10.4435V6.1671L20.9456 7.07446L18.7681 8.32828V12.6046L22.5224 10.4435H22.5219ZM18.0177 18.1794V13.9L15.8757 15.1234L9.75927 18.6143V22.9337L18.0177 18.1794ZM0.750818 3.61783V18.1794L9.00836 22.9334V18.6147L4.69455 16.1733L4.69318 16.1724L4.69136 16.1715C4.67682 16.163 4.66455 16.1508 4.651 16.1406C4.63918 16.1311 4.62564 16.1236 4.61536 16.1133L4.61445 16.1119C4.60227 16.1002 4.59382 16.0856 4.58355 16.0726C4.57409 16.0598 4.56291 16.0491 4.55536 16.036L4.55491 16.0346C4.54645 16.0206 4.54127 16.0036 4.53518 15.9877C4.52909 15.9736 4.52118 15.9605 4.51736 15.9456V15.9451C4.51273 15.9273 4.51182 15.9085 4.50991 15.8902C4.50809 15.8762 4.50427 15.8621 4.50427 15.848V5.7791L2.32709 4.52474L0.750818 3.61837V3.61783ZM4.88009 0.808464L1.12718 2.96874L4.87918 5.12892L8.63155 2.96819L4.87918 0.808464H4.88009ZM6.83173 14.2901L9.00882 13.0368V3.61783L7.43273 4.52528L5.255 5.77901V15.1979L6.83173 14.2901ZM18.3931 3.35774L14.6407 5.51792L18.3931 7.67819L22.145 5.51746L18.3931 3.35774ZM18.0176 8.32828L15.8401 7.07446L14.2639 6.1671V10.4435L16.441 11.6968L18.0177 12.6046L18.0176 8.32828ZM9.38336 17.9652L14.8873 14.823L17.6385 13.2528L13.8889 11.094L9.57173 13.5795L5.637 15.8447L9.38336 17.9652Z" fill="#FF2D20"/>
</g>
<defs>
<clipPath id="clip0_770_990">
<rect width="23.2727" height="24" fill="white"/>
</clipPath>
</defs>
</svg>
