<svg width="21" height="24" viewBox="0 0 21 24" fill="none" xmlns="http://www.w3.org/2000/svg">
<path d="M7.41346 6.7984L7.47956 8.3187L6.42196 10.3017L4.76946 13.5406L4.43896 16.2507L5.62876 20.0845L8.33886 21.6048H12.4371L16.2709 18.6964L17.9895 14.1355L14.0235 9.3102L12.8998 6.6001L7.41346 6.7984Z" fill="#ECEFF1"/>
<path d="M16.7996 10.5661C15.742 9.04579 14.8827 8.12039 14.42 6.20349C13.9573 4.28659 14.5522 4.81539 14.1556 3.16289C13.9573 2.30359 13.6268 1.70869 13.2963 1.24599C12.8997 0.783292 12.437 0.518892 12.1726 0.452793C11.5777 0.122293 10.1896 -0.406507 8.47104 0.518892C6.68634 1.44429 6.88464 3.42729 7.21514 7.45939C7.21514 7.72379 7.14904 8.05429 7.01684 8.31869C6.75244 8.91359 6.28974 9.44239 5.89314 9.90509C5.43044 10.5661 4.96774 11.2271 4.63724 11.9542C3.84404 13.4745 3.11694 15.3914 3.31524 16.1185C3.64574 16.0524 7.81004 22.398 7.81004 22.5302C8.07444 22.4641 9.19814 22.4641 10.1896 22.4641C11.5777 22.398 12.3709 22.3319 13.4946 22.5963C13.4946 22.398 13.4285 22.1997 13.4285 22.0014C13.4285 21.6048 13.4946 21.2743 13.5607 20.8116C13.6268 20.4811 13.6929 20.1506 13.759 19.754C13.098 20.3489 11.9082 21.0099 10.7845 21.2082C9.79304 21.4065 8.14054 21.076 7.34734 20.0845C7.41344 20.0845 7.54564 20.0845 7.61174 20.0184C7.81004 19.9523 8.00834 19.8862 8.07444 19.754C8.27274 19.4235 8.14054 19.093 8.00834 18.8947C7.87614 18.6964 6.88464 17.9693 6.42194 17.5727C5.95924 17.1761 5.69484 16.9778 5.43044 16.7134L4.90164 16.1846C4.76944 16.0524 4.70334 15.9202 4.63724 15.8541C4.50504 15.5236 4.43894 15.127 4.50504 14.5982C4.57114 13.8711 4.83554 13.2762 5.16604 12.6152C5.29824 12.3508 5.62874 11.822 5.62874 11.822C5.62874 11.822 4.50504 14.5982 5.09994 15.4575C5.09994 15.4575 5.16604 14.5982 5.43044 13.7389C5.62874 13.144 5.95924 12.2847 6.35584 11.822C6.75244 11.3593 7.74394 9.64069 7.81004 8.58309C7.81004 8.12039 7.87614 7.65769 7.87614 7.32719C7.61174 7.06279 12.2387 6.40179 12.5031 7.12889C12.5692 7.39329 13.4946 9.77289 14.0234 11.0288C14.2878 11.6237 14.6183 12.1525 14.8166 12.8135C15.0149 13.5406 15.1471 14.5321 15.1471 15.5236C15.1471 15.7219 15.1471 16.0524 15.081 16.3829C15.2132 16.3829 17.7911 13.6067 14.7505 11.2932C14.7505 11.2932 16.6013 12.1525 16.6674 13.8711C16.7335 15.2592 16.1386 16.3829 16.0064 16.5812C16.0725 16.5812 17.3945 17.1761 17.4606 17.1761C17.725 17.1761 18.2538 16.9778 18.2538 16.9778C18.3199 16.7795 18.5182 16.2507 18.5182 16.0524C18.9809 14.5321 17.8572 12.0864 16.7996 10.5661Z" fill="#263238"/>
<path d="M8.4052 6.20345C8.87978 6.20345 9.2645 5.61157 9.2645 4.88145C9.2645 4.15133 8.87978 3.55945 8.4052 3.55945C7.93062 3.55945 7.5459 4.15133 7.5459 4.88145C7.5459 5.61157 7.93062 6.20345 8.4052 6.20345Z" fill="#ECEFF1"/>
<path d="M11.3796 6.33564C12.0002 6.33564 12.5033 5.65498 12.5033 4.81534C12.5033 3.97571 12.0002 3.29504 11.3796 3.29504C10.759 3.29504 10.2559 3.97571 10.2559 4.81534C10.2559 5.65498 10.759 6.33564 11.3796 6.33564Z" fill="#ECEFF1"/>
<path d="M8.88552 4.97177C8.83058 4.53716 8.58053 4.21081 8.327 4.24286C8.07348 4.2749 7.91249 4.6532 7.96743 5.08782C8.02236 5.52243 8.27242 5.84878 8.52594 5.81673C8.77947 5.78469 8.94046 5.40638 8.88552 4.97177Z" fill="#212121"/>
<path d="M11.3133 5.93906C11.6784 5.93906 11.9743 5.55434 11.9743 5.07976C11.9743 4.60518 11.6784 4.22046 11.3133 4.22046C10.9483 4.22046 10.6523 4.60518 10.6523 5.07976C10.6523 5.55434 10.9483 5.93906 11.3133 5.93906Z" fill="#212121"/>
<path d="M20.1046 19.6217C19.8402 19.4895 19.3775 19.2912 18.9809 18.6963C18.7826 18.3658 18.8487 17.4404 18.5182 17.0438C18.3199 16.7794 18.0555 16.9116 17.9894 16.9116C17.3945 17.0438 16.0064 17.9692 15.081 16.9116C14.9488 16.7794 14.7505 16.5811 14.42 16.5811C14.0895 16.5811 13.9573 16.7133 13.8251 16.9777C13.6929 17.2421 13.6929 17.4404 13.6929 18.1014C13.6929 18.6302 13.6929 19.2251 13.6268 19.6878C13.4946 20.8115 13.2963 21.4725 13.2963 22.1335C13.2963 22.8606 13.4946 23.3233 13.759 23.5216C13.9573 23.7199 14.2878 23.8521 15.0149 23.8521C15.742 23.8521 16.2047 23.5877 16.6674 23.125C16.9979 22.7945 17.2623 22.6623 18.1877 22.0013C18.9148 21.5386 20.0385 20.9437 20.2368 20.7454C20.369 20.6132 20.5673 20.5471 20.5673 20.1505C20.5673 19.82 20.3029 19.6878 20.1046 19.6217ZM6.81852 19.82C6.15752 18.7624 6.09142 18.5641 5.62872 17.9031C5.23212 17.2421 4.37282 15.9862 3.84402 15.9862C3.44742 15.9862 3.24912 16.1845 2.98472 16.4489C2.72032 16.7133 2.45592 17.3082 1.99322 17.6387C1.59662 17.9692 0.472925 17.9031 0.208525 18.2997C-0.0558744 18.6963 0.472926 19.2912 0.472926 20.2827C0.472926 20.6793 0.142426 20.9437 0.0763256 21.2081C0.0102257 21.5386 -0.0558742 21.7369 0.0763256 22.0013C0.340725 22.3979 0.671225 22.5301 2.91862 22.9928C4.10842 23.2572 5.23212 23.9182 5.95922 23.9843C6.68632 24.0504 7.94222 23.9843 7.94222 22.1996C8.00832 21.142 7.41342 20.8776 6.81852 19.82ZM8.07442 7.85591C7.67782 7.59151 7.34732 7.32711 7.34732 6.93051C7.34732 6.53392 7.61172 6.40172 8.00832 6.07122C8.07442 6.00512 8.80152 5.34412 9.52862 5.34412C10.2557 5.34412 11.115 5.80682 11.4455 5.93902C12.0404 6.07122 12.6353 6.20342 12.5692 6.66612C12.5031 7.32711 12.437 7.45932 11.776 7.78981C11.3133 7.92201 10.454 8.64911 9.85912 8.64911C9.59472 8.64911 9.19812 8.64911 8.93372 8.58301C8.73542 8.51691 8.40492 8.18641 8.07442 7.85591Z" fill="#FFC107"/>
<path d="M7.94196 7.32718C8.07416 7.45938 8.27246 7.59158 8.47076 7.65768C8.60296 7.72378 8.80126 7.78988 8.80126 7.78988H9.39616C9.72666 7.78988 10.1894 7.65768 10.6521 7.39328C11.1148 7.19498 11.1809 7.06278 11.5114 6.93058C11.8419 6.73228 12.1724 6.53398 12.0402 6.46788C11.908 6.40178 11.7758 6.46788 11.3131 6.73228C10.9165 6.99668 10.586 7.12888 10.1894 7.32718C9.99106 7.39328 9.72666 7.52548 9.52836 7.52548H8.93346C8.73516 7.52548 8.60296 7.45938 8.40466 7.39328C8.27246 7.32718 8.20636 7.26108 8.14026 7.26108C8.00806 7.19498 7.74366 6.93058 7.61146 6.86448C7.61146 6.86448 7.47926 6.86448 7.54536 6.93058L7.94196 7.32718ZM9.92496 5.87298C9.99106 6.00518 10.1233 6.00518 10.1894 6.07128C10.2555 6.13738 10.3216 6.13738 10.3216 6.13738C10.3877 6.07128 10.3216 5.93908 10.2555 5.93908C10.2555 5.80688 9.92496 5.80689 9.92496 5.87298ZM8.86736 6.00518C8.86736 6.07128 8.99956 6.13738 8.99956 6.07128C9.06566 6.00518 9.13176 5.93908 9.19786 5.93908C9.33006 5.87298 9.26396 5.80688 9.06566 5.80688C8.93346 5.87298 8.93346 5.93908 8.86736 6.00518Z" fill="#634703"/>
<path d="M15.279 17.705V17.9033C15.4112 18.1677 15.7417 18.2338 16.0061 18.2338C16.4027 18.2338 16.7993 17.9694 16.9976 17.705C16.9976 17.6389 17.0637 17.5728 17.1298 17.5067C17.262 17.3084 17.3281 17.1762 17.3942 17.1101C17.3942 17.1101 17.3281 17.044 17.3281 16.9779C17.262 16.8457 17.0637 16.7135 16.7993 16.6474C16.601 16.5813 16.2705 16.5152 16.1383 16.5152C15.5434 16.4491 15.2129 16.6474 15.0146 16.8457C15.0146 16.8457 15.0807 16.8457 15.0807 16.9118C15.2129 17.044 15.279 17.1762 15.279 17.3745C15.3451 17.5067 15.279 17.5728 15.279 17.705Z" fill="#455A64"/>
</svg>
