<svg width="24" height="25" viewBox="0 0 24 25" fill="none" xmlns="http://www.w3.org/2000/svg">
    <path
        d="M7.44828 16.6582L4.13793 14.8375V11.1133L7.44828 9.29265L10.7586 11.1133V14.8375L7.44828 16.6582ZM5.7931 13.8444L7.44828 14.7547L9.10345 13.8444V12.0237L7.44828 11.1133L5.7931 12.0237V13.8444ZM3.31034 24.1064L0 22.2858V18.5616L3.31034 16.6582L6.62069 18.4789V22.203L3.31034 24.1064ZM1.65517 21.2927L3.31034 22.203L4.96552 21.2927V19.472L3.31034 18.5616L1.65517 19.472V21.2927ZM11.5862 24.1064L8.27586 22.2858V18.5616L11.5862 16.7409L14.8966 18.5616V22.2858L11.5862 24.1064ZM9.93103 21.2927L11.5862 22.203L13.2414 21.2927V19.472L11.5862 18.5616L9.93103 19.472V21.2927ZM19.8621 24.1064L16.5517 22.2858V18.5616L19.8621 16.7409L23.1724 18.5616V22.2858L19.8621 24.1064ZM18.2069 21.2927L19.8621 22.203L21.5172 21.2927V19.472L19.8621 18.5616L18.2069 19.472V21.2927ZM18.7034 8.87886L16.5517 11.0306V7.05817L19.0345 5.65127V1.92714L15.7241 0.106445L12.4138 1.92714V5.65127L14.8966 7.05817V10.9478L12.7448 8.7961L11.5862 10.0375L15.7241 14.1754L19.8621 10.0375L18.7034 8.87886ZM14.069 2.92024L15.7241 2.00989L17.3793 2.92024V4.74093L15.7241 5.65127L14.069 4.74093V2.92024Z"
        fill="#5FB832" />
</svg>