<svg width="24" height="25" viewBox="0 0 24 25" fill="none" xmlns="http://www.w3.org/2000/svg">
<g clip-path="url(#clip0_771_1043)">
<path d="M24.0002 22.2678V1.94402C24.0002 1.11021 23.4449 0.406519 22.6842 0.181519L21.8203 0.698456L12.233 10.9207L11.9324 11.8601L11.7568 12.762L14.7465 23.9351L15.209 24.1058H22.1621C23.1773 24.1058 24.0002 23.2829 24.0002 22.2678Z" fill="#EA6618"/>
<path d="M0 1.9439V22.2677C0 22.8963 0.315656 23.4508 0.796875 23.7822L1.38628 23.5L11.5343 12.635L11.9322 11.8601L11.9471 11.1111L9.18525 0.603273L8.76684 0.105835H1.83806C0.822938 0.105835 0 0.928773 0 1.9439Z" fill="#D65813"/>
<path d="M11.9323 11.8602L22.6841 0.181369C22.5146 0.131154 22.3387 0.105673 22.1619 0.105713H8.76709L11.9323 11.8602Z" fill="#E05E11"/>
<path d="M1.83816 24.1058H15.209L11.9323 11.8601L0.796875 23.7823C1.10301 23.9935 1.46624 24.1063 1.83816 24.1058Z" fill="#DE5C16"/>
<path d="M8.89869 9.20239H10.2323C10.7637 11.2073 11.3684 12.9666 12.0432 14.5541C12.8074 12.7682 13.3676 11.0075 13.8418 9.2023H15.1019C14.5376 11.4454 13.6143 13.706 12.5583 16.0395H11.4436C10.4293 13.8283 9.56582 11.5549 8.89869 9.20239ZM4.49994 5.72839H7.46525V18.4444H4.48682V17.4641H6.31232V6.68258H4.49994V5.72839ZM19.5158 6.68249H17.7034V17.4641H19.5287V18.4444H16.5504V5.72849H19.5157L19.5158 6.68249Z" fill="white"/>
</g>
<defs>
<clipPath id="clip0_771_1043">
<rect width="24" height="24" fill="white" transform="translate(0 0.105835)"/>
</clipPath>
</defs>
</svg>
