<svg width="29" height="24" viewBox="0 0 29 24" fill="none" xmlns="http://www.w3.org/2000/svg">
<path d="M7.22712 13.8984L10.3324 9.86475" stroke="black"/>
<path d="M10.0068 18.3458L20.0136 18.3458" stroke="black"/>
<path d="M23.3491 16.1221L18.9077 9.86537" stroke="black"/>
<path d="M22.1172 24L21.9019 22.2781C21.7853 22.2332 21.6756 22.1794 21.5726 22.1166C21.4697 22.0539 21.3687 21.9866 21.2697 21.9148L19.6688 22.5875L18.189 20.0315L19.5746 18.9821C19.5656 18.9194 19.5611 18.8589 19.5611 18.8008V18.4376C19.5611 18.3791 19.5656 18.3185 19.5746 18.2557L18.189 17.2064L19.6688 14.6503L21.2697 15.323C21.3683 15.2512 21.4714 15.184 21.5791 15.1212C21.6867 15.0584 21.7943 15.0046 21.9019 14.9598L22.1172 13.2378H25.0768L25.292 14.9598C25.4086 15.0046 25.5186 15.0584 25.6219 15.1212C25.7252 15.184 25.826 15.2512 25.9243 15.323L27.5252 14.6503L29.005 17.2064L27.6194 18.2557C27.6283 18.3185 27.6328 18.3791 27.6328 18.4376V18.8003C27.6328 18.8587 27.6239 18.9194 27.6059 18.9821L28.9916 20.0315L27.5118 22.5875L25.9243 21.9148C25.8257 21.9866 25.7225 22.0539 25.6149 22.1166C25.5073 22.1794 25.3997 22.2332 25.292 22.2781L25.0768 24H22.1172ZM23.6239 20.5023C24.1441 20.5023 24.588 20.3184 24.9557 19.9507C25.3234 19.583 25.5073 19.1391 25.5073 18.6189C25.5073 18.0987 25.3234 17.6548 24.9557 17.2871C24.588 16.9194 24.1441 16.7355 23.6239 16.7355C23.0948 16.7355 22.6485 16.9194 22.2851 17.2871C21.9217 17.6548 21.7401 18.0987 21.7405 18.6189C21.7405 19.1391 21.9222 19.583 22.2856 19.9507C22.649 20.3184 23.0951 20.5023 23.6239 20.5023Z" fill="#4BACC6"/>
<path d="M5.38112 24C3.8764 24 2.60346 23.7684 1.56232 23.3053C0.521171 22.8421 0.000398601 22.2765 0 21.6084V15.6294C0 14.9717 0.525755 14.4087 1.57727 13.9403C2.62878 13.472 3.89673 13.2378 5.38112 13.2378C6.86591 13.2378 8.13406 13.472 9.18557 13.9403C10.2371 14.4087 10.7626 14.9717 10.7622 15.6294V21.6084C10.7622 22.2761 10.2415 22.8417 9.19992 23.3053C8.15837 23.7688 6.88544 24.0004 5.38112 24ZM5.38112 16.8402C6.26801 16.8402 7.15988 16.713 8.05673 16.4587C8.95358 16.2044 9.45682 15.9329 9.56643 15.6443C9.45682 15.3554 8.95617 15.0813 8.0645 14.8222C7.17283 14.5631 6.27837 14.4336 5.38112 14.4336C4.4743 14.4336 3.58502 14.5608 2.71328 14.8151C1.84154 15.0694 1.33571 15.3458 1.1958 15.6443C1.33531 15.9433 1.84114 16.2173 2.71328 16.4665C3.58542 16.7156 4.4747 16.8402 5.38112 16.8402ZM5.38112 19.8147C5.79965 19.8147 6.20323 19.7948 6.59187 19.7549C6.9805 19.7151 7.3518 19.6577 7.70576 19.5827C8.05932 19.5082 8.39315 19.4161 8.70725 19.3065C9.02134 19.1969 9.30774 19.0723 9.56643 18.9328V17.1391C9.30734 17.2786 9.02095 17.4032 8.70725 17.5128C8.39355 17.6224 8.05972 17.7147 7.70576 17.7896C7.3518 17.8642 6.9805 17.9214 6.59187 17.9612C6.20323 18.0011 5.79965 18.021 5.38112 18.021C4.96259 18.021 4.55402 18.0011 4.15542 17.9612C3.75682 17.9214 3.38054 17.864 3.02658 17.789C2.67302 17.7145 2.34178 17.6224 2.03287 17.5128C1.72395 17.4032 1.44493 17.2786 1.1958 17.1391V18.9328C1.44493 19.0723 1.72395 19.1969 2.03287 19.3065C2.34178 19.4161 2.67322 19.5084 3.02718 19.5833C3.38074 19.6579 3.75682 19.7151 4.15542 19.7549C4.55402 19.7948 4.96259 19.8147 5.38112 19.8147ZM5.38112 22.8042C5.83951 22.8042 6.30547 22.7693 6.77901 22.6996C7.25255 22.6298 7.68842 22.5378 8.08662 22.4234C8.48522 22.3086 8.81905 22.179 9.08811 22.0347C9.35717 21.8904 9.51661 21.7433 9.56643 21.5935V20.1286C9.30734 20.2681 9.02095 20.3927 8.70725 20.5023C8.39355 20.6119 8.05972 20.7042 7.70576 20.7791C7.3518 20.8537 6.9805 20.9109 6.59187 20.9507C6.20323 20.9906 5.79965 21.0105 5.38112 21.0105C4.96259 21.0105 4.55402 20.9906 4.15542 20.9507C3.75682 20.9109 3.38054 20.8535 3.02658 20.7785C2.67302 20.704 2.34178 20.6119 2.03287 20.5023C1.72395 20.3927 1.44493 20.2681 1.1958 20.1286V21.6084C1.24563 21.7579 1.40268 21.9024 1.66695 22.0419C1.93122 22.1814 2.26246 22.3086 2.66066 22.4234C3.05926 22.5378 3.49773 22.6298 3.97605 22.6996C4.45437 22.7693 4.92273 22.8042 5.38112 22.8042Z" fill="#60E146"/>
<path d="M17.8197 3.37882C17.8197 3.64434 17.7142 3.89899 17.5264 4.08673C17.3387 4.27448 17.084 4.37996 16.8185 4.37996C16.553 4.37996 16.2984 4.27448 16.1106 4.08673C15.9229 3.89899 15.8174 3.64434 15.8174 3.37882C15.8174 3.11331 15.9229 2.85866 16.1106 2.67091C16.2984 2.48316 16.553 2.37769 16.8185 2.37769C17.084 2.37769 17.3387 2.48316 17.5264 2.67091C17.7142 2.85866 17.8197 3.11331 17.8197 3.37882Z" fill="#F79646"/>
<path fillRule="evenodd" clipRule="evenodd" d="M14.7876 0H14.8447C16.0005 0 16.9061 2.98362e-08 17.6129 0.0951081C18.3357 0.192219 18.9063 0.39545 19.3543 0.842958C19.8023 1.29097 20.0051 1.86162 20.1022 2.58494C20.1973 3.29124 20.1973 4.19677 20.1973 5.35258V5.39663C20.1973 6.35222 20.1973 7.13411 20.1452 7.77083C20.0932 8.41156 19.9866 8.94567 19.7473 9.39018C19.6422 9.5859 19.512 9.7616 19.3543 9.91928C18.9063 10.3673 18.3357 10.57 17.6124 10.6671C16.9061 10.7622 16.0005 10.7622 14.8447 10.7622H14.7876C13.6318 10.7622 12.7263 10.7622 12.0195 10.6671C11.2967 10.57 10.726 10.3668 10.278 9.91928C9.88107 9.52232 9.67583 9.02826 9.56721 8.41457C9.45959 7.81238 9.44006 7.06303 9.43606 6.13297C9.43506 5.8962 9.43506 5.64592 9.43506 5.38162V5.35258C9.43506 4.19677 9.43506 3.29124 9.53017 2.58444C9.62728 1.86162 9.83051 1.29097 10.278 0.842958C10.726 0.394949 11.2967 0.192219 12.02 0.0951081C12.7263 2.98362e-08 13.6318 0 14.7876 0ZM12.1196 0.838954C11.4799 0.925052 11.0939 1.08924 10.8091 1.37406C10.5238 1.65939 10.3601 2.04482 10.274 2.68505C10.1869 3.33579 10.1859 4.19076 10.1859 5.38112V5.8036L10.687 5.3651C10.9068 5.17271 11.1915 5.07104 11.4834 5.08071C11.7753 5.09038 12.0527 5.21065 12.2593 5.41716L14.4067 7.5646C14.5734 7.73121 14.7934 7.8337 15.0282 7.85402C15.263 7.87435 15.4974 7.81121 15.6902 7.67573L15.8393 7.57061C16.1175 7.37515 16.4537 7.27986 16.7931 7.30032C17.1324 7.32078 17.4548 7.45578 17.7075 7.68323L19.1241 8.95818C19.2672 8.65884 19.3518 8.2654 19.3969 7.71026C19.4459 7.10708 19.4464 6.35522 19.4464 5.38112C19.4464 4.19076 19.4454 3.33579 19.3583 2.68505C19.2722 2.04482 19.1081 1.65889 18.8232 1.37356C18.5379 1.08874 18.1525 0.925052 17.5122 0.838954C16.8615 0.751855 16.0065 0.750854 14.8162 0.750854C13.6258 0.750854 12.7704 0.751855 12.1196 0.838954Z" fill="#F79646"/>
</svg>
