<svg width="36" height="24" viewBox="0 0 36 24" fill="none" xmlns="http://www.w3.org/2000/svg">
<g clip-path="url(#clip0_764_517)">
<path d="M10.7093 15.8371L11.8034 19.3089C12.0492 20.0972 12.1517 20.6475 12.1106 20.9612C12.709 19.3938 13.1271 17.6857 13.3649 15.8371H14.6805C14.1148 18.8468 13.3687 21.0339 12.4426 22.3982C11.7211 23.4496 10.9306 23.9753 10.0699 23.9753C9.84038 23.9753 9.55744 23.9075 9.2217 23.7728V23.0473C9.38573 23.0708 9.57818 23.0834 9.79952 23.0834C10.2011 23.0834 10.5247 22.9746 10.771 22.7573C11.0658 22.4926 11.2134 22.1951 11.2134 21.8654C11.2134 21.6402 11.0983 21.1782 10.8691 20.4792L9.34474 15.8371H10.7093ZM2.33599 13.7031L4.3399 19.6829H4.35227L6.36848 13.7031H8.01577C8.37647 16.6687 8.58952 19.382 8.65491 21.8415H7.26609C7.21723 19.5424 7.08187 17.3805 6.86053 15.3553H6.84844L4.73358 21.8415H3.67594L1.57388 15.3553H1.5615C1.40555 17.3002 1.30739 19.4622 1.26647 21.8415H0C0.0818438 18.9478 0.286664 16.2352 0.614461 13.7031H2.33599Z" fill="#00758F"/>
<path d="M24.7842 13.5821C26.9398 13.5821 28.0176 14.929 28.0176 17.6215C28.0176 19.0846 27.6935 20.1897 27.0458 20.9363C26.9291 21.0728 26.8001 21.1907 26.6642 21.2999L28.1896 22.0375L28.1882 22.0375L27.6466 22.9522L25.66 21.8186C25.3307 21.914 24.9684 21.9616 24.5736 21.9616C23.5152 21.9616 22.7246 21.6599 22.2019 21.0573C21.6282 20.3907 21.3414 19.3412 21.3414 17.9107C21.3414 16.4558 21.665 15.3549 22.3129 14.6073C22.9029 13.9235 23.7268 13.5821 24.7842 13.5821ZM18.1833 13.5939C18.9537 13.5939 19.6542 13.7955 20.2852 14.1973L19.9647 14.8958C19.4248 14.6713 18.8924 14.5586 18.3675 14.5586C17.9415 14.5586 17.6133 14.6589 17.3845 14.8606C17.1545 15.0606 17.0121 15.3179 17.0121 15.6317C17.0121 16.1137 17.3633 16.5318 18.0116 16.885C18.224 16.9985 18.4357 17.1134 18.6466 17.2296L18.695 17.2562L18.7193 17.2695L18.7677 17.2961L18.7919 17.3095L18.8403 17.3361C19.331 17.6067 19.7929 17.865 19.7929 17.865C20.4411 18.3151 20.7643 18.795 20.7643 19.5853C20.7643 20.2756 20.5057 20.8421 19.9902 21.2855C19.4743 21.7268 18.7812 21.9481 17.9133 21.9481C17.1015 21.9481 16.3148 21.6934 15.5527 21.1882L15.9092 20.4891C16.565 20.8106 17.1585 20.9712 17.6914 20.9712C18.1911 20.9712 18.5824 20.8621 18.8654 20.6466C19.1478 20.4295 19.3171 20.1267 19.3171 19.7427C19.3171 19.2595 18.9734 18.8464 18.3429 18.4999C18.1455 18.3933 17.9488 18.2856 17.7526 18.1769L17.7043 18.1501C17.6156 18.1011 17.5262 18.0515 17.4387 18.0028L17.3912 17.9764C16.9655 17.7396 16.5974 17.5327 16.5974 17.5327C15.9671 17.0818 15.651 16.598 15.651 15.8008C15.651 15.1415 15.8867 14.6087 16.3574 14.2033C16.8292 13.797 17.4379 13.5939 18.1833 13.5939ZM30.5509 13.7028V20.8401H33.1692V21.8412H29.223V13.7029L30.5509 13.7028ZM34.6241 20.8432V21.0123H34.3362V21.8403H34.1161V21.0123H33.8171V20.8432H34.6241ZM35.1556 20.8432L35.432 21.5229L35.6859 20.8432H35.9979V21.8403H35.7905V21.0814L35.5015 21.8403H35.352L35.0625 21.0814H35.0514V21.8403H34.8551V20.8432H35.1556ZM24.6486 14.5829C23.3784 14.5829 22.7429 15.6083 22.7429 17.6576C22.7429 18.8314 22.9113 19.6826 23.2475 20.2132C23.5588 20.7042 24.0464 20.9492 24.7104 20.9492C25.9806 20.9492 26.6161 19.9159 26.6161 17.8502C26.6161 16.6928 26.4477 15.8489 26.1119 15.3181C25.8002 14.8282 25.3128 14.5829 24.6487 14.5829" fill="#F29111"/>
<path d="M21.3192 0.50428C21.7405 -0.508396 23.2139 0.258503 23.7857 0.612245C23.9258 0.70075 24.0866 0.88773 24.2472 0.956841C24.4979 0.966469 24.7484 0.985655 24.9994 0.995902C25.4704 1.10414 25.9115 1.19258 26.2827 1.39929C28.0073 2.39265 29.13 3.40491 30.1632 5.07693C30.384 5.43109 30.4943 5.81433 30.6747 6.19757C30.925 6.76883 31.2062 7.36849 31.4967 7.90866C31.6268 8.16475 31.7274 8.44952 31.9081 8.66579C31.9786 8.76468 32.1789 8.79384 32.2987 8.85291C32.6297 9.0205 33.0308 9.14772 33.3421 9.34439C33.9235 9.69896 34.4857 10.1215 34.9967 10.554C35.1872 10.721 35.317 10.9573 35.4984 11.1339V11.2231C35.3374 11.2714 35.1768 11.3209 35.0162 11.3606C34.6652 11.4488 34.3544 11.4288 34.0139 11.517C33.8036 11.5767 33.5423 11.6555 33.3217 11.6755L33.3421 11.6956C33.4719 12.0583 34.1742 12.3533 34.4954 12.5703C34.8855 12.8456 35.2469 13.1796 35.5379 13.5631C35.6384 13.661 35.7388 13.75 35.8388 13.8476C35.9087 13.9465 35.9284 14.0744 35.9991 14.1625V14.1924C35.9208 14.1654 35.8645 14.1138 35.8111 14.0599L35.7793 14.0274C35.7474 13.995 35.7153 13.9633 35.6787 13.9371C35.4573 13.7892 35.2375 13.6123 35.0162 13.4749C34.6356 13.2387 34.1943 13.1017 33.8036 12.8646C33.5826 12.727 33.3721 12.5703 33.1615 12.4128C32.9706 12.2748 32.7603 12.0098 32.6404 11.8131C32.5697 11.7044 32.56 11.5767 32.4793 11.4981C32.4937 11.3669 32.6167 11.3279 32.7408 11.2958L32.7693 11.2885C32.8122 11.2776 32.8541 11.2667 32.8906 11.2524C33.4119 11.0359 34.0334 10.9573 34.836 10.977C34.8057 10.7799 34.3043 10.5344 34.1442 10.4163C33.8228 10.1898 33.4826 9.95347 33.1417 9.74731C32.9611 9.63934 32.6498 9.56053 32.4497 9.4723C32.1789 9.36406 31.5771 9.25589 31.4271 9.04972C31.1722 8.72473 30.9891 8.33708 30.8113 7.94552L30.763 7.83865C30.7468 7.80304 30.7307 7.76744 30.7144 7.73186C30.5044 7.26031 30.2434 6.76869 30.0328 6.28587C29.9227 6.05034 29.8721 5.84363 29.7515 5.61772C29.0198 4.2315 27.9368 3.0709 26.6237 2.2547C26.1922 1.98912 25.711 1.74334 25.1799 1.5763C24.8789 1.48739 24.5176 1.53655 24.1969 1.46834H23.9858C23.8057 1.41869 23.6553 1.23191 23.5147 1.13344C23.2043 0.927271 22.8934 0.788841 22.5221 0.641747C22.3921 0.582744 22.0206 0.445346 21.8909 0.553518C21.8106 0.573254 21.7699 0.602893 21.7502 0.681701C21.6703 0.799294 21.7405 0.97644 21.7902 1.08489C21.9409 1.39916 22.1512 1.58593 22.3422 1.85151C22.5121 2.08704 22.7231 2.35262 22.8435 2.60872C23.1034 3.1592 23.2244 3.7691 23.4652 4.31952C23.5545 4.52651 23.6958 4.76204 23.8258 4.94875C23.936 5.09694 24.1363 5.20408 24.1969 5.39168C24.3177 5.58836 24.0161 6.23732 23.9462 6.44342C23.685 7.24986 23.7357 8.37085 24.0365 9.06987L24.0525 9.10673L24.0685 9.14407C24.1783 9.4001 24.2959 9.67579 24.5879 9.74737C24.608 9.72784 24.5879 9.73809 24.6278 9.72784C24.6984 9.18678 24.7183 8.66572 24.909 8.24239C25.0192 7.9777 25.2392 7.79058 25.39 7.57451C25.4906 7.63338 25.4906 7.81087 25.5505 7.92833C25.681 8.23297 25.8211 8.56697 25.982 8.87251C26.3122 9.50174 26.6837 10.1118 27.1047 10.6622C27.2457 10.8588 27.4457 11.0752 27.6261 11.2523C27.7065 11.3209 27.7965 11.3605 27.8569 11.4487H27.8766V11.4784C27.5758 11.37 27.3851 11.0656 27.1452 10.8879C26.6935 10.5539 26.1526 10.0523 25.8412 9.57098C25.711 9.29467 25.5702 9.02985 25.4299 8.75492V8.73504C25.3699 8.81357 25.39 8.89156 25.36 9.01039C25.2298 9.50174 25.3301 10.0623 24.8789 10.239C24.3674 10.446 23.9859 9.90499 23.8258 9.65915C23.3142 8.84315 23.1741 7.46655 23.5348 6.35533C23.615 6.10935 23.6259 5.81433 23.7658 5.61793C23.7356 5.44037 23.5957 5.39182 23.5147 5.28303C23.3744 5.09708 23.2542 4.88046 23.1443 4.67395C22.9332 4.27056 22.7831 3.78857 22.6228 3.35595C22.5524 3.17928 22.5322 3.00193 22.4619 2.83469C22.3421 2.57942 22.1213 2.32333 21.9509 2.09749C21.7202 1.77291 21.0483 1.14382 21.3192 0.50428ZM24.6078 2.43081C24.6346 2.45708 24.6669 2.48005 24.7004 2.50268L24.7408 2.52977C24.7946 2.56622 24.8467 2.60459 24.8786 2.65685C24.9292 2.72603 24.9386 2.79432 24.9992 2.86364C24.9992 3.09999 24.9292 3.25713 24.7878 3.35505C24.7878 3.35505 24.7782 3.36537 24.7683 3.375C24.6881 3.21745 24.6179 3.06073 24.5371 2.90332C24.4377 2.76592 24.2972 2.65692 24.2162 2.49992H24.1967V2.48019C24.3177 2.45096 24.4377 2.43081 24.6078 2.43081Z" fill="#00758F"/>
</g>
<defs>
<clipPath id="clip0_764_517">
<rect width="36" height="24" fill="white"/>
</clipPath>
</defs>
</svg>
