<svg width="24" height="24" viewBox="0 0 24 24" fill="none" xmlns="http://www.w3.org/2000/svg">
<path d="M22.0425 10.485L13.515 1.9575L13.2 1.6425L12.8475 1.5H11.1525L10.8 1.65L10.485 1.9575L1.9575 10.485L1.6425 10.8L1.5 11.1525V12.8475L1.65 13.2L1.9575 13.515L10.485 22.0425L10.8 22.3575L11.1525 22.5H12.8475L13.2 22.35L13.515 22.0425L22.0425 13.515L22.3575 13.2L22.5 12.8475V11.1525L22.35 10.8L22.0425 10.485Z" fill="#014847"/>
<path d="M11.2425 20.535V16.44L11.3475 16.3275H12.6525L12.7575 16.44V20.535L12.6525 20.64H11.3475L11.2425 20.535ZM11.2425 7.55999V3.46499L11.3475 3.35999H12.6525L12.7575 3.46499V7.55999L12.6525 7.67248H11.3475L11.2425 7.55999ZM7.8 17.4975H7.62L6.72 16.5975V16.425L7.92 15.225H8.865L8.9925 15.36V16.305L7.7925 17.505L7.8 17.4975ZM6.72 7.61999V7.43999L7.62 6.53999H7.8L8.9925 7.73999V8.68499L8.865 8.81249H7.92L6.72 7.61999ZM3.12 11.235H7.725L7.83 11.3475V12.6525L7.725 12.7575H3.12L3 12.6525V11.3475L3.1125 11.235H3.12Z" fill="#32E6E2"/>
<path d="M14.4452 14.715H13.1402L13.0277 14.6025V11.5575C13.0277 11.01 12.8177 10.59 12.1652 10.5825C11.8277 10.5675 11.4377 10.5825 11.0327 10.5975L10.9652 10.6575V14.6025L10.8602 14.715H9.55519L9.4502 14.6025V9.39755L9.55519 9.28505H12.4802C12.7517 9.28406 13.0207 9.33668 13.2718 9.43989C13.5229 9.5431 13.7511 9.69486 13.9435 9.88648C14.1358 10.0781 14.2884 10.3058 14.3925 10.5565C14.4966 10.8073 14.5502 11.0761 14.5502 11.3475V14.6025L14.4377 14.715H14.4452Z" fill="white"/>
<path d="M20.8799 12.7651H16.2749L16.1699 12.6526V11.3476L16.2749 11.2426H20.8799L20.9924 11.3476V12.6526L20.8799 12.7651Z" fill="#32E6E2"/>
</svg>
