<svg width="24" height="25" viewBox="0 0 24 25" fill="none" xmlns="http://www.w3.org/2000/svg">
<path d="M6.353 0.106445H17.647C19.3319 0.106445 20.9478 0.775777 22.1392 1.9672C23.3307 3.15861 24 4.77453 24 6.45945V17.7534C24 19.4384 23.3307 21.0543 22.1392 22.2457C20.9478 23.4371 19.3319 24.1064 17.647 24.1064H6.353C4.66808 24.1064 3.05217 23.4371 1.86075 22.2457C0.669332 21.0543 0 19.4384 0 17.7534L0 6.45945C0 4.77453 0.669332 3.15861 1.86075 1.9672C3.05217 0.775777 4.66808 0.106445 6.353 0.106445ZM14.108 7.01945H13.175V13.7214C13.184 14.2282 13.0592 14.7284 12.813 15.1714C12.573 15.5954 12.217 15.9414 11.788 16.1714C11.345 16.4154 10.828 16.5364 10.235 16.5364C9.643 16.5364 9.127 16.4154 8.685 16.1724C8.25693 15.9413 7.90218 15.5949 7.661 15.1724C7.41313 14.7299 7.28717 14.2296 7.296 13.7224V7.01845H6.363V13.7854C6.3518 14.4393 6.52099 15.0835 6.852 15.6474C7.179 16.1944 7.65 16.6414 8.214 16.9394C8.796 17.2554 9.47 17.4134 10.235 17.4134C11.004 17.4134 11.679 17.2564 12.259 16.9424C12.8224 16.6444 13.2929 16.1971 13.619 15.6494C13.949 15.0844 14.119 14.4394 14.109 13.7854L14.108 7.01945ZM17.756 17.2394V7.02045H16.823V17.2404H17.756V17.2394Z" fill="black"/>
</svg>
