<svg width="22" height="24" viewBox="0 0 22 24" fill="none" xmlns="http://www.w3.org/2000/svg">
<g clip-path="url(#clip0_767_944)">
<path d="M0.169402 17.9948C0.278268 18.1883 0.435546 18.3336 0.629196 18.4424L9.94565 23.8146C10.3329 24.0444 10.8047 24.0444 11.1798 23.8146L20.4963 18.4424C20.8835 18.2247 21.1134 17.8132 21.1134 17.3656V6.62132C21.1134 6.17365 20.8835 5.76227 20.4963 5.54454L11.1798 0.172332C10.7927 -0.0576066 10.3207 -0.0576066 9.94565 0.172332L0.629278 5.54454C0.229856 5.76227 0 6.17365 0 6.62132V17.3776C0 17.5955 0.0484124 17.8012 0.169402 17.9948Z" fill="#009639"/>
<path d="M7.57435 16.0952C7.57502 16.2527 7.54449 16.4087 7.48452 16.5544C7.42456 16.7 7.33635 16.8323 7.22499 16.9437C7.11363 17.055 6.98131 17.1432 6.83568 17.2032C6.69005 17.2632 6.53399 17.2937 6.37649 17.293C6.21901 17.2937 6.06296 17.2632 5.91733 17.2032C5.77171 17.1432 5.63941 17.055 5.52805 16.9436C5.4167 16.8323 5.3285 16.7 5.26854 16.5543C5.20858 16.4087 5.17806 16.2527 5.17872 16.0952V7.87976C5.17872 7.23844 5.74738 6.71819 6.53377 6.71819C7.10252 6.71819 7.768 6.94805 8.16726 7.44413L8.53014 7.87976L13.5394 13.8689V7.90392C13.5387 7.74643 13.5692 7.59037 13.6292 7.44474C13.6892 7.2991 13.7774 7.16679 13.8887 7.05542C14.0001 6.94406 14.1324 6.85585 14.2781 6.79589C14.4237 6.73593 14.5797 6.7054 14.7372 6.70607C14.8947 6.70541 15.0508 6.73595 15.1964 6.79591C15.342 6.85588 15.4743 6.94409 15.5857 7.05545C15.697 7.16682 15.7852 7.29913 15.8452 7.44475C15.9051 7.59038 15.9357 7.74644 15.935 7.90392V16.1194C15.935 16.7607 15.3663 17.2809 14.58 17.2809C14.0112 17.2809 13.3457 17.0511 12.9465 16.555L7.57435 10.1423V16.0952Z" fill="white"/>
</g>
<defs>
<clipPath id="clip0_767_944">
<rect width="21.1134" height="24" fill="white"/>
</clipPath>
</defs>
</svg>
