<svg width="46" height="24" viewBox="0 0 46 24" fill="none" xmlns="http://www.w3.org/2000/svg">
<path d="M0 12C0 18.6271 10.2132 24 22.8117 24C35.4101 24 45.6233 18.6271 45.6233 12C45.6233 5.37286 35.4098 0 22.8117 0C10.2132 0 0 5.37286 0 12Z" fill="url(#paint0_radial_770_989)"/>
<path d="M22.8117 23.109C34.9179 23.109 44.7323 18.1349 44.7323 12C44.7323 5.86441 34.9179 0.891113 22.8117 0.891113C10.7055 0.891113 0.891113 5.86441 0.891113 12C0.891113 18.1349 10.7055 23.109 22.8117 23.109Z" fill="#777BB3"/>
<path d="M12.3939 13.3772C13.3895 13.3772 14.1323 13.1937 14.6024 12.8319C15.0679 12.4733 15.389 11.8528 15.5576 10.9874C15.7145 10.1783 15.6546 9.61368 15.3794 9.30857C15.0985 8.99705 14.4908 8.83915 13.5734 8.83915H11.9823L11.1008 13.3772H12.3939ZM7.19039 18.9672C7.15388 18.9671 7.11784 18.959 7.08485 18.9434C7.05186 18.9277 7.02273 18.905 6.99956 18.8768C6.97639 18.8486 6.95976 18.8156 6.95084 18.7802C6.94193 18.7448 6.94097 18.7079 6.94801 18.672L9.28514 6.64674C9.29619 6.59052 9.32638 6.53987 9.37057 6.50341C9.41476 6.46695 9.47022 6.44694 9.52751 6.44678H14.5653C16.1486 6.44678 17.327 6.87664 18.068 7.72459C18.8122 8.57646 19.0425 9.76837 18.7513 11.2657C18.6326 11.8756 18.4287 12.442 18.1453 12.9495C17.8504 13.4716 17.474 13.9433 17.0304 14.3467C16.4847 14.8571 15.867 15.2278 15.1959 15.4456C14.5357 15.6609 13.6874 15.77 12.6759 15.77H10.6357L10.0533 18.7669C10.0423 18.8233 10.012 18.8741 9.96765 18.9106C9.9233 18.9472 9.86763 18.9672 9.81016 18.9672H7.19039Z" fill="black"/>
<path d="M12.1862 9.08655H13.5731C14.6805 9.08655 15.0651 9.32964 15.1959 9.47471C15.4123 9.71494 15.4536 10.2221 15.3139 10.9404C15.1574 11.7448 14.8673 12.3155 14.4513 12.6355C14.0257 12.9635 13.3328 13.1296 12.3936 13.1296H11.4006L12.1862 9.08655ZM14.565 6.19945H9.52756C9.41269 6.19946 9.30138 6.23939 9.2127 6.31241C9.12401 6.38542 9.06345 6.48699 9.04139 6.59973L6.70426 18.6254C6.69046 18.697 6.69265 18.7708 6.71066 18.8415C6.72868 18.9122 6.76209 18.978 6.8085 19.0343C6.85491 19.0906 6.91318 19.1359 6.97914 19.1671C7.0451 19.1983 7.11713 19.2145 7.19008 19.2146H9.80986C9.92472 19.2145 10.036 19.1744 10.1246 19.1014C10.2132 19.0283 10.2737 18.9267 10.2957 18.8139L10.8392 16.0174H12.6752C13.7131 16.0174 14.5871 15.904 15.2725 15.6809C15.9772 15.4521 16.6256 15.0639 17.1994 14.5271C17.6615 14.1063 18.0536 13.6145 18.361 13.0704C18.6572 12.5404 18.8704 11.9487 18.9937 11.3128C19.3002 9.73633 19.0511 8.4742 18.2537 7.56174C17.4639 6.65747 16.2228 6.1991 14.565 6.1991V6.19945ZM10.8 13.6243H12.3936C13.4497 13.6243 14.2364 13.4258 14.7532 13.0273C15.2704 12.6295 15.6186 11.9651 15.8004 11.0345C15.9733 10.1405 15.8945 9.51 15.5634 9.14251C15.2315 8.77539 14.5686 8.59147 13.5731 8.59147H11.7781L10.8 13.6243ZM14.5654 6.69347C16.0809 6.69347 17.1862 7.0916 17.8813 7.8868C18.5763 8.68236 18.7852 9.79265 18.5086 11.218C18.3938 11.8054 18.201 12.3422 17.9294 12.8284C17.6571 13.3153 17.3021 13.7601 16.8633 14.1639C16.34 14.6533 15.7594 15.0023 15.1196 15.2101C14.4802 15.4182 13.6654 15.5219 12.6756 15.5219H10.4315L9.81021 18.7191H7.19044L9.52792 6.69347H14.5654Z" fill="white"/>
<path d="M24.7573 15.77C24.7208 15.7701 24.6847 15.762 24.6517 15.7465C24.6186 15.7309 24.5894 15.7082 24.5662 15.68C24.5429 15.6519 24.5262 15.6189 24.5172 15.5835C24.5083 15.5481 24.5072 15.5111 24.5142 15.4753L25.5479 10.1544C25.6466 9.6483 25.6224 9.28546 25.4802 9.13148C25.3928 9.03773 25.1312 8.88055 24.3574 8.88055H22.484L21.1844 15.5701C21.1733 15.6264 21.1429 15.6771 21.0985 15.7135C21.0541 15.7499 20.9984 15.7698 20.941 15.7697H18.3426C18.3061 15.7697 18.2701 15.7617 18.237 15.7461C18.204 15.7306 18.1748 15.7079 18.1515 15.6798C18.1283 15.6517 18.1115 15.6188 18.1025 15.5834C18.0934 15.548 18.0923 15.5111 18.0992 15.4753L20.4366 3.44959C20.4477 3.39326 20.478 3.34251 20.5224 3.30604C20.5667 3.26957 20.6223 3.24963 20.6797 3.24963H23.2781C23.3146 3.24961 23.3507 3.25765 23.3837 3.27319C23.4167 3.28872 23.4459 3.31136 23.4692 3.3395C23.4925 3.36763 23.5092 3.40055 23.5183 3.43591C23.5273 3.47127 23.5284 3.5082 23.5216 3.54405L22.9577 6.44683H24.9726C26.5078 6.44683 27.5485 6.71701 28.1548 7.27411C28.7725 7.84191 28.9657 8.74974 28.728 9.97337L27.6405 15.5701C27.6294 15.6263 27.599 15.677 27.5547 15.7134C27.5104 15.7498 27.4548 15.7697 27.3974 15.7697L24.7573 15.77Z" fill="black"/>
<path d="M23.2787 3.00183H20.68C20.565 3.00186 20.4537 3.04184 20.365 3.11492C20.2763 3.18801 20.2158 3.28966 20.1938 3.40246L17.8567 15.4278C17.8428 15.4994 17.845 15.5733 17.8629 15.644C17.8809 15.7147 17.9143 15.7806 17.9608 15.8369C18.0072 15.8933 18.0655 15.9386 18.1314 15.9698C18.1974 16.001 18.2695 16.0172 18.3425 16.0173H20.9412C21.0562 16.0173 21.1675 15.9773 21.2562 15.9042C21.3449 15.8311 21.4054 15.7295 21.4274 15.6167L22.6881 9.12783H24.3569C25.1297 9.12783 25.2922 9.29286 25.2983 9.30034C25.3453 9.35024 25.407 9.58371 25.305 10.1073L24.2714 15.4278C24.2575 15.4995 24.2597 15.5733 24.2777 15.6441C24.2957 15.7148 24.3291 15.7807 24.3756 15.8371C24.422 15.8934 24.4804 15.9388 24.5464 15.9699C24.6124 16.0011 24.6845 16.0173 24.7576 16.0173H27.398C27.5129 16.0172 27.6241 15.9772 27.7127 15.9041C27.8014 15.831 27.8618 15.7294 27.8838 15.6167L28.9713 10.0207C29.2261 8.70688 29.008 7.7217 28.3226 7.09189C27.6682 6.49094 26.5725 6.19903 24.9728 6.19903H23.2584L23.7649 3.59173C23.7788 3.52001 23.7767 3.44611 23.7587 3.3753C23.7407 3.3045 23.7073 3.23855 23.6609 3.18217C23.6144 3.1258 23.5561 3.08039 23.49 3.04922C23.4239 3.01804 23.3518 3.00186 23.2787 3.00183ZM23.2787 3.49727L22.6575 6.69375H24.9728C26.4296 6.69375 27.4347 6.94825 27.9872 7.45652C28.5407 7.96479 28.7061 8.78779 28.4855 9.92659L27.3976 15.5222H24.7576L25.7916 10.2014C25.9092 9.59618 25.8657 9.18343 25.6615 8.96316C25.4572 8.74324 25.0224 8.6331 24.3576 8.6331H22.28L20.9412 15.5219H18.3421L20.6796 3.4962H23.2787V3.49727Z" fill="white"/>
<path d="M32.8399 13.3772C33.8354 13.3772 34.5785 13.1937 35.049 12.8319C35.5138 12.4733 35.8353 11.8528 36.0039 10.9874C36.1608 10.1783 36.1012 9.61368 35.8257 9.30857C35.5448 8.99705 34.9371 8.83915 34.0197 8.83915H32.4289L31.5467 13.3772H32.8399ZM27.6374 18.9672C27.6008 18.9672 27.5647 18.9592 27.5316 18.9436C27.4985 18.928 27.4693 18.9053 27.4461 18.8771C27.4228 18.8488 27.4061 18.8158 27.3972 18.7804C27.3882 18.7449 27.3872 18.7079 27.3943 18.672L29.7314 6.64674C29.7425 6.5904 29.7728 6.53966 29.8171 6.50319C29.8615 6.46671 29.9171 6.44677 29.9745 6.44678H35.012C36.5952 6.44678 37.7736 6.87664 38.5143 7.72459C39.2589 8.57646 39.4888 9.76837 39.1976 11.2657C39.0863 11.8556 38.8818 12.4239 38.592 12.9495C38.2969 13.4715 37.9205 13.9432 37.4771 14.3467C36.9317 14.8571 36.3133 15.2278 35.6425 15.4456C34.9824 15.6609 34.1341 15.77 33.1222 15.77H31.0823L30.5003 18.7669C30.4892 18.8233 30.4589 18.8742 30.4145 18.9107C30.3701 18.9473 30.3143 18.9672 30.2568 18.9672H27.6374Z" fill="black"/>
<path d="M32.633 9.08655H34.0198C35.1273 9.08655 35.5119 9.32964 35.6423 9.47471C35.8597 9.71494 35.9004 10.2221 35.761 10.9404C35.6042 11.7448 35.314 12.3155 34.8981 12.6355C34.4722 12.9635 33.7793 13.1296 32.8404 13.1296H31.8474L32.633 9.08655ZM35.0118 6.19945H29.9743C29.8595 6.19955 29.7483 6.23951 29.6597 6.31252C29.5711 6.38553 29.5106 6.48705 29.4885 6.59973L27.151 18.6254C27.1372 18.6971 27.1394 18.7709 27.1575 18.8416C27.1755 18.9123 27.2089 18.9782 27.2554 19.0345C27.3018 19.0908 27.3602 19.1361 27.4262 19.1672C27.4922 19.1984 27.5642 19.2145 27.6372 19.2146H30.257C30.3719 19.2145 30.4831 19.1744 30.5717 19.1014C30.6604 19.0283 30.7208 18.9267 30.7428 18.8139L31.2864 16.0174H33.122C34.1596 16.0174 35.0339 15.904 35.719 15.6809C36.424 15.4521 37.0723 15.0639 37.6465 14.5268C38.1084 14.106 38.5004 13.6144 38.8078 13.0704C39.1043 12.5404 39.3168 11.9487 39.4405 11.3128C39.747 9.73633 39.4982 8.4742 38.7005 7.56174C37.9107 6.65747 36.6699 6.1991 35.0114 6.1991L35.0118 6.19945ZM31.2468 13.6243H32.8401C33.8965 13.6243 34.6828 13.4258 35.2003 13.0273C35.7172 12.6295 36.0658 11.9651 36.2468 11.0345C36.4204 10.1405 36.3416 9.51 36.0098 9.14251C35.6783 8.77539 35.015 8.59147 34.0198 8.59147H32.2252L31.2468 13.6243ZM35.0118 6.69347C36.527 6.69347 37.633 7.0916 38.3277 7.8868C39.0227 8.68236 39.2319 9.79265 38.9546 11.218C38.8406 11.8054 38.6474 12.3422 38.3758 12.8284C38.1038 13.3153 37.7485 13.7601 37.3094 14.1639C36.7865 14.6533 36.2055 15.0023 35.5657 15.2101C34.9266 15.4182 34.1122 15.5219 33.122 15.5219H30.8783L30.2563 18.7191H27.6365L29.974 6.69347H35.0118Z" fill="white"/>
<defs>
<radialGradient id="paint0_radial_770_989" cx="0" cy="0" r="1" gradientUnits="userSpaceOnUse" gradientTransform="translate(13.6963 4.21873) scale(29.955 29.955)">
<stop stop-color="#AEB2D5"/>
<stop offset="0.3" stop-color="#AEB2D5"/>
<stop offset="0.75" stop-color="#484C89"/>
<stop offset="1" stop-color="#484C89"/>
</radialGradient>
</defs>
</svg>
