<svg width="26" height="24" viewBox="0 0 26 24" fill="none" xmlns="http://www.w3.org/2000/svg">
<path d="M10.5 5C9.5 3 10.5 1 13 1C15.5 1 16.5 3 15.5 5" stroke="#4CAF50" stroke-width="1.6" stroke-linecap="round" fill="none"/>
<path d="M12 3C12 3 11 1.5 13 1" stroke="#4CAF50" stroke-width="1.2" stroke-linecap="round" fill="none"/>
<ellipse cx="13" cy="14.5" rx="6.5" ry="8" fill="#FFD859"/>
<path d="M9.5 11H16.5M9.5 14H16.5M9.5 17H16.5M11.5 7.5V21.5M14.5 7.5V21.5" stroke="#C8920A" stroke-width="0.85" stroke-linecap="round"/>
<path d="M6.5 6.5C6.5 6.5 8 5 8.5 7C9 9 7 9.5 7 9.5" stroke="#4CAF50" stroke-width="1.3" stroke-linecap="round" fill="none"/>
<path d="M19.5 6.5C19.5 6.5 18 5 17.5 7C17 9 19 9.5 19 9.5" stroke="#4CAF50" stroke-width="1.3" stroke-linecap="round" fill="none"/>
</svg>
