<svg width="279" height="326" viewBox="0 0 279 326" fill="none" xmlns="http://www.w3.org/2000/svg">
<path d="M139.999 202.6C146.978 202.6 153.671 205.381 158.605 210.332C163.54 215.283 166.312 221.998 166.312 229C166.312 236.002 163.54 242.717 158.605 247.668C153.671 252.619 146.978 255.4 139.999 255.4C133.021 255.4 126.328 252.619 121.394 247.668C116.459 242.717 113.687 236.002 113.687 229C113.687 221.998 116.459 215.283 121.394 210.332C126.328 205.381 133.021 202.6 139.999 202.6ZM139.999 215.8C136.51 215.8 133.164 217.191 130.697 219.666C128.229 222.142 126.843 225.499 126.843 229C126.843 232.501 128.229 235.858 130.697 238.334C133.164 240.809 136.51 242.2 139.999 242.2C143.489 242.2 146.835 240.809 149.302 238.334C151.769 235.858 153.156 232.501 153.156 229C153.156 225.499 151.769 222.142 149.302 219.666C146.835 217.191 143.489 215.8 139.999 215.8ZM126.843 295C125.199 295 123.817 293.812 123.554 292.228L121.12 274.738C116.976 273.088 113.424 270.844 110.003 268.204L93.6237 274.87C92.1765 275.398 90.4004 274.87 89.611 273.418L76.4548 250.582C76.0522 249.902 75.9103 249.098 76.0556 248.321C76.2008 247.543 76.6234 246.846 77.2442 246.358L91.124 235.402L90.6635 229L91.124 222.4L77.2442 211.642C76.6234 211.154 76.2008 210.457 76.0556 209.679C75.9103 208.902 76.0522 208.098 76.4548 207.418L89.611 184.582C90.4004 183.13 92.1765 182.536 93.6237 183.13L110.003 189.73C113.424 187.156 116.976 184.912 121.12 183.262L123.554 165.772C123.817 164.188 125.199 163 126.843 163H153.156C154.8 163 156.182 164.188 156.445 165.772L158.879 183.262C163.023 184.912 166.575 187.156 169.996 189.73L186.375 183.13C187.822 182.536 189.598 183.13 190.388 184.582L203.544 207.418C204.399 208.87 204.004 210.652 202.755 211.642L188.875 222.4L189.335 229L188.875 235.6L202.755 246.358C204.004 247.348 204.399 249.13 203.544 250.582L190.388 273.418C189.598 274.87 187.822 275.464 186.375 274.87L169.996 268.27C166.575 270.844 163.023 273.088 158.879 274.738L156.445 292.228C156.182 293.812 154.8 295 153.156 295H126.843ZM135.066 176.2L132.632 193.426C124.738 195.076 117.765 199.3 112.7 205.174L96.847 198.31L91.9134 206.89L105.793 217.12C103.162 224.82 103.162 233.18 105.793 240.88L91.8476 251.176L96.7812 259.756L112.766 252.892C117.831 258.7 124.738 262.924 132.566 264.508L135 281.8H144.999L147.433 264.574C155.261 262.924 162.168 258.7 167.233 252.892L183.218 259.756L188.151 251.176L174.206 240.946C176.837 233.224 176.837 224.842 174.206 217.12L188.085 206.89L183.152 198.31L167.299 205.174C162.13 199.17 155.118 195.061 147.367 193.492L144.933 176.2H135.066Z" fill="#199FF4"/>
<path fill-rule="evenodd" clipRule="evenodd" d="M250.846 72.3809L181.494 3.0293C179.561 1.0957 176.95 0 174.211 0H37.3125C31.6084 0 27 4.6084 27 10.3125V91.5C27 93.7091 28.7909 95.5 31 95.5H46.2031C48.4123 95.5 50.2031 93.7091 50.2031 91.5V23.2031H147.527V58.0078V92.8125C147.527 96.4022 148.953 99.845 151.492 102.383C154.03 104.922 157.473 106.348 161.062 106.348H230.672V120.5C230.672 122.709 232.463 124.5 234.672 124.5H249.875C252.084 124.5 253.875 122.709 253.875 120.5V79.6963C253.875 76.957 252.779 74.3145 250.846 72.3809ZM169.441 84.4336H230.092L169.441 23.7832V84.4336Z" fill="#199FF4"/>
<path d="M100.021 130.875L127.921 158.75H251.1V298.125H27.9V130.875H100.021ZM111.6 103H27.9C12.555 103 0.1395 115.544 0.1395 130.875L0 298.125C0 313.456 12.555 326 27.9 326H251.1C266.445 326 279 313.456 279 298.125V158.75C279 143.419 266.445 130.875 251.1 130.875H139.5L111.6 103Z" fill="#199FF4"/>
</svg>
