<svg width="34" height="25" viewBox="0 0 34 25" fill="none" xmlns="http://www.w3.org/2000/svg">
<g clip-path="url(#clip0_771_1256)">
<path d="M33.4571 8.3411V15.8277H25.9705V8.3411H33.4571ZM33.4571 0.105835V7.5924H25.9705V0.105835H33.4571ZM25.2218 0.105835V7.5924H17.7353V0.105835H25.2218ZM16.9866 0.105835V7.5924H9.5V0.105835H16.9866Z" fill="#F9AD00"/>
<path d="M25.222 16.5763V24.0629H17.7354V16.5763H25.222ZM33.4572 16.5763V24.0629H25.9707V16.5763H33.4572ZM16.9867 16.5763V24.0629H9.50014V16.5763H16.9867ZM25.222 8.34106V15.8276H17.7354V8.34106H25.222ZM1.46829 10.5256C1.71983 10.5256 1.95357 10.5581 2.1695 10.623C2.38537 10.688 2.57092 10.7876 2.72607 10.9217C2.88116 11.0559 3.00279 11.2247 3.09083 11.428C3.17887 11.6313 3.2229 11.8734 3.2229 12.1544C3.2229 12.4227 3.18507 12.6575 3.10968 12.8587C3.03422 13.0599 2.92727 13.2287 2.78894 13.365C2.65061 13.5012 2.48392 13.6029 2.28898 13.6699C2.09398 13.737 1.87707 13.7705 1.63811 13.7705C1.45785 13.7705 1.29011 13.7433 1.13503 13.6888V14.7328L1.12485 14.7356C1.08259 14.7474 1.01887 14.7601 0.933766 14.7736C0.841548 14.7883 0.747244 14.7956 0.650722 14.7956C0.558505 14.7956 0.475744 14.7894 0.402374 14.7767C0.329005 14.7642 0.267179 14.739 0.216831 14.7013C0.166548 14.6636 0.128788 14.6122 0.103679 14.5472C0.0785049 14.4823 0.065918 14.3973 0.065918 14.2925V11.274L0.0662441 11.2516C0.0692441 11.1485 0.0932441 11.0638 0.138244 10.9972C0.186505 10.926 0.252505 10.8609 0.336309 10.8022C0.466288 10.7184 0.627701 10.6513 0.820548 10.601C1.0134 10.5508 1.22933 10.5256 1.46829 10.5256ZM8.81353 10.5256C9.06507 10.5256 9.29881 10.5581 9.51474 10.623C9.73061 10.688 9.91616 10.7876 10.0713 10.9217C10.2264 11.0559 10.348 11.2247 10.4361 11.428C10.5241 11.6313 10.5681 11.8734 10.5681 12.1544C10.5681 12.4227 10.5304 12.6575 10.4549 12.8587C10.3795 13.0599 10.2725 13.2287 10.1342 13.365C9.99585 13.5012 9.82916 13.6029 9.63422 13.6699C9.43922 13.737 9.22231 13.7705 8.98335 13.7705C8.80309 13.7705 8.63535 13.7433 8.48027 13.6888V14.7328L8.47016 14.7356C8.42783 14.7474 8.36418 14.7601 8.279 14.7736C8.18679 14.7883 8.09248 14.7956 7.99596 14.7956C7.90381 14.7956 7.82098 14.7894 7.74761 14.7767C7.67424 14.7642 7.61242 14.739 7.56207 14.7013C7.51179 14.6636 7.47403 14.6122 7.44892 14.5472C7.42374 14.4823 7.41116 14.3973 7.41116 14.2925V11.274L7.41148 11.2516C7.41448 11.1485 7.43848 11.0638 7.48348 10.9972C7.53174 10.926 7.59774 10.8609 7.68155 10.8022C7.81153 10.7184 7.97294 10.6513 8.16579 10.601C8.35864 10.5508 8.57457 10.5256 8.81353 10.5256ZM5.27301 10.5256C5.74674 10.5256 6.11151 10.6293 6.36722 10.8369C6.62301 11.0444 6.75083 11.3327 6.75083 11.7016V13.6699L6.73987 13.6731C6.69774 13.6846 6.6354 13.6961 6.5527 13.7077C6.46264 13.7203 6.36931 13.7266 6.27292 13.7266C6.18064 13.7266 6.09787 13.7203 6.02444 13.7077C5.95114 13.6951 5.88931 13.6699 5.83896 13.6322C5.78868 13.5945 5.74987 13.5431 5.72261 13.4781C5.69535 13.4132 5.68179 13.3282 5.68179 13.2234V11.7393L5.68146 11.7191C5.67781 11.5994 5.64122 11.5108 5.5717 11.4532C5.49833 11.3924 5.39874 11.362 5.27301 11.362C5.18914 11.362 5.10631 11.3724 5.02453 11.3934C4.94281 11.4144 4.87257 11.4458 4.81387 11.4877V13.6699L4.80292 13.6731C4.76079 13.6846 4.69844 13.6961 4.61581 13.7077C4.52568 13.7203 4.43242 13.7266 4.33603 13.7266C4.24374 13.7266 4.16092 13.7203 4.08755 13.7077C4.01418 13.6951 3.95235 13.6699 3.90207 13.6322C3.85172 13.5945 3.81298 13.5431 3.78572 13.4781C3.75846 13.4132 3.74483 13.3282 3.74483 13.2234V11.3369L3.74516 11.3145C3.74816 11.2115 3.77216 11.1267 3.81716 11.0602C3.86542 10.9889 3.93142 10.9239 4.01522 10.8652C4.15779 10.7646 4.33701 10.6829 4.55294 10.62C4.76881 10.5571 5.00881 10.5257 5.27294 10.5257M14.4859 10.5257C14.6453 10.5257 14.8014 10.5466 14.9545 10.5885C15.1075 10.6305 15.2437 10.6965 15.3632 10.7867C15.4827 10.8768 15.5781 10.9963 15.6494 11.1451C15.7206 11.2939 15.7563 11.4752 15.7563 11.689V13.67L15.7452 13.6732C15.7032 13.6847 15.6408 13.6962 15.5582 13.7077C15.468 13.7203 15.3747 13.7267 15.2783 13.7267C15.186 13.7267 15.1033 13.7203 15.0299 13.7077C14.9565 13.6952 14.8947 13.67 14.8444 13.6323C14.7941 13.5945 14.7553 13.5432 14.728 13.4782C14.7008 13.4132 14.6871 13.3283 14.6871 13.2235V11.7205L14.6868 11.6999C14.6831 11.5847 14.6475 11.5004 14.5802 11.4469C14.509 11.3904 14.4126 11.3621 14.291 11.3621C14.2323 11.3621 14.1694 11.3757 14.1023 11.4029C14.0352 11.4302 13.9849 11.4585 13.9514 11.4878C13.9556 11.5046 13.9577 11.5203 13.9577 11.535V13.67L13.9457 13.6732C13.9 13.6847 13.8359 13.6962 13.7533 13.7077C13.6626 13.7204 13.5712 13.7267 13.4797 13.7267C13.3875 13.7267 13.3047 13.7203 13.2314 13.7077C13.158 13.6952 13.0961 13.67 13.0458 13.6323C12.9955 13.5945 12.9567 13.5432 12.9295 13.4782C12.9022 13.4132 12.8886 13.3283 12.8886 13.2235V11.7205L12.8882 11.7009C12.8844 11.5852 12.8457 11.5006 12.7722 11.4469C12.6947 11.3904 12.6014 11.3621 12.4924 11.3621C12.4169 11.3621 12.352 11.3735 12.2974 11.3966C12.2502 11.4162 12.204 11.4383 12.1591 11.4627V13.67L12.1481 13.6732C12.106 13.6847 12.0436 13.6962 11.961 13.7077C11.8709 13.7203 11.7776 13.7267 11.6812 13.7267C11.5889 13.7267 11.5061 13.7203 11.4327 13.7077C11.3594 13.6952 11.2975 13.67 11.2472 13.6323C11.1969 13.5945 11.1582 13.5432 11.1309 13.4782C11.1036 13.4132 11.09 13.3283 11.09 13.2235V11.3244L11.0903 11.302C11.0933 11.1992 11.1173 11.1165 11.1623 11.0539C11.2106 10.9868 11.2766 10.9239 11.3604 10.8652C11.503 10.7646 11.6801 10.6829 11.8919 10.62C12.1035 10.5571 12.3247 10.5257 12.5553 10.5257C12.7272 10.5257 12.8959 10.5498 13.0615 10.598C13.2272 10.6462 13.3707 10.7185 13.4923 10.8149C13.6181 10.7311 13.7595 10.6619 13.9169 10.6074C14.074 10.5529 14.2637 10.5257 14.4859 10.5257ZM1.50605 11.3621C1.42635 11.3621 1.35514 11.3715 1.2922 11.3904C1.22933 11.4092 1.17481 11.4312 1.1287 11.4564V12.8399L1.1542 12.8522C1.19731 12.8719 1.24329 12.8888 1.2922 12.9028C1.3509 12.9195 1.41383 12.9279 1.48087 12.9279C1.91268 12.9279 2.12861 12.6701 2.12861 12.1545C2.12861 11.8861 2.07514 11.687 1.96824 11.557C1.86135 11.427 1.70731 11.3621 1.50605 11.3621ZM8.85129 11.362C8.77166 11.362 8.70037 11.3714 8.63744 11.3903C8.57457 11.4092 8.52005 11.4311 8.47394 11.4563V12.8398L8.49944 12.8521C8.54255 12.8718 8.58853 12.8887 8.63744 12.9027C8.69613 12.9195 8.75907 12.9279 8.82611 12.9279C9.25798 12.9279 9.47385 12.6701 9.47385 12.1544C9.47385 11.886 9.42037 11.6869 9.31348 11.5569C9.20659 11.427 9.05255 11.3619 8.85129 11.3619" fill="#4E4E4E"/>
</g>
<defs>
<clipPath id="clip0_771_1256">
<rect width="33.3913" height="24" fill="white" transform="translate(0.065918 0.105835)"/>
</clipPath>
</defs>
</svg>
