<svg width="24" height="24" viewBox="0 0 24 24" fill="none" xmlns="http://www.w3.org/2000/svg">
<g clip-path="url(#clip0_765_883)">
<path d="M21.2095 4.88743C17.2816 -0.199069 9.97338 -1.13807 4.88669 2.79062C-0.199247 6.71931 -1.13731 14.0275 2.79138 19.1134C6.72082 24.1992 14.0296 25.1367 19.1148 21.2072C24.1986 17.2786 25.1369 9.97262 21.2095 4.88743Z" fill="#F37036"/>
<path d="M17.0771 4.53074C16.6765 4.56275 16.2966 4.72215 15.9932 4.98561C15.6379 5.29402 15.4112 5.7244 15.3577 6.19179C15.3043 6.65919 15.428 7.12965 15.7044 7.5103C15.9805 7.89113 16.3892 8.15466 16.85 8.2489C17.3109 8.34313 17.7903 8.26124 18.1937 8.01936H18.194L18.2233 8.04861C18.3561 7.97244 18.4798 7.88122 18.5917 7.77674C18.937 7.41146 19.127 6.92636 19.1215 6.42373C19.1161 5.92111 18.9156 5.44025 18.5625 5.08255V5.08218L16.9042 6.73011L16.875 6.70105L18.5332 5.05236C18.3413 4.8673 18.1122 4.72512 17.8612 4.63526C17.6102 4.5454 17.3429 4.5099 17.0771 4.53111V4.53074ZM14.8939 7.2283C14.0989 7.22699 12.8008 8.12811 9.63129 11.2976L9.64704 11.3137C9.62979 11.3077 9.61235 11.3072 9.61235 11.3072L8.4191 12.4899C8.38846 12.5191 8.36818 12.5574 8.36134 12.5992C8.3545 12.6409 8.36149 12.6837 8.38123 12.7211C8.40097 12.7585 8.43238 12.7885 8.4707 12.8064C8.50901 12.8243 8.55213 12.8292 8.59348 12.8203L10.6399 12.3838C10.6489 12.3753 10.6549 12.3641 10.6571 12.3519L10.7025 12.3988L10.005 13.0907H9.97123L5.8301 17.2644L7.15873 18.5439C7.19589 18.5774 7.24276 18.5982 7.29253 18.6032C7.3423 18.6082 7.39238 18.5973 7.43548 18.5719C7.47896 18.5467 7.51378 18.5089 7.53537 18.4635C7.55696 18.4181 7.56429 18.3672 7.55642 18.3176L7.36235 17.4739C7.35026 17.4569 7.34376 17.4366 7.34376 17.4157C7.34376 17.3949 7.35026 17.3746 7.36235 17.3576C9.17626 16.4929 10.8631 15.3836 12.3757 14.0608L11.5254 13.2101L11.5415 13.2075L11.0372 12.7033L11.0694 12.6707L11.1035 12.7056L11.0859 12.7226L12.4241 14.0901V14.0895C14.9891 11.6606 16.8097 9.70818 16.3363 8.39418C16.3147 8.23704 16.2417 8.09147 16.1287 7.98018V7.98093C16.1 7.95954 16.0698 7.94036 16.0382 7.92355C16.0226 7.90705 16.0089 7.89018 15.9924 7.87405L15.98 7.88643C15.9453 7.8652 15.9088 7.84701 15.8709 7.83205L15.9251 7.7773C15.5884 7.4773 15.3101 7.22905 14.8939 7.22793V7.2283ZM5.80123 17.2894L4.83167 18.2591V18.2599C4.79688 18.2814 4.76983 18.3135 4.75443 18.3514C4.73903 18.3893 4.73607 18.4311 4.74598 18.4708C4.75554 18.5105 4.77738 18.5462 4.80839 18.5727C4.83939 18.5993 4.87798 18.6154 4.91867 18.6187L7.29467 18.7828L5.80123 17.2894Z" fill="white"/>
<path d="M17.2404 4.37061C16.6962 4.36993 16.1736 4.58344 15.7856 4.96498C15.5095 5.24754 15.3205 5.60353 15.241 5.99052C15.1616 6.37751 15.195 6.77918 15.3375 7.14767C14.4485 6.76704 13.2459 7.43079 9.50511 11.1709C9.50248 11.1766 9.50017 11.1825 9.49817 11.1885C9.49053 11.192 9.48308 11.1958 9.47586 11.2001L8.29292 12.3934C8.23622 12.449 8.19898 12.5215 8.18672 12.6C8.17446 12.6785 8.18783 12.7588 8.22486 12.8291C8.25791 12.8847 8.30471 12.9309 8.36076 12.9632C8.41681 12.9955 8.48023 13.0129 8.54492 13.0136L8.60361 12.9755L10.1831 12.6386L9.42748 13.4012C9.42308 13.4112 9.41969 13.4216 9.41736 13.4323L5.71423 17.1446C5.69947 17.157 5.68725 17.1722 5.67823 17.1892L4.72461 18.1436C4.67708 18.1938 4.64461 18.2563 4.63088 18.324C4.61716 18.3917 4.62274 18.462 4.64698 18.5267C4.67185 18.591 4.71401 18.6472 4.7688 18.689C4.8236 18.7309 4.8889 18.7568 4.95748 18.7639L7.32336 18.9289C7.36371 18.9147 7.39808 18.8872 7.42086 18.851C7.4412 18.8228 7.45214 18.7888 7.45214 18.754C7.45214 18.7192 7.4412 18.6852 7.42086 18.657L7.41599 18.6523C7.46704 18.6255 7.51203 18.5885 7.54817 18.5435C7.58617 18.4942 7.61271 18.4371 7.62588 18.3762C7.63905 18.3154 7.63851 18.2524 7.6243 18.1918L7.4398 17.4067C9.20987 16.5608 10.8684 15.4989 12.3774 14.2453C12.3921 14.2536 12.4077 14.2601 12.4239 14.2646C12.4715 14.261 12.5162 14.2406 12.5499 14.2069C15.0905 11.8012 16.584 10.1527 16.584 8.84398C16.5895 8.66244 16.5621 8.4814 16.5032 8.30961C16.7321 8.40455 16.9764 8.45727 17.2241 8.46523L17.2213 8.46598C17.5625 8.45555 17.896 8.36224 18.1931 8.19411C18.1934 8.19417 18.1936 8.19423 18.1939 8.19429C18.2323 8.20582 18.2737 8.20213 18.3095 8.18398C18.4529 8.09957 18.5836 7.99528 18.6977 7.87423C18.891 7.68451 19.0446 7.45816 19.1495 7.20841C19.2544 6.95865 19.3085 6.69049 19.3085 6.41961C19.3085 6.14873 19.2545 5.88059 19.1496 5.63083C19.0448 5.38107 18.8912 5.15472 18.6979 4.96498C18.691 4.95871 18.6836 4.95301 18.6757 4.94792C18.2898 4.57732 17.7753 4.37049 17.2402 4.37079L17.2404 4.37061ZM17.2241 4.70286C17.603 4.70512 17.9708 4.83114 18.2715 5.06173L16.7587 6.58367C16.7535 6.58943 16.7488 6.59558 16.7445 6.60204C16.7172 6.62963 16.7012 6.66641 16.6997 6.70517C16.6997 6.72859 16.705 6.7517 16.7151 6.7728C16.7253 6.7939 16.7401 6.81244 16.7584 6.82704H16.7587L17.9025 7.97079C17.5894 8.10731 17.2424 8.14611 16.9069 8.08211C16.5714 8.01811 16.2631 7.85429 16.0222 7.61211C15.5374 7.12461 15.3967 6.39261 15.656 5.75754C15.9154 5.12192 16.5335 4.70661 17.2241 4.70286ZM18.5591 5.34636C18.8065 5.64562 18.9413 6.02198 18.9403 6.41023C18.9396 6.86507 18.7583 7.30101 18.4363 7.62223C18.3717 7.68297 18.3029 7.73905 18.2304 7.79004L17.3074 6.88123L17.1268 6.70067L17.1765 6.65098L18.5589 5.34598L18.5591 5.34636ZM18.4905 6.13254C18.4566 6.12182 18.4199 6.12389 18.3874 6.13836C18.3552 6.15501 18.3309 6.18373 18.3199 6.21823C18.3144 6.23546 18.3125 6.25359 18.3141 6.27158C18.3157 6.28956 18.3208 6.30706 18.3292 6.32304C18.3626 6.39309 18.3757 6.47104 18.3672 6.54814C18.3587 6.62525 18.3288 6.69845 18.281 6.75954C18.2688 6.77134 18.2592 6.7856 18.2529 6.80137C18.2466 6.81714 18.2438 6.83407 18.2445 6.85104C18.2452 6.88554 18.2576 6.91854 18.281 6.94329C18.306 6.95284 18.3337 6.95284 18.3587 6.94329C18.3812 6.94892 18.4049 6.94828 18.4271 6.94144C18.4493 6.9346 18.4692 6.92182 18.4847 6.90448C18.5645 6.80665 18.615 6.68826 18.6304 6.56296C18.6458 6.43767 18.6255 6.31056 18.5719 6.19629V6.19704C18.5536 6.16628 18.5246 6.14332 18.4905 6.13254ZM14.876 7.39311C15.1023 7.40061 15.3201 7.48127 15.4967 7.62298C15.3064 7.65036 15.1301 7.73849 14.994 7.87423L10.7177 12.1314L9.87842 11.2922C12.0962 9.08492 13.4522 7.93198 14.2952 7.55417C14.4688 7.44463 14.6708 7.38875 14.876 7.39311ZM15.6195 7.94811C15.7631 7.94811 15.9008 8.00502 16.0025 8.10636C16.0567 8.15713 16.0994 8.21886 16.1278 8.28743C16.1562 8.35601 16.1697 8.42985 16.1674 8.50404C16.1649 8.57796 16.1472 8.65057 16.1155 8.71735C16.0837 8.78413 16.0385 8.84365 15.9827 8.89217L11.4358 12.8495L10.9451 12.3589L15.2364 8.10636C15.3382 8.00509 15.4759 7.94806 15.6195 7.94811ZM16.1809 9.20398C15.864 10.4606 14.1845 12.1633 12.4333 13.8178L11.7251 13.1104L16.1809 9.20398ZM9.63111 11.54L9.68249 11.5907L10.3412 12.2494L8.53555 12.6356L9.63111 11.54ZM10.7173 12.635L10.718 12.6358L10.937 12.8599C10.938 12.8651 10.9391 12.8704 10.9404 12.8756L10.955 12.8779L11.0015 12.9255L11.1553 13.083L10.1456 13.2067L10.7173 12.635ZM11.4424 13.3993L12.1132 14.0698C10.6298 15.3034 9.00192 16.352 7.26542 17.1928C7.20904 17.2196 7.16371 17.2652 7.13715 17.3217C7.11059 17.3782 7.10443 17.4422 7.11973 17.5027L7.3138 18.3465C7.32095 18.3564 7.3248 18.3683 7.3248 18.3805C7.3248 18.3927 7.32095 18.4046 7.3138 18.4145C7.30313 18.4241 7.28931 18.4294 7.27498 18.4294C7.26066 18.4294 7.24684 18.4241 7.23617 18.4145L6.09205 17.261L9.61855 13.6828L11.4424 13.3993ZM5.82992 17.513L5.99286 17.6657L6.83511 18.5079L4.95711 18.3864L5.82992 17.513Z" fill="#F37036"/>
</g>
<defs>
<clipPath id="clip0_765_883">
<rect width="24" height="24" fill="white"/>
</clipPath>
</defs>
</svg>
