<svg width="27" height="25" viewBox="0 0 27 25" fill="none" xmlns="http://www.w3.org/2000/svg">
<g clip-path="url(#clip0_771_1249)">
<path d="M16.4849 14.974L15.9726 15.8638C15.8967 15.9955 15.7875 16.1048 15.656 16.1809C15.5244 16.2569 15.3751 16.2969 15.2232 16.2969H11.2978C11.1458 16.2969 10.9966 16.2569 10.865 16.1809C10.7334 16.1048 10.6242 15.9955 10.5484 15.8638L10.0359 14.974H16.4849ZM17.9194 12.4832L17.016 14.052H9.505L8.60156 12.4832H17.9194ZM17.0491 10.0475L17.9209 11.5612H8.6001L9.47182 10.0475H17.0491ZM15.2231 7.745C15.375 7.74497 15.5243 7.785 15.6559 7.86104C15.7875 7.93708 15.8967 8.04645 15.9726 8.17814L16.5181 9.12552H10.0028L10.5485 8.17814C10.6243 8.04647 10.7335 7.9371 10.8651 7.86106C10.9967 7.78502 11.1459 7.74499 11.2979 7.745H15.2231Z" fill="#00435B"/>
<path d="M5.58501 7.33191C5.1502 5.22346 5.0568 3.60628 5.33792 2.43205C5.50508 1.73365 5.81061 1.16391 6.27538 0.752782C6.76602 0.318799 7.38627 0.105825 8.08331 0.105825C9.23301 0.105825 10.4418 0.630173 11.7334 1.62617C12.2604 2.0325 12.8071 2.52221 13.375 3.0956C13.4203 3.03748 13.4713 2.98259 13.5283 2.93177C15.1338 1.50116 16.4855 0.612121 17.6417 0.269443C18.3291 0.0655469 18.9745 0.0461382 19.5622 0.243982C20.1826 0.452677 20.6769 0.884364 21.0258 1.48885C21.6014 2.48652 21.7531 3.79744 21.5385 5.41619C21.4511 6.07598 21.3016 6.79463 21.0903 7.57337C21.17 7.58297 21.2499 7.60071 21.329 7.6269C23.366 8.30203 24.8085 9.02788 25.6818 9.85755C26.2014 10.3511 26.5407 10.9006 26.6634 11.509C26.7928 12.151 26.6665 12.7949 26.3182 13.399C25.7437 14.3953 24.6872 15.181 23.1823 15.8033C22.5782 16.0532 21.8944 16.2795 21.1304 16.4831C21.1653 16.5618 21.1924 16.6454 21.2105 16.733C21.6453 18.8415 21.7386 20.4587 21.4576 21.6329C21.2904 22.3313 20.9848 22.901 20.52 23.3122C20.0295 23.7461 19.4091 23.9591 18.7122 23.9591C17.5624 23.9591 16.3537 23.4348 15.0621 22.4388C14.5295 22.0281 13.9767 21.5323 13.4022 20.951C13.3418 21.0455 13.2686 21.1312 13.1848 21.2058C11.5793 22.6366 10.2276 23.5254 9.07138 23.8682C8.38393 24.0721 7.73854 24.0915 7.15086 23.8937C6.5304 23.685 6.03611 23.2533 5.68727 22.6488C5.11169 21.6511 4.95997 20.3402 5.17451 18.7215C5.26519 18.0379 5.42244 17.291 5.64595 16.4796C5.55686 16.4705 5.46903 16.4517 5.38404 16.4235C3.34707 15.7484 1.90456 15.0226 1.03127 14.1929C0.511622 13.6993 0.172388 13.1498 0.0496745 12.5415C-0.0797168 11.8994 0.046544 11.2554 0.394857 10.6513C0.969396 9.65511 2.02581 8.86937 3.53072 8.24715C4.15294 7.98972 4.85948 7.75744 5.65107 7.54916C5.62241 7.47893 5.6003 7.40621 5.58501 7.33191Z" fill="#002B3B"/>
<path d="M19.7892 16.9406C19.8864 16.9234 19.9865 16.9443 20.0688 16.9988C20.1511 17.0534 20.2092 17.1376 20.2311 17.2339L20.2335 17.2455L20.2551 17.3577C20.9553 21.0387 20.462 22.8793 18.7755 22.8793C17.1254 22.8793 15.0248 21.3087 12.4737 18.1677C12.4284 18.1118 12.3996 18.0444 12.3907 17.9731C12.3818 17.9017 12.393 17.8293 12.4232 17.764C12.4534 17.6988 12.5013 17.6433 12.5614 17.6039C12.6216 17.5644 12.6916 17.5427 12.7635 17.5411H12.7753L12.9098 17.542C13.9833 17.5478 15.0269 17.5104 16.0406 17.4297C17.2372 17.3345 18.4867 17.1715 19.7892 16.9406ZM8.20648 14.1581L8.21295 14.1691L8.28036 14.2867C8.82057 15.2258 9.38331 16.1171 9.96871 16.9608C10.6582 17.9542 11.4335 18.9599 12.2946 19.9779C12.3585 20.0534 12.3909 20.1507 12.3848 20.2495C12.3788 20.3483 12.335 20.4409 12.2624 20.5082L12.2527 20.5169L12.1661 20.5915C9.31664 23.0329 7.46467 23.5203 6.61017 22.0536C5.77361 20.6181 6.07695 18.0077 7.51998 14.2226C7.54553 14.1555 7.58934 14.097 7.64646 14.0535C7.70358 14.0101 7.77172 13.9835 7.84317 13.9768C7.91462 13.9701 7.98651 13.9835 8.05072 14.0155C8.11494 14.0476 8.16889 14.097 8.20648 14.1581ZM21.235 8.72638L21.2467 8.73024L21.354 8.76718C24.871 9.99066 26.2072 11.3352 25.3626 12.8007C24.5366 14.2341 22.1351 15.2778 18.1583 15.9316C18.0863 15.9435 18.0123 15.9345 17.9451 15.9059C17.8779 15.8772 17.8203 15.83 17.779 15.7698C17.7377 15.7095 17.7144 15.6388 17.7118 15.5658C17.7093 15.4928 17.7276 15.4205 17.7646 15.3576C18.3342 14.3886 18.8472 13.4246 19.3037 12.4654C19.8212 11.3775 20.307 10.2098 20.7609 8.96242C20.7939 8.87175 20.8597 8.79679 20.9454 8.75243C21.0311 8.70807 21.1303 8.69754 21.2234 8.72294L21.235 8.72638ZM8.8117 8.11042C8.85523 8.13598 8.89329 8.16987 8.92372 8.21015C8.95415 8.25043 8.97634 8.2963 8.98903 8.34516C9.00173 8.39402 9.00467 8.4449 8.9977 8.49489C8.99073 8.54489 8.97397 8.59302 8.94839 8.63654C8.37865 9.60541 7.86568 10.5695 7.40926 11.5287C6.8917 12.6166 6.40596 13.7842 5.95205 15.0317C5.91835 15.1243 5.85035 15.2005 5.7621 15.2444C5.67386 15.2883 5.57211 15.2967 5.47789 15.2677L5.4662 15.2639L5.35893 15.2268C1.84189 14.0035 0.505716 12.6588 1.35031 11.1934C2.17632 9.75995 4.57779 8.71636 8.55458 8.06252C8.64328 8.04791 8.73427 8.06482 8.8117 8.11042ZM20.1028 2.08454C20.9393 3.52016 20.636 6.13052 19.193 9.91563C19.1674 9.98269 19.1236 10.0413 19.0665 10.0847C19.0094 10.1281 18.9412 10.1547 18.8698 10.1614C18.7983 10.1682 18.7264 10.1547 18.6622 10.1227C18.598 10.0906 18.544 10.0412 18.5064 9.98012L18.5 9.96916L18.4326 9.85156C17.8924 8.91243 17.3296 8.02109 16.7442 7.17744C16.0547 6.18405 15.2794 5.17835 14.4183 4.16033C14.3544 4.08478 14.3221 3.98749 14.3281 3.88872C14.3341 3.78994 14.378 3.69728 14.4505 3.63003L14.4603 3.62137L14.5469 3.54676C17.3963 1.10534 19.2483 0.617929 20.1028 2.08454ZM8.08168 1.21094C9.73184 1.21094 11.8325 2.78137 14.3835 5.92245C14.4288 5.97828 14.4575 6.0457 14.4665 6.11705C14.4754 6.1884 14.4641 6.26083 14.4339 6.32609C14.4037 6.39136 14.3559 6.44685 14.2957 6.48627C14.2356 6.52568 14.1656 6.54744 14.0937 6.54906H14.0818L13.9474 6.54822C12.874 6.54238 11.8303 6.57984 10.8166 6.6605C9.61998 6.75577 8.37041 6.91876 7.06794 7.14958C6.97074 7.16678 6.87064 7.14593 6.78839 7.09134C6.70614 7.03675 6.64804 6.95262 6.62613 6.85636L6.62363 6.84457L6.60203 6.7325C5.90185 3.05142 6.395 1.21094 8.08168 1.21094Z" fill="#FF4154"/>
<path d="M11.6136 7.79309H14.9084C15.1452 7.79308 15.3777 7.85554 15.5826 7.97418C15.7874 8.09281 15.9573 8.26341 16.0752 8.46874L17.7296 11.3515C17.8465 11.5552 17.9081 11.7861 17.9081 12.0211C17.9081 12.256 17.8465 12.4869 17.7296 12.6907L16.0752 15.5734C15.9573 15.7787 15.7874 15.9493 15.5826 16.0679C15.3777 16.1865 15.1452 16.249 14.9084 16.249H11.6136C11.1317 16.249 10.6866 15.9913 10.4467 15.5734L8.79252 12.6907C8.67557 12.4869 8.61403 12.256 8.61403 12.0211C8.61403 11.7861 8.67557 11.5552 8.79252 11.3515L10.4468 8.46874C10.5647 8.26341 10.7346 8.09281 10.9395 7.97418C11.1444 7.85555 11.3768 7.79308 11.6136 7.79309ZM14.4063 8.66314C14.8884 8.66314 15.3338 8.9212 15.5735 9.33942L16.7271 11.3521C16.8438 11.5557 16.9053 11.7863 16.9053 12.0211C16.9053 12.2558 16.8438 12.4864 16.7271 12.69L15.5735 14.7027C15.4557 14.9082 15.2857 15.0789 15.0808 15.1976C14.8758 15.3164 14.6432 15.3789 14.4063 15.3789H12.1159C11.6338 15.3789 11.1884 15.1209 10.9488 14.7027L9.79509 12.69C9.67837 12.4864 9.61696 12.2558 9.61696 12.0211C9.61696 11.7863 9.67837 11.5557 9.79509 11.3521L10.9488 9.33942C11.0665 9.13396 11.2365 8.96324 11.4414 8.84451C11.6463 8.72578 11.879 8.66325 12.1158 8.66325L14.4063 8.66314ZM13.8651 9.6148H12.6571C12.4205 9.61479 12.1881 9.6772 11.9832 9.79574C11.7784 9.91427 11.6085 10.0847 11.4906 10.2899L10.881 11.3508C10.7639 11.5548 10.7022 11.7859 10.7022 12.0211C10.7022 12.2563 10.7639 12.4873 10.881 12.6913L11.4906 13.7523C11.6085 13.9575 11.7784 14.1279 11.9832 14.2465C12.1881 14.365 12.4205 14.4274 12.6571 14.4274H13.8651C14.3467 14.4274 14.7917 14.1699 15.0316 13.7523L15.6412 12.6913C15.7584 12.4873 15.82 12.2563 15.82 12.0211C15.82 11.7859 15.7584 11.5548 15.6412 11.3508L15.0316 10.2898C14.9137 10.0846 14.7438 9.91417 14.539 9.79563C14.3342 9.6771 14.1017 9.61479 13.8651 9.6148ZM13.344 10.5255C13.8252 10.5255 14.2698 10.7827 14.5098 11.1996L14.5963 11.3499C14.7138 11.554 14.7757 11.7854 14.7757 12.021C14.7757 12.2565 14.7138 12.4879 14.5963 12.692L14.5098 12.8423C14.3919 13.0472 14.222 13.2174 14.0173 13.3357C13.8126 13.4541 13.5804 13.5164 13.344 13.5164H13.1783C12.9418 13.5164 12.7096 13.4541 12.5049 13.3357C12.3002 13.2174 12.1303 13.0472 12.0124 12.8423L11.9259 12.692C11.8084 12.4879 11.7465 12.2565 11.7465 12.021C11.7465 11.7854 11.8084 11.554 11.9259 11.3499L12.0124 11.1996C12.1303 10.9947 12.3002 10.8245 12.5049 10.7062C12.7096 10.5878 12.9418 10.5255 13.1783 10.5255H13.344ZM13.2613 11.4228C13.1562 11.4228 13.053 11.4504 12.962 11.5029C12.8709 11.5554 12.7953 11.6309 12.7427 11.7219C12.6902 11.8128 12.6625 11.916 12.6625 12.021C12.6625 12.126 12.6902 12.2291 12.7427 12.32C12.7953 12.411 12.8708 12.4865 12.9619 12.5391C13.0529 12.5916 13.1561 12.6193 13.2612 12.6193C13.3662 12.6193 13.4695 12.5916 13.5605 12.5391C13.6515 12.4865 13.727 12.411 13.7796 12.32C13.8321 12.2291 13.8598 12.126 13.8598 12.021C13.8598 11.916 13.8321 11.8128 13.7796 11.7219C13.7271 11.6309 13.6515 11.5554 13.5605 11.5029C13.4695 11.4504 13.3664 11.4228 13.2613 11.4228ZM8.4082 12.021H9.48507Z" fill="#FFD94C"/>
</g>
<defs>
<clipPath id="clip0_771_1249">
<rect width="26.713" height="24" fill="white" transform="translate(0 0.105835)"/>
</clipPath>
</defs>
</svg>
