<svg width="26" height="24" viewBox="0 0 26 24" fill="none" xmlns="http://www.w3.org/2000/svg">
<path d="M25 11.8348C25 14.6753 19.6274 16.9776 13 16.9776C6.37257 16.9776 1 14.6753 1 11.8348C1 8.99418 6.37257 6.69189 13 6.69189C19.6274 6.69189 25 8.99418 25 11.8348Z" stroke="#149ECA"/>
<path d="M7.28384 22.3863C9.78155 23.7406 14.3638 20.1114 17.5216 14.2846C20.6776 8.45602 21.2124 2.63602 18.7147 1.28345C16.217 -0.0708375 11.6347 3.55831 8.47698 9.38516C5.32098 15.2137 4.78613 21.0337 7.28384 22.3863Z" stroke="#149ECA"/>
<path d="M18.7147 22.3863C16.217 23.7406 11.6347 20.1114 8.47698 14.2846C5.32098 8.45602 4.78613 2.63602 7.28384 1.28345C9.78155 -0.0708375 14.3638 3.55831 17.5216 9.38516C20.6776 15.2137 21.2124 21.0337 18.7147 22.3863Z" stroke="#149ECA"/>
<path d="M11.2861 11.8349C11.2861 12.2895 11.4667 12.7256 11.7882 13.0471C12.1097 13.3686 12.5458 13.5492 13.0004 13.5492C13.4551 13.5492 13.8911 13.3686 14.2126 13.0471C14.5341 12.7256 14.7147 12.2895 14.7147 11.8349C14.7147 11.3802 14.5341 10.9442 14.2126 10.6227C13.8911 10.3012 13.4551 10.1206 13.0004 10.1206C12.5458 10.1206 12.1097 10.3012 11.7882 10.6227C11.4667 10.9442 11.2861 11.3802 11.2861 11.8349Z" stroke="#149ECA"/>
</svg>
