<svg width="34" height="22" viewBox="0 0 34 22" fill="none" xmlns="http://www.w3.org/2000/svg">
<path d="M26.1883 7.55064C25.2242 7.24708 24.7266 7.34942 23.7157 7.23862C22.153 7.06807 21.5302 6.4562 21.2661 4.88184C21.1183 4.0029 21.2928 2.71596 20.9155 1.91926C20.1939 0.399896 18.5053 -0.281518 16.809 0.107446C15.3766 0.436386 14.1849 1.87008 14.1188 3.34185C14.0434 5.02224 14.9993 6.4562 16.6406 6.9512C17.4206 7.18653 18.249 7.30499 19.0635 7.36502C20.5572 7.47422 20.6719 8.30583 21.0757 8.99041C21.3306 9.42195 21.5773 9.84714 21.5773 11.1341C21.5773 12.421 21.329 12.8459 21.076 13.2775C20.6719 13.9605 20.1735 14.4079 18.6798 14.5184C17.8654 14.5787 17.0351 14.6972 16.2572 14.9328C14.6156 15.4291 13.6597 16.8612 13.7351 18.5418C13.8012 20.0136 14.993 21.4473 16.4253 21.7762C18.1216 22.1665 19.8102 21.4838 20.5318 19.9644C20.9107 19.1677 21.1183 18.265 21.2661 17.3863C21.5318 15.8117 22.1545 15.1998 23.7157 15.029C24.7266 14.9185 25.7729 15.029 26.7203 14.4901C27.7211 13.7577 28.6157 12.6577 28.6157 11.1341C28.6157 9.60995 27.6519 8.01232 26.1883 7.55064Z" fill="#F44250"/>
<path d="M10.1538 14.7054C8.18385 14.7054 6.5767 13.0929 6.5767 11.1159C6.5767 9.13905 8.18358 7.52661 10.1535 7.52661C12.1235 7.52661 13.7306 9.13905 13.7306 11.1159C13.7306 13.0911 12.1221 14.7054 10.1535 14.7054H10.1538ZM3.56441 22C1.59712 21.9952 -0.004749 20.3764 1.05791e-05 18.3978C0.00477016 16.4225 1.618 14.8149 3.58953 14.8212C5.55788 14.826 7.16001 16.4447 7.15393 18.4231C7.14917 20.3968 5.53567 22.0047 3.56441 22ZM30.1419 22C28.1688 22.0108 26.5495 20.4095 26.5381 18.4374C26.5273 16.4574 28.1231 14.8323 30.0882 14.8212C32.0614 14.8101 33.6809 16.4114 33.692 18.3835C33.7029 20.3619 32.1071 21.9889 30.1419 22Z" fill="#121212"/>
</svg>
