<svg width="24" height="25" viewBox="0 0 24 25" fill="none" xmlns="http://www.w3.org/2000/svg">
<g clip-path="url(#clip0_771_1025)">
<path d="M22.2192 11.8899L11.7842 22.3249C11.6043 22.5237 11.5078 22.784 11.5145 23.052C11.5212 23.3201 11.6307 23.5752 11.8202 23.7648C12.0098 23.9544 12.265 24.0638 12.533 24.0706C12.801 24.0773 13.0613 23.9807 13.2602 23.8009L23.6952 13.3659C23.875 13.1671 23.9716 12.9067 23.9648 12.6387C23.9581 12.3707 23.8487 12.1155 23.6591 11.9259C23.4695 11.7364 23.2143 11.6269 22.9463 11.6202C22.6783 11.6135 22.418 11.71 22.2192 11.8899ZM20.1322 0.410876L0.305163 20.2379C0.12532 20.4367 0.0287713 20.697 0.0354842 20.965C0.0421972 21.2331 0.151659 21.4882 0.34123 21.6778C0.530801 21.8674 0.78598 21.9768 1.05399 21.9836C1.322 21.9903 1.58234 21.8937 1.78116 21.7139L21.6082 1.88688C21.788 1.68805 21.8846 1.42771 21.8778 1.1597C21.8711 0.891693 21.7617 0.636514 21.5721 0.446943C21.3825 0.257372 21.1273 0.14791 20.8593 0.141197C20.5913 0.134484 20.331 0.231033 20.1322 0.410876Z" fill="black"/>
</g>
<defs>
<clipPath id="clip0_771_1025">
<rect width="24" height="24" fill="white" transform="translate(0 0.105835)"/>
</clipPath>
</defs>
</svg>
