<svg width="24" height="24" viewBox="0 0 24 24" fill="none" xmlns="http://www.w3.org/2000/svg">
<path d="M21.7858 17.2801C18.8312 21.2212 12.5222 19.8912 8.47619 20.0817C8.47619 20.0817 7.75937 20.1224 7.03896 20.241C7.03896 20.241 7.3118 20.1248 7.66004 20.0038C10.501 19.02 11.8437 18.8223 13.5705 17.9344C16.8136 16.2712 20.0422 12.6465 20.6992 8.88152C19.4642 12.5027 15.709 15.6193 12.2901 16.8847C9.95052 17.7499 5.71781 18.591 5.71661 18.591C5.65911 18.5616 5.60206 18.5312 5.54548 18.5C2.66743 17.098 2.58366 10.8551 7.81202 8.84318C10.1049 7.96125 12.296 8.44535 14.7744 7.85461C17.4167 7.22552 20.4778 5.2424 21.7212 2.64936C23.1154 6.79295 24.7907 13.2732 21.7858 17.2801ZM21.8361 1.36722C21.5018 2.16975 21.074 2.92993 20.5616 3.63193C19.4477 2.48238 18.1146 1.56855 16.6413 0.944657C15.168 0.320769 13.5845 -0.000469302 11.9849 5.1459e-07C5.37555 5.1459e-07 1.30953e-06 5.38259 1.30953e-06 11.9994C-0.000770443 13.6499 0.339582 15.2827 0.999649 16.7951C1.65972 18.3076 2.62521 19.6668 3.83541 20.7875L4.09868 21.0199C3.90678 20.8275 3.79908 20.5666 3.79925 20.2946C3.79942 20.0226 3.90744 19.7619 4.09958 19.5696C4.29171 19.3774 4.55222 19.2695 4.82383 19.2695C5.09544 19.2696 5.3559 19.3776 5.54796 19.5699C5.74001 19.7622 5.84793 20.0231 5.84799 20.295C5.84804 20.567 5.74023 20.8278 5.54826 21.0202C5.35628 21.2126 5.09586 21.3208 4.82425 21.3209C4.55265 21.3211 4.29209 21.2133 4.09988 21.0211L4.27818 21.1793C6.43272 23.0032 9.16355 24.0027 11.9849 24C18.3011 24 23.4887 19.0775 23.9327 12.8657C24.2606 9.82335 23.3631 5.96016 21.8361 1.36722Z" fill="#6DB33F"/>
</svg>
