<svg width="16" height="20" viewBox="0 0 16 20" fill="none" xmlns="http://www.w3.org/2000/svg">
<path d="M13.6768 10.1424C11.9116 12.4768 8.11163 11.6987 5.65766 11.788C5.65766 11.788 5.23906 11.8183 4.79019 11.8786C4.79019 11.8786 4.97009 11.8183 5.14851 11.7289C6.85436 11.1607 7.66275 11.0402 8.70983 10.502C10.6547 9.51514 12.5995 7.3907 12.9878 5.17572C12.2397 7.30016 9.99589 9.12534 7.93202 9.87347C6.52483 10.3826 3.9818 10.8615 3.9818 10.8615L3.89273 10.8012C2.15661 9.99281 2.09753 6.31334 5.26905 5.14544C6.64566 4.63749 7.9617 4.90645 9.45795 4.57722C11.0433 4.21889 12.8987 3.05128 13.6469 1.52505C14.4849 4.009 15.5026 7.8093 13.6768 10.1424ZM13.7068 0.807204C13.5011 1.27579 13.24 1.71802 12.929 2.12444C11.6127 0.807203 9.78719 0 7.75211 0C3.77309 0 0.541016 3.17152 0.541016 7.03089C0.541016 9.06508 1.43877 10.8903 2.84536 12.1775L2.99498 12.3271C2.72602 12.1173 2.69573 11.7289 2.90473 11.4888C3.11463 11.2198 3.50294 11.1895 3.77309 11.3997C4.04236 11.6093 4.07234 11.9979 3.86245 12.2369C3.65256 12.507 3.26395 12.5358 2.99498 12.3271L3.11462 12.4165C4.4256 13.4811 6.06301 14.0622 7.75181 14.0621C11.5521 14.0621 14.6637 11.1607 14.9338 7.54003C15.1728 5.77392 14.6346 3.50016 13.7068 0.807204Z" fill="#5FB832"/>
<path d="M15.5328 17.9709C15.4573 18.2252 15.3381 18.4378 15.1752 18.6086C15.0123 18.7795 14.8196 18.9066 14.5971 18.9901C14.3745 19.0735 14.1302 19.1152 13.864 19.1152C13.4746 19.1152 13.1369 19.0338 12.8508 18.8709C12.5687 18.708 12.3502 18.4755 12.1952 18.1735C12.0442 17.8716 11.9688 17.51 11.9688 17.0889C11.9688 16.6677 12.0442 16.3061 12.1952 16.0042C12.3502 15.7022 12.5687 15.4698 12.8508 15.3069C13.1369 15.144 13.4706 15.0625 13.8521 15.0625C14.1222 15.0625 14.3666 15.1002 14.5851 15.1757C14.8037 15.2473 14.9884 15.3585 15.1394 15.5095C15.2944 15.6605 15.4076 15.8512 15.4791 16.0816L14.7341 16.3975C14.6666 16.1591 14.5633 15.9903 14.4242 15.8909C14.2852 15.7876 14.1064 15.736 13.8878 15.736C13.6733 15.736 13.4845 15.7876 13.3216 15.8909C13.1627 15.9942 13.0395 16.1472 12.9521 16.3498C12.8647 16.5485 12.821 16.7948 12.821 17.0889C12.821 17.3789 12.8607 17.6252 12.9402 17.8279C13.0236 18.0305 13.1448 18.1835 13.3038 18.2868C13.4627 18.3901 13.6574 18.4417 13.8878 18.4417C14.1024 18.4417 14.2871 18.3841 14.4421 18.2689C14.601 18.1537 14.7123 17.9789 14.7758 17.7444L15.5328 17.9709Z" fill="#5FB832"/>
<path d="M8.16016 19.0546V15.1211H9.88256C10.3593 15.1211 10.711 15.2145 10.9375 15.4012C11.1639 15.5879 11.2772 15.8522 11.2772 16.1939C11.2772 16.4045 11.2136 16.5912 11.0865 16.7541C10.9593 16.917 10.7726 17.0203 10.5262 17.064V17.07C10.8004 17.1097 11.011 17.213 11.158 17.3799C11.305 17.5468 11.3785 17.7454 11.3785 17.9759C11.3785 18.3136 11.2553 18.5778 11.009 18.7685C10.7666 18.9592 10.411 19.0546 9.94216 19.0546H8.16016ZM8.95878 18.4348H9.87064C10.0931 18.4348 10.258 18.3891 10.3653 18.2977C10.4726 18.2063 10.5262 18.0792 10.5262 17.9163C10.5262 17.7494 10.4726 17.6223 10.3653 17.5348C10.258 17.4474 10.0931 17.4037 9.87064 17.4037H8.95878V18.4348ZM8.95878 16.772H9.77528C10.2084 16.772 10.4249 16.6031 10.4249 16.2654C10.4249 15.9277 10.2084 15.7588 9.77528 15.7588H8.95878V16.772Z" fill="#5FB832"/>
<path d="M5.39672 15.1211C6.01257 15.1211 6.48936 15.2919 6.82709 15.6336C7.16481 15.9714 7.33368 16.4561 7.33368 17.0878C7.33368 17.7156 7.16481 18.2004 6.82709 18.5421C6.48936 18.8838 6.01257 19.0546 5.39672 19.0546H3.87695V15.1211H5.39672ZM5.355 18.399C5.72849 18.399 6.0086 18.2878 6.19534 18.0653C6.38606 17.8388 6.48141 17.513 6.48141 17.0878C6.48141 16.6627 6.38606 16.3389 6.19534 16.1164C6.0086 15.8899 5.72849 15.7767 5.355 15.7767H4.69941V18.399H5.355Z" fill="#5FB832"/>
<path d="M2.9142 15.1211V17.6064C2.9142 18.0792 2.7811 18.4487 2.51489 18.7149C2.24868 18.9811 1.87122 19.1142 1.38251 19.1142C1.03287 19.1142 0.748781 19.0506 0.530253 18.9235C0.311724 18.7963 0.160741 18.6175 0.077303 18.3871C-0.00613516 18.1567 -0.0220281 17.8924 0.029624 17.5944L0.828246 17.4514C0.780567 17.801 0.80242 18.0533 0.893805 18.2083C0.985189 18.3633 1.15405 18.4407 1.40039 18.4407C1.65865 18.4407 1.83745 18.3613 1.93678 18.2023C2.04009 18.0434 2.09174 17.807 2.09174 17.4931V15.1211H2.9142Z" fill="#5FB832"/>
</svg>
