<svg width="20" height="24" viewBox="0 0 20 24" fill="none" xmlns="http://www.w3.org/2000/svg">
<path d="M16.1498 12.8452C14.164 15.5297 9.88901 14.6349 7.12829 14.7376C7.12829 14.7376 6.65737 14.7724 6.15239 14.8418C6.15239 14.8418 6.35478 14.7724 6.5555 14.6696C8.47458 14.0162 9.38402 13.8776 10.562 13.2587C12.75 12.1238 14.9379 9.6807 15.3747 7.13347C14.5331 9.57658 12.0088 11.6755 9.68695 12.5359C8.10386 13.1214 5.24295 13.6721 5.24295 13.6721L5.14275 13.6028C3.18961 12.6731 3.12315 8.44174 6.69111 7.09865C8.23979 6.51451 9.72034 6.82381 11.4036 6.4452C13.1871 6.03312 15.2745 4.69037 16.1162 2.9352C17.0589 5.79175 18.2039 10.1621 16.1498 12.8452ZM16.1836 2.10968C15.9522 2.64855 15.6584 3.15712 15.3086 3.6245C13.8277 2.10968 11.774 1.1814 9.48455 1.1814C5.00815 1.1814 1.37207 4.82864 1.37207 9.26692C1.37207 11.6062 2.38204 13.7052 3.96446 15.1855L4.13278 15.3576C3.8302 15.1163 3.79612 14.6696 4.03125 14.3935C4.26739 14.0842 4.70423 14.0493 5.00815 14.2911C5.31108 14.5321 5.34481 14.979 5.10868 15.2538C4.87256 15.5644 4.43537 15.5976 4.13278 15.3576L4.26737 15.4604C5.74223 16.6847 7.58431 17.3529 9.48421 17.3528C13.7595 17.3528 17.2601 14.0162 17.564 9.85243C17.8328 7.8214 17.2274 5.20658 16.1836 2.10968Z" fill="#5FB832"/>
<path d="M15.2153 22.7567V18.3528H16.244V20.2269C16.3327 20.0208 16.4598 19.8661 16.6252 19.763C16.7906 19.6558 16.9822 19.6022 17.2 19.6022C17.4098 19.6022 17.5913 19.6435 17.7446 19.7259C17.9019 19.8084 18.0249 19.93 18.1137 20.0909C18.2024 20.2517 18.2468 20.4537 18.2468 20.697V22.7567H17.2182V20.9877C17.2182 20.7651 17.1778 20.6125 17.0971 20.53C17.0205 20.4434 16.9176 20.4001 16.7886 20.4001C16.6917 20.4001 16.601 20.4249 16.5163 20.4743C16.4316 20.5238 16.365 20.6022 16.3166 20.7094C16.2682 20.8166 16.244 20.9568 16.244 21.13V22.7567H15.2153Z" fill="#5FB832"/>
<path d="M13.8889 18.6807V21.6558C13.8889 21.8042 13.9231 21.9115 13.9917 21.9774C14.0643 22.0393 14.1632 22.0702 14.2882 22.0702C14.385 22.0702 14.4677 22.0599 14.5363 22.0393C14.6089 22.0145 14.6735 21.9795 14.7299 21.9341L14.8388 22.5836C14.738 22.6578 14.6109 22.7155 14.4576 22.7568C14.3044 22.798 14.147 22.8186 13.9857 22.8186C13.7557 22.8186 13.5561 22.7856 13.3866 22.7197C13.2213 22.6537 13.0922 22.5485 12.9994 22.4042C12.9106 22.2599 12.8643 22.0682 12.8602 21.829V18.9714L13.8889 18.6807ZM14.7904 19.6641V20.4126H12.3398V19.6641H14.7904Z" fill="#5FB832"/>
<path d="M10.0217 22.8186C9.81597 22.8186 9.63445 22.7835 9.47713 22.7134C9.32384 22.6392 9.20282 22.5217 9.11408 22.3609C9.02533 22.2 8.98096 21.9897 8.98096 21.73V19.6641H10.0096V21.4825C10.0096 21.6805 10.0479 21.8186 10.1246 21.897C10.2012 21.9753 10.3101 22.0145 10.4513 22.0145C10.5239 22.0145 10.5925 22.0021 10.657 21.9774C10.7216 21.9485 10.7781 21.9073 10.8265 21.8537C10.8749 21.7959 10.9112 21.7238 10.9354 21.6372C10.9636 21.5465 10.9777 21.4413 10.9777 21.3217V19.6641H12.0064V22.7567H11.0867L11.0564 22.1753C10.9596 22.3938 10.8244 22.5567 10.651 22.6639C10.4775 22.767 10.2678 22.8186 10.0217 22.8186Z" fill="#5FB832"/>
<path d="M8.74577 22.7567H7.67477L7.39643 21.8351H6.02894L5.74455 22.7567H4.69775L6.10155 18.6744H7.34803L8.74577 22.7567ZM6.22257 21.1115H7.2028L6.71269 19.46L6.22257 21.1115Z" fill="#5FB832"/>
<path d="M2.71389 18.6125C3.11728 18.6125 3.4642 18.6971 3.75464 18.8661C4.04911 19.0311 4.27501 19.2703 4.43233 19.5836C4.58966 19.897 4.66832 20.2743 4.66832 20.7156C4.66832 21.1568 4.58966 21.5341 4.43233 21.8475C4.27501 22.1609 4.04911 22.4021 3.75464 22.5711C3.4642 22.7361 3.11728 22.8186 2.71389 22.8186C2.3105 22.8186 1.96157 22.7361 1.6671 22.5711C1.37262 22.4021 1.14672 22.1609 0.989401 21.8475C0.832079 21.5341 0.753418 21.1568 0.753418 20.7156C0.753418 20.2743 0.832079 19.897 0.989401 19.5836C1.14672 19.2703 1.37262 19.0311 1.6671 18.8661C1.96157 18.6971 2.3105 18.6125 2.71389 18.6125ZM2.71389 19.4476C2.52027 19.4476 2.35689 19.495 2.22377 19.5898C2.09066 19.6847 1.98981 19.8269 1.92123 20.0166C1.85266 20.2022 1.81837 20.4352 1.81837 20.7156C1.81837 20.9918 1.85266 21.2248 1.92123 21.4145C1.98981 21.6042 2.09066 21.7464 2.22377 21.8413C2.35689 21.9361 2.52027 21.9835 2.71389 21.9835C2.90752 21.9835 3.06888 21.9361 3.19796 21.8413C3.33108 21.7464 3.43193 21.6042 3.5005 21.4145C3.56908 21.2248 3.60337 20.9918 3.60337 20.7156C3.60337 20.4352 3.56908 20.2022 3.5005 20.0166C3.43193 19.8269 3.33108 19.6847 3.19796 19.5898C3.06888 19.495 2.90752 19.4476 2.71389 19.4476Z" fill="#5FB832"/>
</svg>
