<svg width="24" height="33" viewBox="0 0 24 33" fill="none" xmlns="http://www.w3.org/2000/svg">
<path d="M24 2.84075L11.9902 0L0 2.84075V11.9323H6.36601C6.31008 12.3678 6.31008 12.8085 6.36601 13.244H0V17.5147C0 27.3171 11.9916 33 11.9916 33C11.9916 33 23.9804 27.3171 23.9804 17.5202V13.2481H17.6312C17.6901 12.8128 17.6901 12.3717 17.6312 11.9364H23.9986L24 2.84075ZM12 16.8603H11.9916C10.8401 16.8592 9.73615 16.408 8.92249 15.606C8.10883 14.804 7.65206 13.7167 7.65262 12.5833C7.65318 11.4499 8.11101 10.3631 8.92545 9.56185C9.7399 8.76061 10.8443 8.3105 11.9958 8.3105C13.1473 8.3105 14.2517 8.76061 15.0662 9.56185C15.8806 10.3631 16.3384 11.4499 16.339 12.5833C16.3396 13.7167 15.8828 14.804 15.0691 15.606C14.2555 16.408 13.1515 16.8592 12 16.8603ZM11.9916 10.5641C11.7389 10.5628 11.4931 10.6454 11.294 10.7985C11.0949 10.9517 10.9541 11.1665 10.8943 11.4081C10.8346 11.6498 10.8593 11.9043 10.9647 12.1304C11.07 12.3565 11.2497 12.541 11.4747 12.6541V12.9401L11.8072 13.266V13.4846L12.0293 13.7032V13.9219L11.8338 14.1144L12.0433 14.4526V14.6713L11.8198 14.9311L12.1313 15.2364L12.475 14.8981V12.6748C12.7093 12.5692 12.8996 12.3875 13.014 12.1603C13.1284 11.933 13.1599 11.6739 13.1033 11.4264C13.0466 11.179 12.9052 10.9582 12.7028 10.8012C12.5004 10.6442 12.2493 10.5605 11.9916 10.5641ZM11.9916 11.7136C11.9089 11.7139 11.8281 11.69 11.7592 11.645C11.6903 11.6 11.6366 11.5359 11.6047 11.4608C11.5729 11.3857 11.5644 11.303 11.5804 11.2231C11.5963 11.1433 11.636 11.0699 11.6944 11.0123C11.7527 10.9546 11.8272 10.9154 11.9082 10.8994C11.9893 10.8834 12.0733 10.8915 12.1497 10.9225C12.2261 10.9536 12.2915 11.0063 12.3374 11.0739C12.3834 11.1416 12.4079 11.2211 12.4079 11.3025C12.4081 11.3565 12.3975 11.41 12.3767 11.4599C12.3558 11.5099 12.3252 11.5553 12.2866 11.5936C12.2479 11.6319 12.202 11.6624 12.1514 11.6832C12.1008 11.704 12.0465 11.7148 11.9916 11.715V11.7136Z" fill="#6CB33E"/>
</svg>
