<svg width="24" height="25" viewBox="0 0 24 25" fill="none" xmlns="http://www.w3.org/2000/svg">
<g clip-path="url(#clip0_771_1023)">
<path d="M12.001 4.90625C8.80091 4.90625 6.8016 6.50563 6.00098 9.70569C7.2006 8.10613 8.60104 7.50631 10.2006 7.90625C11.1139 8.13388 11.7666 8.79613 12.4894 9.53C13.6658 10.7238 15.0274 12.1059 18.001 12.1059C21.2009 12.1059 23.2004 10.5063 24.001 7.3055C22.8012 8.906 21.4009 9.50581 19.8012 9.10588C18.888 8.87806 18.2361 8.216 17.5124 7.48213C16.3367 6.28831 14.9755 4.90625 12.001 4.90625ZM6.00098 12.1059C2.8011 12.1059 0.801602 13.7054 0.000976562 16.9062C1.2006 15.3057 2.60085 14.7059 4.2006 15.1059C5.11391 15.3337 5.7666 15.9958 6.48941 16.7296C7.66579 17.9234 9.02741 19.3055 12.001 19.3055C15.2009 19.3055 17.2004 17.7061 18.001 14.5061C16.8012 16.1056 15.4009 16.7054 13.8012 16.3055C12.888 16.0779 12.2361 15.4156 11.5124 14.6818C10.3367 13.4879 8.97548 12.1059 6.00098 12.1059Z" fill="#38BDF8"/>
</g>
<defs>
<clipPath id="clip0_771_1023">
<rect width="24" height="24" fill="white" transform="translate(0 0.105835)"/>
</clipPath>
</defs>
</svg>
