<svg width="24" height="24" viewBox="0 0 24 24" fill="none" xmlns="http://www.w3.org/2000/svg">
<path d="M18.0331 5.66216L19.2662 10.6601L22.9811 7.08672L18.0331 5.66216Z" fill="white"/>
<path d="M17.5101 5.78194L13.8499 9.30992L18.7258 10.7098L17.5101 5.78194Z" fill="white"/>
<path d="M12.2521 3.99776L13.4696 8.93144L17.1309 5.40235L12.2521 3.99776Z" fill="white"/>
<path d="M11.7321 4.12952L8.0884 7.63725L12.9414 9.03033L11.7321 4.12952Z" fill="white"/>
<path d="M6.49754 2.34097L7.7103 7.25636L11.3616 3.74139L6.49754 2.34097Z" fill="white"/>
<path d="M5.97403 2.4588L2.31383 5.98687L7.18976 7.38655L5.97403 2.4588Z" fill="white"/>
<path d="M0.640143 0.654656L1.87723 5.66272L5.59342 2.0807L0.640143 0.654656Z" fill="white"/>
<path d="M2.07854 6.47742L3.31581 11.487L7.03999 7.9017L2.07854 6.47742Z" fill="white"/>
<path d="M7.41409 8.2862L3.68723 11.8741L8.65221 13.3047L7.41409 8.2862Z" fill="white"/>
<path fill-rule="evenodd" clipRule="evenodd" d="M0.00808808 0.332918C-0.0414029 0.132539 0.144397 -0.0463895 0.342733 0.0108083L6.12101 1.67437C6.17288 1.67425 6.2237 1.68891 6.26754 1.71662L17.6635 4.99751C17.7106 4.99844 17.7572 5.01191 17.7977 5.03614L23.5764 6.69989C23.7749 6.75709 23.837 7.00779 23.6881 7.15098L6.25017 23.9249C6.10133 24.0681 5.85332 23.9964 5.80383 23.7958L2.91125 12.0859C2.90737 12.0738 2.90433 12.0615 2.90215 12.0491L0.00808808 0.332918ZM6.21313 23.216L4.95774 18.1339L9.99357 19.5794L6.21313 23.216ZM5.19164 17.6428L8.85184 14.1148L10.0676 19.0426L5.19164 17.6428ZM10.6071 18.9893L9.39513 14.0771L14.2572 15.4782L10.6071 18.9893ZM4.75607 17.3176L3.53885 12.3896L8.4119 13.7938L4.75607 17.3176ZM9.44926 13.5343L13.1681 9.94958L14.4051 14.9624L9.44926 13.5343ZM14.9262 14.8347L13.6892 9.8221L18.6553 11.2477L14.9262 14.8347ZM3.68723 11.8741L7.41409 8.2862L8.65221 13.3047L3.68723 11.8741ZM9.14897 13.0787L7.93315 8.15092L12.8092 9.55059L9.14897 13.0787ZM3.31581 11.487L2.07854 6.47742L7.03999 7.9017L3.31581 11.487ZM13.8499 9.30992L17.5101 5.78194L18.7258 10.7098L13.8499 9.30992ZM19.2662 10.6601L18.0331 5.66216L22.9811 7.08672L19.2662 10.6601ZM8.0884 7.63725L11.7321 4.12952L12.9414 9.03033L8.0884 7.63725ZM13.4696 8.93144L12.2521 3.99776L17.1309 5.40235L13.4696 8.93144ZM2.31383 5.98687L5.97403 2.4588L7.18976 7.38655L2.31383 5.98687ZM7.7103 7.25636L6.49754 2.34097L11.3616 3.74139L7.7103 7.25636ZM1.87723 5.66272L0.640143 0.654656L5.59342 2.0807L1.87723 5.66272Z" fill="black"/>
<path d="M7.93315 8.15092L9.14897 13.0787L12.8092 9.55059L7.93315 8.15092Z" fill="white"/>
<path d="M13.6892 9.8221L14.9262 14.8347L18.6553 11.2477L13.6892 9.8221Z" fill="white"/>
<path d="M13.1681 9.94958L9.44926 13.5343L14.4051 14.9624L13.1681 9.94958Z" fill="white"/>
<path d="M9.39513 14.0771L10.6071 18.9893L14.2572 15.4782L9.39513 14.0771Z" fill="white"/>
<path d="M3.53885 12.3896L4.75607 17.3176L8.4119 13.7938L3.53885 12.3896Z" fill="white"/>
<path d="M8.85184 14.1148L5.19164 17.6428L10.0676 19.0426L8.85184 14.1148Z" fill="white"/>
<path d="M4.95774 18.1339L6.21313 23.216L9.99357 19.5794L4.95774 18.1339Z" fill="white"/>
</svg>
