<svg width="25" height="25" viewBox="0 0 25 25" fill="none" xmlns="http://www.w3.org/2000/svg">
<g clip-path="url(#clip0_770_1001)">
<path d="M19.271 0.105835H6.521C3.41439 0.105835 0.895996 2.62423 0.895996 5.73083V18.4808C0.895996 21.5874 3.41439 24.1058 6.521 24.1058H19.271C22.3776 24.1058 24.896 21.5874 24.896 18.4808V5.73083C24.896 2.62423 22.3776 0.105835 19.271 0.105835Z" fill="#007ACC"/>
<path d="M6.20339 12.1855L6.1958 13.1683H9.31955V22.0445H11.5292V13.1683H14.653V12.2045C14.653 11.6711 14.6416 11.2255 14.6264 11.214C14.6149 11.1988 12.714 11.1911 10.4092 11.195L6.21493 11.2064L6.20339 12.1855ZM20.2618 11.1785C20.8712 11.3309 21.336 11.6014 21.7627 12.0432C21.9837 12.2795 22.3112 12.71 22.338 12.8128C22.3455 12.8433 21.3017 13.5443 20.6694 13.9366C20.6465 13.9519 20.555 13.8528 20.4522 13.7005C20.1436 13.2509 19.8198 13.0566 19.3246 13.0224C18.597 12.9728 18.1284 13.3538 18.1322 13.99C18.1322 14.1766 18.1589 14.287 18.2351 14.4395C18.395 14.7709 18.6922 14.969 19.6256 15.3728C21.3436 16.1119 22.0788 16.5995 22.536 17.2928C23.0465 18.0661 23.1608 19.3004 22.8141 20.2185C22.4332 21.2166 21.4884 21.8947 20.1588 22.1195C19.7475 22.1919 18.7722 22.1804 18.3303 22.1005C17.3665 21.929 16.4522 21.4528 15.8884 20.8281C15.6675 20.5842 15.237 19.948 15.2637 19.9023C15.275 19.8871 15.3741 19.8262 15.4846 19.7614C15.5912 19.7005 15.9951 19.468 16.376 19.2471L17.0655 18.847L17.2103 19.0604C17.4122 19.369 17.8541 19.7919 18.1208 19.9328C18.8865 20.3366 19.938 20.2795 20.456 19.8147C20.677 19.6128 20.7684 19.4033 20.7684 19.0947C20.7684 18.8166 20.7341 18.6947 20.5893 18.4852C20.4027 18.2185 20.0218 17.9937 18.9398 17.5252C17.7017 16.9918 17.1684 16.6604 16.6808 16.1347C16.3989 15.83 16.1322 15.3423 16.0217 14.9347C15.9303 14.5957 15.9075 13.7461 15.9798 13.4033C16.235 12.2071 17.1379 11.3728 18.4408 11.1251C18.8637 11.0452 19.8465 11.0756 20.2618 11.1785Z" fill="white"/>
</g>
<defs>
<clipPath id="clip0_770_1001">
<rect width="24" height="24" fill="white" transform="translate(0.895996 0.105835)"/>
</clipPath>
</defs>
</svg>
