<svg width="32" height="33" viewBox="0 0 32 33" fill="none" xmlns="http://www.w3.org/2000/svg">
<g clip-path="url(#clip0_774_1386)" filter="url(#filter0_d_774_1386)">
<path d="M22.375 0.106445H9.625C6.5184 0.106445 4 2.62484 4 5.73145V18.4814C4 21.588 6.5184 24.1064 9.625 24.1064H22.375C25.4816 24.1064 28 21.588 28 18.4814V5.73145C28 2.62484 25.4816 0.106445 22.375 0.106445Z" fill="#242938"/>
<path d="M20.6959 8.76134L16.2134 15.2424C16.1778 15.2938 16.1303 15.3357 16.0749 15.3647C16.0195 15.3937 15.9579 15.4087 15.8954 15.4087C15.8329 15.4086 15.7714 15.3933 15.7161 15.3642C15.6608 15.335 15.6134 15.2929 15.5779 15.2414C15.5309 15.1726 15.5077 15.0902 15.5118 15.0069L15.6912 11.4286L12.7951 10.8145C12.7333 10.8014 12.6757 10.7733 12.6274 10.7327C12.5791 10.6921 12.5415 10.6402 12.5179 10.5816C12.4946 10.523 12.486 10.4596 12.4932 10.3969C12.5003 10.3343 12.5228 10.2744 12.5587 10.2225L17.0413 3.7415C17.089 3.67271 17.1577 3.62126 17.2372 3.59488C17.3166 3.56851 17.4025 3.56864 17.4818 3.59525C17.5611 3.62182 17.6295 3.67353 17.6767 3.74253C17.7238 3.81139 17.747 3.89378 17.7428 3.97709L17.5634 7.55534L20.4595 8.1694C20.5214 8.18251 20.5791 8.21065 20.6275 8.25134C20.7004 8.31252 20.7479 8.39874 20.7605 8.49309C20.7732 8.58745 20.7501 8.68312 20.6959 8.76134Z" fill="#FCC72B"/>
<path d="M16.0018 20.68C15.8826 20.6801 15.7646 20.6567 15.6544 20.6112C15.5443 20.5655 15.4443 20.4986 15.36 20.4142L11.1246 16.1791C10.9982 16.052 10.9122 15.8904 10.8775 15.7146C10.8428 15.5388 10.861 15.3566 10.9296 15.1911C10.9983 15.0256 11.1145 14.8841 11.2635 14.7845C11.4124 14.6849 11.5876 14.6316 11.7668 14.6314C12.0071 14.6311 12.2377 14.7261 12.408 14.8955L16.0018 18.4889L23.8309 10.6602C24.0016 10.4923 24.2317 10.3987 24.4711 10.3997C24.7104 10.4006 24.9398 10.4961 25.1091 10.6653C25.2784 10.8347 25.374 11.064 25.3751 11.3035C25.3759 11.5429 25.2822 11.7729 25.1143 11.9436L16.6435 20.4142C16.5594 20.4987 16.4593 20.5657 16.3492 20.6113C16.2391 20.6569 16.121 20.6802 16.0018 20.68Z" fill="#729B1B"/>
<path d="M15.998 20.68C16.1172 20.6801 16.2353 20.6567 16.3455 20.6112C16.4556 20.5655 16.5556 20.4986 16.6398 20.4142L20.8753 16.1791C20.9596 16.0948 21.0264 15.9947 21.072 15.8846C21.1176 15.7745 21.1411 15.6565 21.1411 15.5373C21.1411 15.4181 21.1176 15.3001 21.072 15.19C21.0264 15.0799 20.9596 14.9798 20.8753 14.8955C20.791 14.8112 20.6909 14.7444 20.5808 14.6988C20.4707 14.6532 20.3527 14.6297 20.2335 14.6297C20.1143 14.6297 19.9963 14.6532 19.8862 14.6988C19.7761 14.7444 19.676 14.8112 19.5917 14.8955L15.998 18.4889L8.16896 10.6602C7.99827 10.4923 7.76819 10.3987 7.52881 10.3997C7.28942 10.4006 7.0601 10.4961 6.89077 10.6653C6.72151 10.8347 6.62599 11.064 6.62501 11.3034C6.62402 11.5428 6.71766 11.7729 6.88552 11.9436L15.3564 20.4142C15.4406 20.4986 15.5406 20.5655 15.6507 20.6111C15.7608 20.6567 15.8788 20.6801 15.998 20.68Z" fill="#729B1B" fill-opacity="0.5"/>
</g>
<defs>
<filter id="filter0_d_774_1386" x="0" y="0.106445" width="32" height="32" filterUnits="userSpaceOnUse" color-interpolation-filters="sRGB">
<feFlood flood-opacity="0" result="BackgroundImageFix"/>
<feColorMatrix in="SourceAlpha" type="matrix" values="0 0 0 0 0 0 0 0 0 0 0 0 0 0 0 0 0 0 127 0" result="hardAlpha"/>
<feOffset dy="4"/>
<feGaussianBlur stdDeviation="2"/>
<feComposite in2="hardAlpha" operator="out"/>
<feColorMatrix type="matrix" values="0 0 0 0 0 0 0 0 0 0 0 0 0 0 0 0 0 0 0.25 0"/>
<feBlend mode="normal" in2="BackgroundImageFix" result="effect1_dropShadow_774_1386"/>
<feBlend mode="normal" in="SourceGraphic" in2="effect1_dropShadow_774_1386" result="shape"/>
</filter>
<clipPath id="clip0_774_1386">
<rect width="24" height="24" fill="white" transform="translate(4 0.106445)"/>
</clipPath>
</defs>
</svg>
