<svg width="24" height="24" viewBox="0 0 24 24" fill="none" xmlns="http://www.w3.org/2000/svg">
<path d="M22.413 4.60948L12.5565 22.2345C12.5102 22.3174 12.4427 22.3865 12.361 22.4347C12.2792 22.4829 12.186 22.5085 12.0911 22.5089C11.9962 22.5093 11.9028 22.4844 11.8207 22.4369C11.7385 22.3893 11.6705 22.3207 11.6235 22.2382L1.57201 4.61098C1.52147 4.52253 1.49721 4.42151 1.50208 4.31976C1.50694 4.21801 1.54072 4.11976 1.59946 4.03653C1.65819 3.95331 1.73945 3.88856 1.83369 3.8499C1.92793 3.81123 2.03124 3.80024 2.13151 3.81823L11.9985 5.58223C12.0613 5.59352 12.1255 5.59352 12.1883 5.58223L21.849 3.82123C21.9489 3.80298 22.0519 3.8135 22.146 3.85156C22.2401 3.88962 22.3215 3.95366 22.3806 4.0362C22.4397 4.11875 22.4742 4.2164 22.4799 4.31776C22.4856 4.41913 22.4624 4.52079 22.413 4.60948Z" fill="url(#paint0_linear_770_997)"/>
<path d="M16.6982 1.50522L9.40521 2.93397C9.34683 2.94537 9.2939 2.97589 9.25479 3.0207C9.21568 3.06552 9.1926 3.12209 9.18921 3.18147L8.74071 10.7595C8.73823 10.801 8.74549 10.8426 8.7619 10.8809C8.77831 10.9192 8.80342 10.9531 8.83524 10.98C8.86706 11.0068 8.90471 11.0259 8.9452 11.0357C8.98568 11.0454 9.02789 11.0456 9.06846 11.0362L11.0987 10.5675C11.1424 10.5574 11.188 10.5584 11.2312 10.5705C11.2745 10.5827 11.314 10.6054 11.3461 10.6368C11.3782 10.6682 11.4019 10.7071 11.415 10.75C11.4282 10.793 11.4303 10.8385 11.4212 10.8825L10.8182 13.8367C10.8089 13.8822 10.8116 13.9293 10.826 13.9735C10.8404 14.0176 10.866 14.0572 10.9004 14.0885C10.9347 14.1197 10.9766 14.1415 11.0219 14.1516C11.0671 14.1618 11.1143 14.16 11.1587 14.1465L12.4127 13.7655C12.4572 13.7519 12.5044 13.7501 12.5498 13.7603C12.5952 13.7705 12.6371 13.7923 12.6715 13.8237C12.7058 13.855 12.7314 13.8947 12.7458 13.939C12.7601 13.9832 12.7627 14.0304 12.7532 14.076L11.794 18.7162C11.734 19.0065 12.1202 19.1647 12.2815 18.9165L12.3887 18.75L18.3325 6.88872C18.3548 6.84403 18.3641 6.79399 18.3595 6.74425C18.3549 6.69452 18.3364 6.64707 18.3062 6.60728C18.276 6.56749 18.2353 6.53693 18.1886 6.51907C18.142 6.50122 18.0913 6.49676 18.0422 6.50622L15.952 6.90897C15.907 6.91758 15.8605 6.91451 15.817 6.90004C15.7736 6.88556 15.7346 6.86018 15.7037 6.82632C15.6729 6.79246 15.6512 6.75125 15.6408 6.70663C15.6305 6.66201 15.6317 6.61547 15.6445 6.57147L17.008 1.84197C17.0208 1.79783 17.0221 1.75112 17.0116 1.70635C17.0012 1.66157 16.9794 1.62024 16.9484 1.58633C16.9173 1.55242 16.8781 1.52708 16.8344 1.51274C16.7907 1.49841 16.7441 1.49556 16.699 1.50447" fill="url(#paint1_linear_770_997)"/>
<defs>
<linearGradient id="paint0_linear_770_997" x1="1.3264" y1="3.18812" x2="13.5928" y2="19.8468" gradientUnits="userSpaceOnUse">
<stop stop-color="#41D1FF"/>
<stop offset="1" stop-color="#BD34FE"/>
</linearGradient>
<linearGradient id="paint1_linear_770_997" x1="11.4317" y1="1.89281" x2="13.6506" y2="17.1144" gradientUnits="userSpaceOnUse">
<stop stop-color="#FFEA83"/>
<stop offset="0.083" stop-color="#FFDD35"/>
<stop offset="1" stop-color="#FFA800"/>
</linearGradient>
</defs>
</svg>
