<svg width="25" height="25" viewBox="0 0 25 25" fill="none" xmlns="http://www.w3.org/2000/svg">
<g clip-path="url(#clip0_771_1259)">
<path d="M12.457 0.105835C10.0837 0.105835 7.76358 0.809623 5.79019 2.1282C3.8168 3.44678 2.27873 5.32092 1.37048 7.51363C0.462231 9.70635 0.224591 12.1191 0.687613 14.4469C1.15064 16.7747 2.29353 18.9129 3.97176 20.5911C5.64999 22.2693 7.78818 23.4122 10.116 23.8753C12.4437 24.3383 14.8565 24.1006 17.0492 23.1924C19.242 22.2841 21.1161 20.7461 22.4347 18.7727C23.7532 16.7993 24.457 14.4792 24.457 12.1058C24.457 8.92324 23.1928 5.87099 20.9423 3.62055C18.6919 1.37012 15.6396 0.105835 12.457 0.105835ZM13.3355 4.22108C13.4835 4.23782 13.6255 4.28935 13.7498 4.37146C13.8757 4.45471 14.0363 4.56496 14.5047 5.53284C14.6821 5.46929 14.8749 5.46254 15.0563 5.51352C15.1554 5.5405 15.2477 5.58785 15.3274 5.65256C15.4071 5.71726 15.4724 5.79788 15.5191 5.88927C15.9972 6.80671 16.0608 8.4419 15.8517 9.49302C15.6663 10.4236 15.2806 11.3027 14.7215 12.0693C15.2216 12.5895 15.6027 13.2122 15.8384 13.8942C16.0687 14.5395 16.1617 15.2258 16.1114 15.9091C16.3195 15.8095 16.5211 15.697 16.7152 15.5723C17.3073 15.2065 18.2015 14.6547 19.268 14.6412C19.5915 14.6196 19.9112 14.7215 20.1625 14.9262C20.4139 15.131 20.5784 15.4235 20.6227 15.7446C20.6631 16.0486 20.5884 16.3566 20.4134 16.6083C20.2383 16.86 19.9755 17.0372 19.6765 17.1051C19.0282 17.2619 18.7261 17.3838 17.8552 17.9489C16.9149 18.5392 15.9028 19.0062 14.8435 19.3386C14.6388 19.5067 14.3974 19.6241 14.1389 19.6814C13.4015 19.8614 10.8717 19.9968 10.6724 19.9968H10.6259C9.85154 19.9968 9.41279 19.7568 9.17654 19.5053C8.51841 19.8344 7.66679 19.6985 7.04747 19.3715C6.8992 19.2988 6.76968 19.1929 6.66897 19.0621C6.56826 18.9312 6.49908 18.7789 6.46679 18.617C6.44379 18.485 6.44379 18.3501 6.46679 18.2181C6.40972 18.1587 6.35848 18.0939 6.31379 18.0246C5.96211 17.4395 5.80869 16.7566 5.87635 16.0773C5.9326 15.3554 6.4321 14.711 6.75722 14.3684C6.73012 13.5946 6.86586 12.8238 7.15566 12.1058C7.46706 11.4381 7.91703 10.8443 8.47566 10.364C8.15635 9.82583 7.83141 8.99746 8.14679 8.15352C8.37329 7.55165 8.5591 7.21677 8.96747 7.07352C9.14573 7.02207 9.31119 6.93372 9.4531 6.81421C10.0487 6.16715 10.871 5.77474 11.7487 5.71865C11.7854 5.62583 11.828 5.52496 11.8745 5.4359C12.1842 4.77777 12.5131 4.4084 12.8982 4.27471C13.0377 4.22262 13.1875 4.20424 13.3355 4.22108ZM13.2308 4.91427C12.724 4.93096 12.2268 6.43283 12.2268 6.43283C11.8073 6.39169 11.3839 6.449 10.9904 6.60019C10.5969 6.75139 10.2441 6.9923 9.9601 7.30377C9.74966 7.50667 9.49449 7.65728 9.21516 7.74346C9.13566 7.77046 9.03891 7.76633 8.79891 8.41471C8.43122 9.39608 9.4261 10.5072 9.4261 10.5072C9.4261 10.5072 8.2396 11.3453 7.8001 12.3886C7.50667 13.1038 7.3905 13.8794 7.46147 14.6493C7.46147 14.6493 6.61772 15.3807 6.56372 16.1356C6.51334 16.6644 6.63331 17.1954 6.9061 17.6511C6.92739 17.6966 6.95758 17.7374 6.99489 17.771C7.0322 17.8046 7.07586 17.8303 7.12331 17.8468C7.17075 17.8632 7.22101 17.8699 7.2711 17.8666C7.3212 17.8633 7.37012 17.85 7.41497 17.8274C7.41497 17.8274 6.85379 18.4812 7.37822 18.758C7.85635 19.0075 8.66147 19.1451 9.08729 18.7212C9.39704 18.4116 9.45891 17.7209 9.5731 17.4383C9.6001 17.3725 9.6931 17.5486 9.78216 17.6318C9.86424 17.7036 9.95224 17.7684 10.0452 17.8253C10.0452 17.8253 9.29072 18.1505 9.60029 18.8918C9.70285 19.1375 10.0687 19.294 10.6668 19.2903C10.8893 19.2903 13.3298 19.151 13.9801 18.994C14.1768 18.963 14.356 18.863 14.4856 18.7118C15.5416 18.3977 16.5501 17.942 17.4837 17.357C18.401 16.7588 18.7765 16.5959 19.5177 16.4198C20.1293 16.2747 20.0887 15.3267 19.2777 15.3402C18.4377 15.35 17.7024 15.7833 17.081 16.1703C15.9198 16.8884 15.3391 16.8421 15.3391 16.8421L15.3194 16.8093C15.2401 16.6795 15.6912 15.5163 15.1859 14.1305C14.6403 12.6151 13.7733 12.2493 13.8428 12.133C14.1391 11.6318 14.8805 10.8361 15.1765 9.35352C15.3528 8.4554 15.3061 6.97677 14.9075 6.20258C14.8338 6.05933 14.1758 6.44259 14.1758 6.44259C14.1758 6.44259 13.5603 5.07027 13.3882 4.96002C13.3417 4.92887 13.2868 4.91289 13.2308 4.91427Z" fill="#2C8EBB"/>
</g>
<defs>
<clipPath id="clip0_771_1259">
<rect width="24" height="24" fill="white" transform="translate(0.457031 0.105835)"/>
</clipPath>
</defs>
</svg>
