{
	"asset":{
		"generator":"Khronos glTF Blender I/O v4.0.44",
		"version":"2.0"
	},
	"scene":0,
	"scenes":[
		{
			"name":"Scene",
			"nodes":[
				0,
				1
			]
		}
	],
	"nodes":[
		{
			"mesh":0,
			"name":"Curve.002",
			"rotation":[
				0.7071068286895752,
				0,
				0,
				0.7071068286895752
			],
			"translation":[
				-0.03668861836194992,
				0,
				0
			]
		},
		{
			"mesh":1,
			"name":"Curve.003",
			"rotation":[
				0.7071068286895752,
				0,
				0,
				0.7071068286895752
			],
			"translation":[
				-0.03668861836194992,
				0,
				0
			]
		}
	],
	"meshes":[
		{
			"name":"Curve.002",
			"primitives":[
				{
					"attributes":{
						"POSITION":0,
						"NORMAL":1,
						"TEXCOORD_0":2
					},
					"indices":3
				}
			]
		},
		{
			"name":"Curve.003",
			"primitives":[
				{
					"attributes":{
						"POSITION":4,
						"NORMAL":5,
						"TEXCOORD_0":6
					},
					"indices":7
				}
			]
		}
	],
	"accessors":[
		{
			"bufferView":0,
			"componentType":5126,
			"count":14428,
			"max":[
				0.05325827747583389,
				0.004479678347706795,
				-0.015446461737155914
			],
			"min":[
				1.915823668241501e-05,
				0,
				-0.06881094723939896
			],
			"type":"VEC3"
		},
		{
			"bufferView":1,
			"componentType":5126,
			"count":14428,
			"type":"VEC3"
		},
		{
			"bufferView":2,
			"componentType":5126,
			"count":14428,
			"type":"VEC2"
		},
		{
			"bufferView":3,
			"componentType":5123,
			"count":76452,
			"type":"SCALAR"
		},
		{
			"bufferView":4,
			"componentType":5126,
			"count":9182,
			"max":[
				0.06843680143356323,
				0.004479678347706795,
				-0.0002603839966468513
			],
			"min":[
				0.026708565652370453,
				0,
				-0.06890477985143661
			],
			"type":"VEC3"
		},
		{
			"bufferView":5,
			"componentType":5126,
			"count":9182,
			"type":"VEC3"
		},
		{
			"bufferView":6,
			"componentType":5126,
			"count":9182,
			"type":"VEC2"
		},
		{
			"bufferView":7,
			"componentType":5123,
			"count":49440,
			"type":"SCALAR"
		}
	],
	"bufferViews":[
		{
			"buffer":0,
			"byteLength":173136,
			"byteOffset":0,
			"target":34962
		},
		{
			"buffer":0,
			"byteLength":173136,
			"byteOffset":173136,
			"target":34962
		},
		{
			"buffer":0,
			"byteLength":115424,
			"byteOffset":346272,
			"target":34962
		},
		{
			"buffer":0,
			"byteLength":152904,
			"byteOffset":461696,
			"target":34963
		},
		{
			"buffer":0,
			"byteLength":110184,
			"byteOffset":614600,
			"target":34962
		},
		{
			"buffer":0,
			"byteLength":110184,
			"byteOffset":724784,
			"target":34962
		},
		{
			"buffer":0,
			"byteLength":73456,
			"byteOffset":834968,
			"target":34962
		},
		{
			"buffer":0,
			"byteLength":98880,
			"byteOffset":908424,
			"target":34963
		}
	],
	"buffers":[
		{
			"byteLength":1007304,
			"uri":"logo.bin"
		}
	]
}
